<svg xmlns="http://www.w3.org/2000/svg" width="400" height="400" viewBox="-100 -100 200 200">      
  <g transform="translate(0 5)">
    <g>
      <polygon points="0,0 36,-50 0,-100" fill="#EDD8B7" />
      <polygon points="0,0 -36,-50 0,-100" fill="#E5C39C" />
    </g>
    <g transform="rotate(72)">
      <polygon points="0,0 36,-50 0,-100" fill="#EDD8B7" />
      <polygon points="0,0 -36,-50 0,-100" fill="#E5C39C" />
    </g>
    <g transform="rotate(-72)">
      <polygon points="0,0 36,-50 0,-100" fill="#EDD8B7" />
      <polygon points="0,0 -36,-50 0,-100" fill="#E5C39C" />
    </g>
    <g transform="rotate(144)">
      <polygon points="0,0 36,-50 0,-100" fill="#EDD8B7" />
      <polygon points="0,0 -36,-50 0,-100" fill="#E5C39C" />
    </g>
    <g transform="rotate(-144)">
      <polygon points="0,0 36,-50 0,-100" fill="#EDD8B7" />
      <polygon points="0,0 -36,-50 0,-100" fill="#E5C39C" />
    </g>
  </g>
</svg>