<?xml version="1.0" encoding="UTF-8" standalone="no"?>
<svg
   xmlns:dc="http://purl.org/dc/elements/1.1/"
   xmlns:cc="http://creativecommons.org/ns#"
   xmlns:rdf="http://www.w3.org/1999/02/22-rdf-syntax-ns#"
   xmlns:svg="http://www.w3.org/2000/svg"
   xmlns="http://www.w3.org/2000/svg"
   xmlns:sodipodi="http://sodipodi.sourceforge.net/DTD/sodipodi-0.dtd"
   xmlns:inkscape="http://www.inkscape.org/namespaces/inkscape"
   version="1.1"
   id="Layer_1"
   x="0px"
   y="0px"
   viewBox="0 0 128 128"
   xml:space="preserve"
   sodipodi:docname="egyptian-svgrepo-com.svg"
   inkscape:version="1.0.1 (3bc2e813f5, 2020-09-07)"
   width="128"
   height="128"><metadata
   id="metadata5687"><rdf:RDF><cc:Work
       rdf:about=""><dc:format>image/svg+xml</dc:format><dc:type
         rdf:resource="http://purl.org/dc/dcmitype/StillImage" /><dc:title /></cc:Work></rdf:RDF></metadata><defs
   id="defs5685" /><sodipodi:namedview
   pagecolor="#ffffff"
   bordercolor="#666666"
   borderopacity="1"
   objecttolerance="10"
   gridtolerance="10"
   guidetolerance="10"
   inkscape:pageopacity="0"
   inkscape:pageshadow="2"
   inkscape:window-width="1920"
   inkscape:window-height="1017"
   id="namedview5683"
   showgrid="false"
   inkscape:zoom="1.7130189"
   inkscape:cx="248.10001"
   inkscape:cy="170.5075"
   inkscape:window-x="-8"
   inkscape:window-y="-8"
   inkscape:window-maximized="1"
   inkscape:current-layer="Layer_1"
   inkscape:document-rotation="0" />
<path
   style="fill:#a3d5e0;stroke-width:0.25796"
   d="M 64,0 C 28.659412,0 0,28.659412 0,64 0,99.340588 28.659412,128 64,128 99.340588,128 128,99.340588 128,64 128,28.659412 99.340588,0 64,0 Z"
   id="path5532" />
<g
   id="g5538"
   transform="scale(0.2579605)">
	<path
   style="fill:#328e7c"
   d="m 124.5,131.2 c 0,0 -3.4,18.9 -8,69.9 -3.6,39.2 -2.7,179.4 -2.7,179.4 l 104.4,28 2.7,-297.5 z"
   id="path5534" />
	<path
   style="fill:#328e7c"
   d="m 379.8,199.8 c -4.7,-51.7 -8,-68.6 -8,-68.6 l -96.4,-20.2 2.7,297.5 104.4,-28 c 0,0 0.7,-142.2 -2.7,-180.7 z"
   id="path5536" />
</g>
<path
   style="fill:#b27e5b;stroke-width:0.25796"
   d="M 107.95647,98.747279 C 105.7638,91.704958 87.010077,86.029827 63.896816,86.029827 c -23.113261,0 -41.660621,5.675131 -43.853285,12.717452 C 19.372834,100.93994 18.624748,104.474 17.902459,108.395 29.536477,120.49335 45.891173,128 64,128 c 18.108827,0 34.463523,-7.53245 46.09754,-19.605 -0.69649,-3.921 -1.44458,-7.48085 -2.14107,-9.647721 z"
   id="path5540" />
<g
   id="g5548"
   transform="scale(0.2579605)">
	<path
   style="fill:#a07252"
   d="M 304.9,269.8 H 191.3 c 17.7,46.3 1.4,68.3 1.4,68.3 l 11.8,49.8 h 87.1 l 11.8,-49.8 c 0.1,-0.1 -16.2,-22 1.5,-68.3 z"
   id="path5542" />
	<path
   style="fill:#a07252"
   d="m 161.4,178 c -8.4,1.4 -14.9,5.1 -10.1,32.9 4.8,27.8 10.7,29.1 19.1,27.7 z"
   id="path5544" />
	<path
   style="fill:#a07252"
   d="m 334.9,178 -9,60.6 c 8.4,1.4 14.3,0.1 19.1,-27.7 4.7,-27.8 -1.7,-31.4 -10.1,-32.9 z"
   id="path5546" />
</g>
<path
   style="fill:#b27e5b;stroke-width:0.25796"
   d="m 64,15.890367 c -12.562676,0 -22.777912,5.468762 -22.777912,29.304313 0,8.074163 1.599355,17.592906 3.998388,22.468359 C 50.48287,78.394196 59.588875,82.134623 64,82.134623 c 4.411125,0 13.51713,-3.740427 18.779524,-14.471584 C 85.178557,62.787586 86.777912,53.268843 86.777912,45.19468 86.777912,21.359129 76.562676,15.890367 64,15.890367 Z"
   id="path5550" />
<g
   id="g5562"
   transform="scale(0.2579605)">
	<path
   style="fill:#191919"
   d="m 310.4,185.8 c -1.1,0.1 -2.3,0.1 -3.4,0 -2.2,-0.2 -4.3,-0.8 -6.3,-1.8 -0.1,0 -0.2,-0.1 -0.3,-0.1 -0.8,-0.2 -1.7,0.3 -1.8,1.2 -0.2,0.8 1.4,1.9 1.4,1.9 2.4,0.5 4.7,0.6 7.1,0.3 1.2,-0.2 2.4,-0.4 3.5,-0.8 1.1,-0.4 2.2,-0.9 3.2,-1.5 -1.1,0.5 -2.3,0.7 -3.4,0.8 z"
   id="path5552" />
	<path
   style="fill:#191919"
   d="m 195.6,183.9 c -0.1,0 -0.2,0.1 -0.3,0.1 -2,0.9 -4.1,1.6 -6.3,1.8 -1.1,0.1 -2.2,0.1 -3.4,0 -1.1,-0.1 -2.3,-0.4 -3.3,-0.8 1,0.7 2,1.1 3.2,1.5 1.1,0.4 2.3,0.7 3.5,0.8 2.4,0.3 4.6,0.2 7.1,-0.3 0,0 1.6,-1.1 1.4,-1.9 -0.2,-0.8 -1.1,-1.3 -1.9,-1.2 z"
   id="path5554" />
	<path
   style="fill:#191919"
   d="m 312.2,170.1 c -7.5,-7.1 -20.9,-8.2 -28.2,-8.2 -1.2,0 -2.5,0 -3.7,0.1 -0.4,0 -1.1,1 -1.1,1 0,0 -0.5,-0.9 -0.7,-0.9 -5.8,0.4 -10.6,1.4 -13,2.3 l -0.4,0.1 c -2.8,1 -6.3,2.3 -4.9,6.7 0.7,2.3 2.3,3.6 4.3,3.6 0.4,0 0.9,-0.1 1.4,-0.2 0.7,-0.2 1.4,-0.5 2.2,-0.8 0.5,-0.2 0.9,-0.4 1.3,-0.5 0.5,-0.2 1.1,-0.4 1.6,-0.6 0.7,-0.2 2.1,-2.5 2.1,-2.5 0,0 1.6,1.6 2.4,1.4 3.4,-0.7 7,-1 10.8,-1 10.3,0 18.6,2.4 20.8,3.3 1.5,0.6 2.7,0.9 3.6,0.9 1.7,0 2.3,-1.1 2.5,-1.5 0.3,-1.1 0,-2.3 -1,-3.2 z"
   id="path5556" />
	<path
   style="fill:#191919"
   d="m 231.2,164.5 -0.4,-0.1 c -1.2,-0.5 -3.1,-0.9 -5.3,-1.3 -0.8,-0.1 -2.7,1.3 -2.7,1.3 0,0 -0.7,-1.8 -1.1,-1.8 -2.9,-0.3 -6.1,-0.6 -9.6,-0.6 -7.3,0 -20.7,1.1 -28.2,8.2 -1,0.9 -1.4,2.1 -0.9,3.2 0.2,0.5 0.8,1.5 2.5,1.5 0.9,0 2.1,-0.3 3.6,-0.9 2.1,-0.8 10.5,-3.3 20.8,-3.3 6.3,0 12,0.9 16.9,2.7 0.4,0.1 0.9,0.3 1.3,0.5 0.8,0.3 1.6,0.7 2.2,0.8 0.5,0.1 1,0.2 1.4,0.2 2.1,0 3.7,-1.3 4.4,-3.6 1.4,-4.5 -2.1,-5.8 -4.9,-6.8 z"
   id="path5558" />
	<path
   style="fill:#191919"
   d="m 248.1,273.4 c -4.9,0 -8.3,3.1 -8.3,3.1 0,1.8 3.7,56.9 8.3,56.9 4.6,0 8.3,-55.1 8.3,-56.9 0,0 -3.4,-3.1 -8.3,-3.1 z"
   id="path5560" />
</g>
<path
   style="fill:#9e6e4d;stroke-width:0.25796"
   d="M 67.172914,67.147118 C 66.270052,67.018138 64,67.946796 64,67.946796 c 0,0 -2.295848,-0.954454 -3.19871,-0.799678 -1.470375,0.232165 -3.637243,2.450625 -3.637243,2.889158 0,0.722289 3.06973,1.702539 6.835953,1.702539 3.766223,0 6.835953,-0.98025 6.835953,-1.702539 0,0.0258 -2.192664,-2.656993 -3.663039,-2.889158 z"
   id="path5564" />
<path
   style="fill:#896045;stroke-width:0.25796"
   d="m 64,68.823861 c -4.04998,0 -6.835953,1.238211 -6.835953,1.238211 0,0.722289 3.06973,1.702539 6.835953,1.702539 3.766223,0 6.835953,-0.98025 6.835953,-1.702539 0,0 -2.785973,-1.238211 -6.835953,-1.238211 z"
   id="path5566" />
<g
   id="g5574"
   transform="scale(0.2579605)">
	<path
   style="fill:#876249"
   d="m 257.6,204.2 c 0,-11.4 -3.8,-14.4 -3.8,-14.4 2.2,8.3 2,15.2 2.3,21.7 0.4,9.3 4.2,14.6 4.2,14.6 -1.6,-3.9 -2.7,-10.5 -2.7,-21.9 z"
   id="path5568" />
	<path
   style="fill:#876249"
   d="m 233.9,235.3 c 0,0 -6.5,12.7 5.1,11.5 -0.1,0.1 -7.7,-2.3 -5.1,-11.5 z"
   id="path5570" />
	<path
   style="fill:#876249"
   d="m 263.6,235.3 c 2.5,9.1 -5.1,11.5 -5.1,11.5 11.6,1.9 5.1,-11.5 5.1,-11.5 z"
   id="path5572" />
</g>
<path
   style="fill:#332016;stroke-width:0.25796"
   d="m 72.719065,46.020153 c -2.553809,-0.05159 -4.411125,2.837566 -4.411125,2.837566 0,0 0.877066,0.902861 4.540105,0.902861 3.714631,0 5.004434,-1.418782 5.004434,-1.418782 0,0 -2.192664,-2.270053 -5.133414,-2.321645 z"
   id="path5576" />
<path
   style="fill:#eadad0;stroke-width:0.25796"
   d="m 72.719065,46.020153 c -2.553809,-0.05159 -4.411125,2.837566 -4.411125,2.837566 0,0 1.986296,0.567513 4.540105,0.438533 2.889158,-0.154777 5.004434,-0.954454 5.004434,-0.954454 0,0 -2.192664,-2.270053 -5.133414,-2.321645 z"
   id="path5578" />
<circle
   style="fill:#2d170f;stroke-width:0.25796"
   cx="73.002823"
   cy="47.696896"
   id="circle5580"
   r="1.9089078" />
<path
   style="fill:#9e6e4d;stroke-width:0.25796"
   d="m 74.808545,45.787989 c -0.490125,-0.103184 -1.521967,-0.128981 -2.141072,-0.128981 -2.553809,0.07739 -4.359533,3.172915 -4.359533,3.172915 l 0.232165,0.05159 c 0.98025,-0.773882 3.276098,-2.656993 4.901249,-2.631197 2.966546,0.07739 4.436921,2.063684 4.436921,2.063684 0,0 -0.309553,-2.012092 -3.06973,-2.528013 z"
   id="path5582" />
<g
   id="g5588"
   transform="scale(0.2579605)">
	<path
   style="fill:#191919"
   d="m 288.4,177.6 c -9.9,-0.2 -23.7,11.7 -23.7,11.7 l 0.9,0.2 c 3.8,-3 12.7,-10.3 19,-10.2 9.4,0.3 17.2,8 17.2,8 0,0 -1.9,-9.4 -13.4,-9.7 z"
   id="path5584" />
	<path
   style="fill:#191919"
   d="m 282.4,191 c -10,0.5 -17.6,-1.7 -17.6,-1.7 0,0 3.4,3.5 17.6,3.5 14.4,0 19.4,-5.5 19.4,-5.5 0,0 -8.2,3.1 -19.4,3.7 z"
   id="path5586" />
</g>
<path
   style="fill:#332016;stroke-width:0.25796"
   d="m 55.280935,46.020153 c -2.966546,0.07739 -5.133414,2.321645 -5.133414,2.321645 0,0 1.289803,1.418782 5.004434,1.418782 3.663039,0 4.540105,-0.902861 4.540105,-0.902861 0,0 -1.83152,-2.914954 -4.411125,-2.837566 z"
   id="path5590" />
<path
   style="fill:#eadad0;stroke-width:0.25796"
   d="m 55.280935,46.020153 c -2.966546,0.07739 -5.133414,2.321645 -5.133414,2.321645 0,0 2.115276,0.799677 5.004434,0.954454 2.579605,0.12898 4.540105,-0.438533 4.540105,-0.438533 0,0 -1.83152,-2.914954 -4.411125,-2.837566 z"
   id="path5592" />
<circle
   style="fill:#2d170f;stroke-width:0.25796"
   cx="54.997177"
   cy="47.696896"
   id="circle5594"
   r="1.9089078" />
<path
   style="fill:#9e6e4d;stroke-width:0.25796"
   d="m 55.332527,45.659008 c -0.619105,-0.0258 -1.650947,0.0258 -2.141072,0.128981 -2.760177,0.515921 -3.043934,2.553809 -3.043934,2.553809 0,0 1.470375,-1.986296 4.436921,-2.063684 1.599355,-0.0258 3.920999,1.857315 4.901249,2.631197 l 0.232165,-0.05159 c 0,-0.0258 -1.83152,-3.121322 -4.385329,-3.198711 z"
   id="path5596" />
<g
   id="g5602"
   transform="scale(0.2579605)">
	<path
   style="fill:#191919"
   d="m 207.8,177.6 c -11.5,0.3 -13.3,9.7 -13.3,9.7 0,0 7.7,-7.7 17.2,-8 6.2,-0.2 15.2,7.2 19,10.2 l 0.9,-0.2 c -0.1,0 -13.9,-11.9 -23.8,-11.7 z"
   id="path5598" />
	<path
   style="fill:#191919"
   d="m 213.8,191 c -11.2,-0.6 -19.4,-3.7 -19.4,-3.7 0,0 5,5.5 19.4,5.5 14.2,0 17.6,-3.5 17.6,-3.5 0,0 -7.6,2.2 -17.6,1.7 z"
   id="path5600" />
</g>
<path
   style="fill:#e2c85a;stroke-width:0.25796"
   d="M 78.291012,86.777912 C 77.542926,89.357517 74.602177,95.961306 64,95.961306 c -10.627973,0 -13.568722,-6.655381 -14.291012,-9.20919 -8.641676,0.954454 -16.019347,2.708585 -21.281741,5.004434 0.515921,2.914953 5.28819,23.55179 35.546957,23.55179 30.387747,0 34.437727,-20.843205 35.469569,-23.603382 -5.288191,-2.244257 -12.614269,-3.972592 -21.152761,-4.927046 z"
   id="path5604" />
<g
   id="g5610"
   transform="scale(0.2579605)">
	<path
   style="fill:#ccb140"
   d="m 303.5,336.4 c -2.9,10 -14.3,35.6 -55.4,35.6 -41.2,0 -52.6,-25.8 -55.4,-35.7 -5.6,0.6 -11,1.3 -16.3,2.1 4.5,14.6 20.2,47 71.8,47 51.5,0 67.3,-32.2 71.8,-46.8 -5.4,-0.9 -10.8,-1.6 -16.5,-2.2 z"
   id="path5606" />
	<path
   style="fill:#ccb140"
   d="m 379.1,353.1 c -11.4,27.2 -42.1,73.4 -131.2,73.4 -88.7,0 -120.9,-45.8 -132.1,-73 -1.9,0.8 -3.8,1.5 -5.6,2.3 2,11.3 20.5,91.3 137.8,91.3 117.8,0 133.5,-80.8 137.5,-91.5 -2.1,-0.9 -4.2,-1.7 -6.4,-2.5 z"
   id="path5608" />
</g>
<path
   style="fill:#328e7c;stroke-width:0.25796"
   d="m 64,12.665861 v 14.781136 l 31.909714,6.397421 C 95.909714,23.96453 79.374446,12.665861 64,12.665861 Z"
   id="path5612" />
<path
   style="fill:#359b88;stroke-width:0.25796"
   d="m 64,12.665861 v 14.781136 c 0,0 22.158807,2.605401 22.623136,0.05159 0.515921,-2.889157 9.286578,6.371625 9.286578,6.371625 C 95.909714,23.96453 79.374446,12.665861 64,12.665861 Z"
   id="path5614" />
<path
   style="fill:#328e7c;stroke-width:0.25796"
   d="M 32.116082,33.870214 64,27.446997 V 12.665861 c -15.34865,0 -31.883918,11.298669 -31.883918,21.204353 z"
   id="path5616" />
<path
   style="fill:#359b88;stroke-width:0.25796"
   d="m 32.116082,33.870214 c 0,0 8.667473,-9.492947 9.286578,-6.371625 0.593309,3.095526 22.623136,-0.05159 22.623136,-0.05159 V 12.665861 c -15.374446,0 -31.909714,11.298669 -31.909714,21.204353 z"
   id="path5618" />
<path
   style="fill:#dbc142;stroke-width:0.25796"
   d="m 64,24.841596 c -11.582426,0 -22.623136,2.656993 -22.623136,2.656993 l 0.98025,5.597743 c 0,0 8.332124,-2.656993 21.61709,-2.656993 13.284966,0 21.642886,2.656993 21.642886,2.656993 l 0.98025,-5.597743 c 0.0258,0 -11.014914,-2.656993 -22.59734,-2.656993 z"
   id="path5620" />
<path
   style="fill:#b5a023;stroke-width:0.25796"
   d="M 70.371624,6.9649335 C 69.623539,5.7783152 68.488513,4.8754534 67.095526,4.8754534 c -0.954454,0 -2.141072,0.7480855 -3.19871,0.7480855 -1.057638,0 -2.244257,-0.7738815 -3.19871,-0.7480855 -1.392987,0 -2.528013,0.9028618 -3.276099,2.0894801 -3.043934,4.8238615 1.418783,12.2789195 2.373237,14.0330515 1.264006,2.295848 1.23821,6.423216 1.186618,8.22894 -0.0258,0.541717 0.232165,0.799677 0.644901,0.696493 0.59331,-0.154776 1.470375,-0.438533 2.244257,-0.438533 0.799677,0 1.754131,0.335349 2.373236,0.464329 0.386941,0.103184 0.593309,-0.180572 0.567513,-0.748085 -0.07739,-1.805724 -0.07739,-5.907296 1.186619,-8.203144 0.954454,-1.754132 5.41717,-9.20919 2.373236,-14.0330515 z"
   id="path5622" />
<path
   style="fill:#277869;stroke-width:0.25796"
   d="m 68.978638,9.2607819 c -0.59331,-0.9286578 -1.470375,-1.6251511 -2.553809,-1.6509472 -0.748086,0 -1.676744,1.1350262 -2.502217,1.1350262 -0.825474,0 -1.754132,-1.1350262 -2.502217,-1.1350262 -1.083434,0 -1.986296,0.7222894 -2.553809,1.6509472 -2.373237,3.7662231 1.573559,9.5961311 2.21846,10.9891171 1.135027,2.347441 1.135027,8.899637 1.135027,8.899637 h 3.405078 c 0,0 0,-6.552196 1.135026,-8.899637 0.644902,-1.392986 4.591697,-7.222894 2.218461,-10.9891171 z"
   id="path5624" />
<path
   style="fill:#359b88;stroke-width:0.25796"
   d="m 63.896816,8.7448609 c -0.825474,0 -1.754132,-1.1350262 -2.502217,-1.1350262 -1.083434,0 -1.986296,0.7222894 -2.553809,1.6509472 -2.373237,3.7662231 1.573559,9.5961311 2.21846,10.9891171 1.135027,2.347441 1.135027,8.899637 1.135027,8.899637 h 3.405078 c 0,0 -0.85127,-20.4046751 -1.702539,-20.4046751 z"
   id="path5626" />
<g
   id="g5632"
   transform="scale(0.2579605)">
	<rect
   x="240.89999"
   y="40.5"
   style="fill:#b5a023"
   width="13.6"
   height="72.5"
   id="rect5628" />
	<path
   style="fill:#b5a023"
   d="m 260.1,18.9 c -3.7,0 -8.3,2.9 -12.4,2.9 -4.1,0 -8.7,-3 -12.4,-2.9 -5.4,0 -9.8,3.5 -12.7,8.1 0,0 18.3,23.2 25.1,23.2 6.7,0 25.1,-23.2 25.1,-23.2 -2.9,-4.6 -7.3,-8.1 -12.7,-8.1 z"
   id="path5630" />
</g>
<path
   style="fill:#dbc142;stroke-width:0.25796"
   d="m 67.095526,4.8754534 c -0.954454,0 -2.141072,0.7480855 -3.19871,0.7480855 -1.057638,0 -2.244257,-0.7738815 -3.19871,-0.7480855 -1.392987,0 -2.528013,0.9028618 -3.276099,2.0894801 0,0 1.573559,-0.1547763 2.321645,1.0060459 1.083434,1.7025393 2.399032,4.9528416 4.153164,4.9528416 1.728335,0 3.043934,-3.2245062 4.127368,-4.9270455 0.748085,-1.1866183 2.34744,-1.0576381 2.34744,-1.0576381 -0.748085,-1.1608222 -1.883111,-2.063684 -3.276098,-2.063684 z"
   id="path5634" />
<g
   id="g5650"
   transform="scale(0.2579605)">
	<path
   style="fill:#917d19"
   d="m 252.9,52.2 h -10.1 c -0.5,0 -0.9,0.5 -0.9,1.1 0,0.6 0.4,1.1 0.9,1.1 h 10.1 c 0.5,0 0.9,-0.5 0.9,-1.1 0,-0.6 -0.4,-1.1 -0.9,-1.1 z"
   id="path5636" />
	<path
   style="fill:#917d19"
   d="m 252.9,60.9 h -10.1 c -0.5,0 -0.9,0.5 -0.9,1.1 0,0.6 0.4,1.1 0.9,1.1 h 10.1 c 0.5,0 0.9,-0.5 0.9,-1.1 0,-0.6 -0.4,-1.1 -0.9,-1.1 z"
   id="path5638" />
	<path
   style="fill:#917d19"
   d="m 252.9,69.9 h -10.1 c -0.5,0 -0.9,0.5 -0.9,1.1 0,0.6 0.4,1.1 0.9,1.1 h 10.1 c 0.5,0 0.9,-0.5 0.9,-1.1 0,-0.6 -0.4,-1.1 -0.9,-1.1 z"
   id="path5640" />
	<path
   style="fill:#917d19"
   d="m 252.9,78.6 h -10.1 c -0.5,0 -0.9,0.5 -0.9,1.1 0,0.6 0.4,1.1 0.9,1.1 h 10.1 c 0.5,0 0.9,-0.5 0.9,-1.1 0,-0.6 -0.4,-1.1 -0.9,-1.1 z"
   id="path5642" />
	<path
   style="fill:#917d19"
   d="m 252.9,87.8 h -10.1 c -0.5,0 -0.9,0.5 -0.9,1.1 0,0.6 0.4,1.1 0.9,1.1 h 10.1 c 0.5,0 0.9,-0.5 0.9,-1.1 0,-0.6 -0.4,-1.1 -0.9,-1.1 z"
   id="path5644" />
	<path
   style="fill:#917d19"
   d="m 252.9,96.5 h -10.1 c -0.5,0 -0.9,0.5 -0.9,1.1 0,0.6 0.4,1.1 0.9,1.1 h 10.1 c 0.5,0 0.9,-0.5 0.9,-1.1 0,-0.6 -0.4,-1.1 -0.9,-1.1 z"
   id="path5646" />
	<path
   style="fill:#917d19"
   d="m 252.9,105.1 h -10.1 c -0.5,0 -0.9,0.5 -0.9,1.1 0,0.6 0.4,1.1 0.9,1.1 h 10.1 c 0.5,0 0.9,-0.5 0.9,-1.1 0,-0.6 -0.4,-1.1 -0.9,-1.1 z"
   id="path5648" />
</g>
<g
   id="g5652"
   transform="scale(0.2579605)">
</g>
<g
   id="g5654"
   transform="scale(0.2579605)">
</g>
<g
   id="g5656"
   transform="scale(0.2579605)">
</g>
<g
   id="g5658"
   transform="scale(0.2579605)">
</g>
<g
   id="g5660"
   transform="scale(0.2579605)">
</g>
<g
   id="g5662"
   transform="scale(0.2579605)">
</g>
<g
   id="g5664"
   transform="scale(0.2579605)">
</g>
<g
   id="g5666"
   transform="scale(0.2579605)">
</g>
<g
   id="g5668"
   transform="scale(0.2579605)">
</g>
<g
   id="g5670"
   transform="scale(0.2579605)">
</g>
<g
   id="g5672"
   transform="scale(0.2579605)">
</g>
<g
   id="g5674"
   transform="scale(0.2579605)">
</g>
<g
   id="g5676"
   transform="scale(0.2579605)">
</g>
<g
   id="g5678"
   transform="scale(0.2579605)">
</g>
<g
   id="g5680"
   transform="scale(0.2579605)">
</g>
</svg>
