<?xml version="1.0" encoding="iso-8859-1"?>
<!-- Generator: Adobe Illustrator 19.0.0, SVG Export Plug-In . SVG Version: 6.00 Build 0)  -->
<svg version="1.1" id="Layer_1" xmlns="http://www.w3.org/2000/svg" xmlns:xlink="http://www.w3.org/1999/xlink" x="0px" y="0px"
	 viewBox="0 0 496.2 496.2" style="enable-background:new 0 0 496.2 496.2;" xml:space="preserve">
<path style="fill:#A3D5E0;" d="M248.1,0C111.1,0,0,111.1,0,248.1s111.1,248.1,248.1,248.1s248.1-111.1,248.1-248.1S385.1,0,248.1,0z
	"/>
<g>
	<path style="fill:#328E7C;" d="M124.5,131.2c0,0-3.4,18.9-8,69.9c-3.6,39.2-2.7,179.4-2.7,179.4l104.4,28l2.7-297.5L124.5,131.2z"
		/>
	<path style="fill:#328E7C;" d="M379.8,199.8c-4.7-51.7-8-68.6-8-68.6L275.4,111l2.7,297.5l104.4-28
		C382.5,380.5,383.2,238.3,379.8,199.8z"/>
</g>
<path style="fill:#B27E5B;" d="M418.5,382.8c-8.5-27.3-81.2-49.3-170.8-49.3s-161.5,22-170,49.3c-2.6,8.5-5.5,22.2-8.3,37.4
	c45.1,46.9,108.5,76,178.7,76s133.6-29.2,178.7-76C424.1,405,421.2,391.2,418.5,382.8z"/>
<g>
	<path style="fill:#A07252;" d="M304.9,269.8H191.3c17.7,46.3,1.4,68.3,1.4,68.3l11.8,49.8h87.1l11.8-49.8
		C303.5,338,287.2,316.1,304.9,269.8z"/>
	<path style="fill:#A07252;" d="M161.4,178c-8.4,1.4-14.9,5.1-10.1,32.9s10.7,29.1,19.1,27.7L161.4,178z"/>
	<path style="fill:#A07252;" d="M334.9,178l-9,60.6c8.4,1.4,14.3,0.1,19.1-27.7C349.7,183.1,343.3,179.5,334.9,178z"/>
</g>
<path style="fill:#B27E5B;" d="M248.1,61.6c-48.7,0-88.3,21.2-88.3,113.6c0,31.3,6.2,68.2,15.5,87.1c20.4,41.6,55.7,56.1,72.8,56.1
	s52.4-14.5,72.8-56.1c9.3-18.9,15.5-55.8,15.5-87.1C336.4,82.8,296.8,61.6,248.1,61.6z"/>
<g>
	<path style="fill:#191919;" d="M310.4,185.8c-1.1,0.1-2.3,0.1-3.4,0c-2.2-0.2-4.3-0.8-6.3-1.8c-0.1,0-0.2-0.1-0.3-0.1
		c-0.8-0.2-1.7,0.3-1.8,1.2c-0.2,0.8,1.4,1.9,1.4,1.9c2.4,0.5,4.7,0.6,7.1,0.3c1.2-0.2,2.4-0.4,3.5-0.8c1.1-0.4,2.2-0.9,3.2-1.5
		C312.7,185.5,311.5,185.7,310.4,185.8z"/>
	<path style="fill:#191919;" d="M195.6,183.9c-0.1,0-0.2,0.1-0.3,0.1c-2,0.9-4.1,1.6-6.3,1.8c-1.1,0.1-2.2,0.1-3.4,0
		c-1.1-0.1-2.3-0.4-3.3-0.8c1,0.7,2,1.1,3.2,1.5c1.1,0.4,2.3,0.7,3.5,0.8c2.4,0.3,4.6,0.2,7.1-0.3c0,0,1.6-1.1,1.4-1.9
		C197.3,184.3,196.4,183.8,195.6,183.9z"/>
	<path style="fill:#191919;" d="M312.2,170.1c-7.5-7.1-20.9-8.2-28.2-8.2c-1.2,0-2.5,0-3.7,0.1c-0.4,0-1.1,1-1.1,1s-0.5-0.9-0.7-0.9
		c-5.8,0.4-10.6,1.4-13,2.3l-0.4,0.1c-2.8,1-6.3,2.3-4.9,6.7c0.7,2.3,2.3,3.6,4.3,3.6c0.4,0,0.9-0.1,1.4-0.2
		c0.7-0.2,1.4-0.5,2.2-0.8c0.5-0.2,0.9-0.4,1.3-0.5c0.5-0.2,1.1-0.4,1.6-0.6c0.7-0.2,2.1-2.5,2.1-2.5s1.6,1.6,2.4,1.4
		c3.4-0.7,7-1,10.8-1c10.3,0,18.6,2.4,20.8,3.3c1.5,0.6,2.7,0.9,3.6,0.9c1.7,0,2.3-1.1,2.5-1.5C313.5,172.2,313.2,171,312.2,170.1z"
		/>
	<path style="fill:#191919;" d="M231.2,164.5l-0.4-0.1c-1.2-0.5-3.1-0.9-5.3-1.3c-0.8-0.1-2.7,1.3-2.7,1.3s-0.7-1.8-1.1-1.8
		c-2.9-0.3-6.1-0.6-9.6-0.6c-7.3,0-20.7,1.1-28.2,8.2c-1,0.9-1.4,2.1-0.9,3.2c0.2,0.5,0.8,1.5,2.5,1.5c0.9,0,2.1-0.3,3.6-0.9
		c2.1-0.8,10.5-3.3,20.8-3.3c6.3,0,12,0.9,16.9,2.7c0.4,0.1,0.9,0.3,1.3,0.5c0.8,0.3,1.6,0.7,2.2,0.8c0.5,0.1,1,0.2,1.4,0.2
		c2.1,0,3.7-1.3,4.4-3.6C237.5,166.8,234,165.5,231.2,164.5z"/>
	<path style="fill:#191919;" d="M248.1,273.4c-4.9,0-8.3,3.1-8.3,3.1c0,1.8,3.7,56.9,8.3,56.9s8.3-55.1,8.3-56.9
		C256.4,276.5,253,273.4,248.1,273.4z"/>
</g>
<path style="fill:#9E6E4D;" d="M260.4,260.3c-3.5-0.5-12.3,3.1-12.3,3.1s-8.9-3.7-12.4-3.1c-5.7,0.9-14.1,9.5-14.1,11.2
	c0,2.8,11.9,6.6,26.5,6.6c14.6,0,26.5-3.8,26.5-6.6C274.6,271.6,266.1,261.2,260.4,260.3z"/>
<path style="fill:#896045;" d="M248.1,266.8c-15.7,0-26.5,4.8-26.5,4.8c0,2.8,11.9,6.6,26.5,6.6s26.5-3.8,26.5-6.6
	C274.6,271.6,263.8,266.8,248.1,266.8z"/>
<g>
	<path style="fill:#876249;" d="M257.6,204.2c0-11.4-3.8-14.4-3.8-14.4c2.2,8.3,2,15.2,2.3,21.7c0.4,9.3,4.2,14.6,4.2,14.6
		C258.7,222.2,257.6,215.6,257.6,204.2z"/>
	<path style="fill:#876249;" d="M233.9,235.3c0,0-6.5,12.7,5.1,11.5C238.9,246.9,231.3,244.5,233.9,235.3z"/>
	<path style="fill:#876249;" d="M263.6,235.3c2.5,9.1-5.1,11.5-5.1,11.5C270.1,248.7,263.6,235.3,263.6,235.3z"/>
</g>
<path style="fill:#332016;" d="M281.9,178.4c-9.9-0.2-17.1,11-17.1,11s3.4,3.5,17.6,3.5c14.4,0,19.4-5.5,19.4-5.5
	S293.3,178.6,281.9,178.4z"/>
<path style="fill:#EADAD0;" d="M281.9,178.4c-9.9-0.2-17.1,11-17.1,11s7.7,2.2,17.6,1.7c11.2-0.6,19.4-3.7,19.4-3.7
	S293.3,178.6,281.9,178.4z"/>
<circle style="fill:#2D170F;" cx="283" cy="184.9" r="7.4"/>
<path style="fill:#9E6E4D;" d="M290,177.5c-1.9-0.4-5.9-0.5-8.3-0.5c-9.9,0.3-16.9,12.3-16.9,12.3l0.9,0.2c3.8-3,12.7-10.3,19-10.2
	c11.5,0.3,17.2,8,17.2,8S300.7,179.5,290,177.5z"/>
<g>
	<path style="fill:#191919;" d="M288.4,177.6c-9.9-0.2-23.7,11.7-23.7,11.7l0.9,0.2c3.8-3,12.7-10.3,19-10.2c9.4,0.3,17.2,8,17.2,8
		S299.9,177.9,288.4,177.6z"/>
	<path style="fill:#191919;" d="M282.4,191c-10,0.5-17.6-1.7-17.6-1.7s3.4,3.5,17.6,3.5c14.4,0,19.4-5.5,19.4-5.5
		S293.6,190.4,282.4,191z"/>
</g>
<path style="fill:#332016;" d="M214.3,178.4c-11.5,0.3-19.9,9-19.9,9s5,5.5,19.4,5.5c14.2,0,17.6-3.5,17.6-3.5
	S224.3,178.1,214.3,178.4z"/>
<path style="fill:#EADAD0;" d="M214.3,178.4c-11.5,0.3-19.9,9-19.9,9s8.2,3.1,19.4,3.7c10,0.5,17.6-1.7,17.6-1.7
	S224.3,178.1,214.3,178.4z"/>
<circle style="fill:#2D170F;" cx="213.2" cy="184.9" r="7.4"/>
<path style="fill:#9E6E4D;" d="M214.5,177c-2.4-0.1-6.4,0.1-8.3,0.5c-10.7,2-11.8,9.9-11.8,9.9s5.7-7.7,17.2-8
	c6.2-0.1,15.2,7.2,19,10.2l0.9-0.2C231.5,189.3,224.4,177.3,214.5,177z"/>
<g>
	<path style="fill:#191919;" d="M207.8,177.6c-11.5,0.3-13.3,9.7-13.3,9.7s7.7-7.7,17.2-8c6.2-0.2,15.2,7.2,19,10.2l0.9-0.2
		C231.5,189.3,217.7,177.4,207.8,177.6z"/>
	<path style="fill:#191919;" d="M213.8,191c-11.2-0.6-19.4-3.7-19.4-3.7s5,5.5,19.4,5.5c14.2,0,17.6-3.5,17.6-3.5
		S223.8,191.5,213.8,191z"/>
</g>
<path style="fill:#E2C85A;" d="M303.5,336.4c-2.9,10-14.3,35.6-55.4,35.6c-41.2,0-52.6-25.8-55.4-35.7
	c-33.5,3.7-62.1,10.5-82.5,19.4c2,11.3,20.5,91.3,137.8,91.3c117.8,0,133.5-80.8,137.5-91.5C365,346.8,336.6,340.1,303.5,336.4z"/>
<g>
	<path style="fill:#CCB140;" d="M303.5,336.4c-2.9,10-14.3,35.6-55.4,35.6c-41.2,0-52.6-25.8-55.4-35.7c-5.6,0.6-11,1.3-16.3,2.1
		c4.5,14.6,20.2,47,71.8,47c51.5,0,67.3-32.2,71.8-46.8C314.6,337.7,309.2,337,303.5,336.4z"/>
	<path style="fill:#CCB140;" d="M379.1,353.1c-11.4,27.2-42.1,73.4-131.2,73.4c-88.7,0-120.9-45.8-132.1-73
		c-1.9,0.8-3.8,1.5-5.6,2.3c2,11.3,20.5,91.3,137.8,91.3c117.8,0,133.5-80.8,137.5-91.5C383.4,354.7,381.3,353.9,379.1,353.1z"/>
</g>
<path style="fill:#328E7C;" d="M248.1,49.1v57.3l123.7,24.8C371.8,92.9,307.7,49.1,248.1,49.1z"/>
<path style="fill:#359B88;" d="M248.1,49.1v57.3c0,0,85.9,10.1,87.7,0.2c2-11.2,36,24.7,36,24.7C371.8,92.9,307.7,49.1,248.1,49.1z"
	/>
<path style="fill:#328E7C;" d="M124.5,131.3l123.6-24.9V49.1C188.6,49.1,124.5,92.9,124.5,131.3z"/>
<path style="fill:#359B88;" d="M124.5,131.3c0,0,33.6-36.8,36-24.7c2.3,12,87.7-0.2,87.7-0.2V49.1
	C188.6,49.1,124.5,92.9,124.5,131.3z"/>
<path style="fill:#DBC142;" d="M248.1,96.3c-44.9,0-87.7,10.3-87.7,10.3l3.8,21.7c0,0,32.3-10.3,83.8-10.3s83.9,10.3,83.9,10.3
	l3.8-21.7C335.8,106.6,293,96.3,248.1,96.3z"/>
<path style="fill:#B5A023;" d="M272.8,27c-2.9-4.6-7.3-8.1-12.7-8.1c-3.7,0-8.3,2.9-12.4,2.9s-8.7-3-12.4-2.9
	c-5.4,0-9.8,3.5-12.7,8.1c-11.8,18.7,5.5,47.6,9.2,54.4c4.9,8.9,4.8,24.9,4.6,31.9c-0.1,2.1,0.9,3.1,2.5,2.7
	c2.3-0.6,5.7-1.7,8.7-1.7c3.1,0,6.8,1.3,9.2,1.8c1.5,0.4,2.3-0.7,2.2-2.9c-0.3-7-0.3-22.9,4.6-31.8C267.3,74.6,284.6,45.7,272.8,27z
	"/>
<path style="fill:#277869;" d="M267.4,35.9c-2.3-3.6-5.7-6.3-9.9-6.4c-2.9,0-6.5,4.4-9.7,4.4s-6.8-4.4-9.7-4.4
	c-4.2,0-7.7,2.8-9.9,6.4c-9.2,14.6,6.1,37.2,8.6,42.6c4.4,9.1,4.4,34.5,4.4,34.5h13.2c0,0,0-25.4,4.4-34.5
	C261.3,73.1,276.6,50.5,267.4,35.9z"/>
<path style="fill:#359B88;" d="M247.7,33.9c-3.2,0-6.8-4.4-9.7-4.4c-4.2,0-7.7,2.8-9.9,6.4c-9.2,14.6,6.1,37.2,8.6,42.6
	c4.4,9.1,4.4,34.5,4.4,34.5h13.2C254.3,113,251,33.9,247.7,33.9z"/>
<g>
	<rect x="240.9" y="40.5" style="fill:#B5A023;" width="13.6" height="72.5"/>
	<path style="fill:#B5A023;" d="M260.1,18.9c-3.7,0-8.3,2.9-12.4,2.9s-8.7-3-12.4-2.9c-5.4,0-9.8,3.5-12.7,8.1
		c0,0,18.3,23.2,25.1,23.2c6.7,0,25.1-23.2,25.1-23.2C269.9,22.4,265.5,18.9,260.1,18.9z"/>
</g>
<path style="fill:#DBC142;" d="M260.1,18.9c-3.7,0-8.3,2.9-12.4,2.9s-8.7-3-12.4-2.9c-5.4,0-9.8,3.5-12.7,8.1c0,0,6.1-0.6,9,3.9
	c4.2,6.6,9.3,19.2,16.1,19.2c6.7,0,11.8-12.5,16-19.1c2.9-4.6,9.1-4.1,9.1-4.1C269.9,22.4,265.5,18.9,260.1,18.9z"/>
<g>
	<path style="fill:#917D19;" d="M252.9,52.2h-10.1c-0.5,0-0.9,0.5-0.9,1.1s0.4,1.1,0.9,1.1h10.1c0.5,0,0.9-0.5,0.9-1.1
		C253.8,52.7,253.4,52.2,252.9,52.2z"/>
	<path style="fill:#917D19;" d="M252.9,60.9h-10.1c-0.5,0-0.9,0.5-0.9,1.1s0.4,1.1,0.9,1.1h10.1c0.5,0,0.9-0.5,0.9-1.1
		C253.8,61.4,253.4,60.9,252.9,60.9z"/>
	<path style="fill:#917D19;" d="M252.9,69.9h-10.1c-0.5,0-0.9,0.5-0.9,1.1s0.4,1.1,0.9,1.1h10.1c0.5,0,0.9-0.5,0.9-1.1
		S253.4,69.9,252.9,69.9z"/>
	<path style="fill:#917D19;" d="M252.9,78.6h-10.1c-0.5,0-0.9,0.5-0.9,1.1s0.4,1.1,0.9,1.1h10.1c0.5,0,0.9-0.5,0.9-1.1
		C253.8,79.1,253.4,78.6,252.9,78.6z"/>
	<path style="fill:#917D19;" d="M252.9,87.8h-10.1c-0.5,0-0.9,0.5-0.9,1.1s0.4,1.1,0.9,1.1h10.1c0.5,0,0.9-0.5,0.9-1.1
		C253.8,88.3,253.4,87.8,252.9,87.8z"/>
	<path style="fill:#917D19;" d="M252.9,96.5h-10.1c-0.5,0-0.9,0.5-0.9,1.1s0.4,1.1,0.9,1.1h10.1c0.5,0,0.9-0.5,0.9-1.1
		C253.8,97,253.4,96.5,252.9,96.5z"/>
	<path style="fill:#917D19;" d="M252.9,105.1h-10.1c-0.5,0-0.9,0.5-0.9,1.1s0.4,1.1,0.9,1.1h10.1c0.5,0,0.9-0.5,0.9-1.1
		C253.8,105.6,253.4,105.1,252.9,105.1z"/>
</g>
<g>
</g>
<g>
</g>
<g>
</g>
<g>
</g>
<g>
</g>
<g>
</g>
<g>
</g>
<g>
</g>
<g>
</g>
<g>
</g>
<g>
</g>
<g>
</g>
<g>
</g>
<g>
</g>
<g>
</g>
</svg>
