<?xml version="1.0" encoding="UTF-8" standalone="no"?>
<svg
   xmlns:dc="http://purl.org/dc/elements/1.1/"
   xmlns:cc="http://creativecommons.org/ns#"
   xmlns:rdf="http://www.w3.org/1999/02/22-rdf-syntax-ns#"
   xmlns:svg="http://www.w3.org/2000/svg"
   xmlns="http://www.w3.org/2000/svg"
   xmlns:sodipodi="http://sodipodi.sourceforge.net/DTD/sodipodi-0.dtd"
   xmlns:inkscape="http://www.inkscape.org/namespaces/inkscape"
   width="512px"
   height="512px"
   viewBox="0 0 512 512"
   version="1.1"
   id="svg5367"
   sodipodi:docname="shouting-svgrepo-128.svg"
   inkscape:version="1.0.1 (3bc2e813f5, 2020-09-07)">
  <metadata
     id="metadata5373">
    <rdf:RDF>
      <cc:Work
         rdf:about="">
        <dc:format>image/svg+xml</dc:format>
        <dc:type
           rdf:resource="http://purl.org/dc/dcmitype/StillImage" />
        <dc:title></dc:title>
      </cc:Work>
    </rdf:RDF>
  </metadata>
  <defs
     id="defs5371" />
  <sodipodi:namedview
     pagecolor="#ffffff"
     bordercolor="#666666"
     borderopacity="1"
     objecttolerance="10"
     gridtolerance="10"
     guidetolerance="10"
     inkscape:pageopacity="0"
     inkscape:pageshadow="2"
     inkscape:window-width="1920"
     inkscape:window-height="1017"
     id="namedview5369"
     showgrid="false"
     inkscape:zoom="1.640625"
     inkscape:cx="222.78095"
     inkscape:cy="256"
     inkscape:window-x="-8"
     inkscape:window-y="-8"
     inkscape:window-maximized="1"
     inkscape:current-layer="svg5367" />
  <path
     fill="#000000"
     d="m 86.705433,34.091837 c -8.931673,0 -17.176043,5.474313 -23.340729,14.819755 -6.16496,9.345163 -10.072806,22.472466 -10.072806,37.014098 0,14.54163 3.907846,27.66921 10.072806,37.01466 6.16496,9.34516 14.409056,14.81975 23.340729,14.81975 8.931674,0 17.175767,-5.47487 23.340727,-14.82003 6.16496,-9.34517 10.08128,-22.47303 10.08128,-37.014659 0,-14.541631 -3.91659,-27.669214 -10.08128,-37.014377 C 103.8812,39.565313 95.636833,34.091 86.705433,34.091 Z M 34.102879,60.140014 C 23.751488,75.535264 19.823684,95.163453 24.927341,114.59804 31.438414,139.39481 50.90547,157.03401 73.932621,162.091 56.381212,153.06357 41.13312,133.51098 34.50449,108.269 30.038106,91.259407 30.237408,74.423329 34.103153,60.140014 Z m 105.204291,0 c 3.86574,14.283315 4.05602,31.119393 -0.41009,48.128986 -6.62863,25.24198 -21.86797,44.79485 -39.420201,53.822 23.027701,-5.05699 42.485731,-22.69619 48.997081,-47.49296 5.10365,-19.434587 1.18433,-39.062776 -9.16679,-54.458584 z M 48.891948,71.384895 c -7.542302,11.217543 -10.399781,25.522059 -6.681121,39.682075 4.744695,18.06741 18.925469,30.91519 35.703182,34.60025 C 65.125887,139.0899 54.020757,124.8476 49.191037,106.45576 45.936321,94.062119 46.075204,81.792896 48.891948,71.384895 Z m 75.618222,0 c 2.81674,10.408001 2.95535,22.677224 -0.29909,35.070865 -4.82972,18.39184 -15.93458,32.63414 -28.723244,39.21146 16.777984,-3.68506 30.958764,-16.53284 35.703184,-34.59997 3.71893,-14.160017 0.86173,-28.464533 -6.68058,-39.682076 z m -54.080231,0.584422 c 5.485584,-0.05579 10.623962,2.396267 14.216316,7.061316 l -4.023764,3.21641 C 76.242772,76.560721 70.010285,75.283084 62.954618,79.370407 l -2.520115,-4.533102 c 3.286156,-1.903623 6.704359,-2.834234 9.995163,-2.867709 z m 32.029631,0.147849 c 0.17087,-0.0028 0.34174,-0.0014 0.51261,0 3.29162,0.03403 6.70983,0.97357 9.99598,2.877194 l -2.52066,4.533101 c -7.05512,-4.087602 -13.287607,-2.818333 -17.667599,2.86771 l -4.015016,-3.21641 c 3.480264,-4.519153 8.40403,-6.964238 13.695235,-7.061595 z M 86.705433,90.721014 c 11.535993,0 20.880217,9.543226 20.880217,21.313946 0,11.77016 -9.344497,21.30558 -20.880217,21.30558 -11.535719,0 -20.888688,-9.53486 -20.888688,-21.30558 0,-11.77072 9.352695,-21.314225 20.888688,-21.314225 z"
     id="path5365"
     style="stroke-width:0.276161" />
</svg>
