<?xml version="1.0" encoding="iso-8859-1"?>
<!-- Generator: Adobe Illustrator 19.0.0, SVG Export Plug-In . SVG Version: 6.00 Build 0)  -->
<svg version="1.1" id="Capa_1" xmlns="http://www.w3.org/2000/svg" xmlns:xlink="http://www.w3.org/1999/xlink" x="0px" y="0px"
	 viewBox="0 0 465 465" style="enable-background:new 0 0 465 465;" xml:space="preserve">
<g>
	<path style="fill:#FF9926;" d="M316.693,238.184h19.927c3.258-29.4,25.408-53.167,53.974-58.744l-72.48-113.731
		c-3.22,26.409-9.109,71.171-14.765,95.696c-7.791,33.782-36.925,57.376-70.849,57.376c-33.923,0-63.057-23.594-70.849-57.376
		c-5.656-24.524-11.545-69.287-14.765-95.696L74.406,179.44c28.566,5.577,50.716,29.343,53.974,58.744h152.307
		c4.141,0,7.498,3.356,7.5,7.496h21.007C309.195,241.54,312.552,238.184,316.693,238.184z"/>
	<path style="fill:#FECC33;" d="M286.781,369.166h92.26v-63.028H274.926v39.883c0,4.141-3.356,7.498-7.496,7.5v23.908
		C272.32,372.341,279.184,369.166,286.781,369.166z"/>
	<path style="fill:#FF9926;" d="M160.074,298.638c0-4.142,3.358-7.5,7.5-7.5h211.468v-5.606c0-17.837-14.511-32.348-32.348-32.348
		h-30c-4.142,0-7.5-3.358-7.5-7.5c0-0.001,0-0.002,0-0.004h-21.007c0,0.001,0,0.002,0,0.004c0,4.142-3.358,7.5-7.5,7.5h-162.38
		c-17.837,0-32.348,14.511-32.348,32.348v5.606h51.615c4.142,0,7.5,3.358,7.5,7.5c0,0,0,0.001,0,0.002h15
		C160.074,298.639,160.074,298.638,160.074,298.638z"/>
	<path style="fill:#FF9926;" d="M267.43,377.429V353.52c-0.001,0-0.002,0-0.004,0c-4.142,0-7.5-3.358-7.5-7.5v-39.883h-54.853
		v39.883c0,4.142-3.358,7.5-7.5,7.5c-0.001,0-0.002,0-0.004,0v23.908c4.641,4.829,7.504,11.381,7.504,18.592V427.5h54.853v-31.479
		C259.926,388.809,262.789,382.258,267.43,377.429z"/>
	<path style="fill:#FECC33;" d="M190.074,346.021v-39.883h-22.5c-4.141,0-7.499-3.357-7.5-7.498h-15
		c-0.001,4.141-3.359,7.498-7.5,7.498H85.958v63.028h92.26c7.597,0,14.462,3.176,19.351,8.263V353.52
		C193.43,353.518,190.074,350.161,190.074,346.021z"/>
	<path style="fill:#FECC33;" d="M187.869,450h2.205v-53.979c0-6.537-5.318-11.855-11.855-11.855H58.108
		c-6.537,0-11.855,5.318-11.855,11.855V450h2.205c4.142,0,7.5,3.358,7.5,7.5h15v-40.417c0-4.142,3.358-7.5,7.5-7.5
		s7.5,3.358,7.5,7.5V457.5h24.705v-40.417c0-4.142,3.358-7.5,7.5-7.5s7.5,3.358,7.5,7.5V457.5h24.705v-40.417
		c0-4.142,3.358-7.5,7.5-7.5s7.5,3.358,7.5,7.5V457.5h15C180.369,453.358,183.727,450,187.869,450z"/>
	<path style="fill:#FECC33;" d="M416.542,450h2.205v-53.979c0-6.537-5.318-11.855-11.855-11.855h-120.11
		c-6.537,0-11.855,5.318-11.855,11.855V450h2.205c4.142,0,7.5,3.358,7.5,7.5h15v-40.417c0-4.142,3.358-7.5,7.5-7.5
		s7.5,3.358,7.5,7.5V457.5h24.705v-40.417c0-4.142,3.358-7.5,7.5-7.5s7.5,3.358,7.5,7.5V457.5h24.705v-40.417
		c0-4.142,3.358-7.5,7.5-7.5s7.5,3.358,7.5,7.5V457.5h15C409.042,453.358,412.399,450,416.542,450z"/>
	<path style="fill:#FECC33;" d="M257.027,44.077c-0.8,3.469-3.887,5.816-7.301,5.816c-0.559,0-1.125-0.063-1.692-0.193
		c-3.471-0.801-5.812-3.891-5.809-7.308h-19.449c0.003,3.417-2.339,6.507-5.809,7.308c-4.035,0.93-8.063-1.586-8.994-5.623
		c-0.292-1.265-0.585-2.719-0.875-4.292c-21.78,2.24-38.794,6.792-47.073,9.334c2.238,19.289,9.544,79.872,16.243,108.913
		c6.311,27.363,28.909,45.748,56.232,45.748c27.324,0,49.922-18.384,56.232-45.748c6.699-29.043,14.003-89.61,16.242-108.907
		c-8.298-2.542-25.357-7.103-47.072-9.34C257.612,41.359,257.319,42.812,257.027,44.077z"/>
	<path style="fill:#FECC33;" d="M242.411,40.706c0.616-2.673,1.256-6.399,1.852-10.33c0.001-0.003,0.001-0.007,0.001-0.01
		c0.733-4.832,1.401-9.973,1.88-13.858C242.701,15.752,237.912,15,232.5,15c-5.41,0-10.198,0.752-13.645,1.508
		c0.869,7.051,2.36,18.243,3.733,24.198c0.13,0.565,0.186,1.129,0.187,1.686h19.449C242.225,41.835,242.281,41.271,242.411,40.706z"
		/>
	<path d="M78.458,409.583c-4.142,0-7.5,3.358-7.5,7.5V457.5c0,4.142,3.358,7.5,7.5,7.5s7.5-3.358,7.5-7.5v-40.417
		C85.958,412.941,82.601,409.583,78.458,409.583z"/>
	<path d="M118.164,409.583c-4.142,0-7.5,3.358-7.5,7.5V457.5c0,4.142,3.358,7.5,7.5,7.5s7.5-3.358,7.5-7.5v-40.417
		C125.664,412.941,122.306,409.583,118.164,409.583z"/>
	<path d="M157.869,409.583c-4.142,0-7.5,3.358-7.5,7.5V457.5c0,4.142,3.358,7.5,7.5,7.5s7.5-3.358,7.5-7.5v-40.417
		C165.369,412.941,162.011,409.583,157.869,409.583z"/>
	<path d="M406.892,369.166h-12.85v-83.634c0-24.417-18.579-44.573-42.343-47.081c3.523-25.528,25.392-45.252,51.777-45.252
		c2.738,0,5.259-1.492,6.576-3.893s1.221-5.329-0.251-7.638L319.443,39.884c-0.182-0.285-0.385-0.548-0.597-0.8
		c-0.046-0.055-0.093-0.107-0.141-0.161c-0.247-0.277-0.507-0.538-0.786-0.771c-0.012-0.01-0.026-0.019-0.038-0.029
		c-0.29-0.239-0.598-0.45-0.917-0.641c-0.038-0.022-0.073-0.047-0.111-0.069c-0.327-0.188-0.668-0.346-1.017-0.481
		c-0.031-0.012-0.059-0.031-0.09-0.043c-0.996-0.373-23.104-8.526-55.56-11.944c0.921-6.87,1.565-12.649,1.616-13.11
		c0.378-3.414-1.611-6.647-4.827-7.851C256.54,3.822,246.164,0,232.5,0s-24.04,3.822-24.475,3.984
		c-3.216,1.203-5.205,4.437-4.827,7.851c0.051,0.461,0.695,6.24,1.616,13.11c-32.456,3.418-54.564,11.572-55.56,11.944
		c-0.03,0.011-0.056,0.029-0.086,0.041c-0.352,0.136-0.694,0.296-1.023,0.485c-0.036,0.021-0.069,0.043-0.104,0.064
		c-0.322,0.192-0.632,0.405-0.925,0.646c-0.011,0.009-0.023,0.017-0.033,0.026c-0.28,0.234-0.541,0.495-0.789,0.773
		c-0.047,0.053-0.093,0.104-0.139,0.158c-0.212,0.252-0.416,0.515-0.598,0.801L55.199,181.668c-1.472,2.309-1.568,5.237-0.251,7.638
		s3.837,3.893,6.576,3.893c26.385,0,48.254,19.723,51.777,45.252c-23.763,2.509-42.343,22.664-42.343,47.081v83.634h-12.85
		c-14.808,0-26.855,12.047-26.855,26.855V457.5c0,4.142,3.358,7.5,7.5,7.5h9.705c4.142,0,7.5-3.358,7.5-7.5s-3.358-7.5-7.5-7.5
		h-2.205v-53.979c0-6.537,5.318-11.855,11.855-11.855h120.11c6.537,0,11.855,5.318,11.855,11.855V450h-2.205
		c-4.142,0-7.5,3.358-7.5,7.5s3.358,7.5,7.5,7.5h9.705c4.142,0,7.5-3.358,7.5-7.5v-30v-31.479c0-7.211-2.862-13.762-7.504-18.592
		c-4.89-5.087-11.754-8.263-19.351-8.263h-92.26v-63.028h51.615c4.141,0,7.499-3.357,7.5-7.498c0-0.001,0-0.002,0-0.002
		c0-4.143-3.358-7.501-7.5-7.501H85.958v-5.606c0-17.837,14.511-32.348,32.348-32.348h162.38c4.142,0,7.5-3.358,7.5-7.5
		c0-0.001,0-0.002,0-0.004c-0.002-4.14-3.359-7.496-7.5-7.496H128.38c-3.258-29.4-25.408-53.167-53.974-58.744l72.48-113.731
		c3.22,26.409,9.109,71.171,14.765,95.696c7.792,33.782,36.926,57.376,70.849,57.376c33.923,0,63.058-23.594,70.849-57.376
		c5.656-24.524,11.545-69.287,14.765-95.696l72.48,113.731c-28.566,5.577-50.716,29.343-53.974,58.744h-19.927
		c-4.141,0-7.498,3.356-7.5,7.496c0,0.001,0,0.002,0,0.004c0,4.142,3.358,7.5,7.5,7.5h30c17.837,0,32.348,14.511,32.348,32.348
		v5.606H167.574c-4.142,0-7.5,3.358-7.5,7.5c0,0,0,0.001,0,0.002c0.001,4.141,3.359,7.498,7.5,7.498h22.5v39.883
		c0,4.141,3.356,7.498,7.496,7.5c0.001,0,0.002,0,0.004,0c4.142,0,7.5-3.358,7.5-7.5v-39.883h54.853v39.883
		c0,4.142,3.358,7.5,7.5,7.5c0.001,0,0.002,0,0.004,0c4.14-0.002,7.496-3.359,7.496-7.5v-39.883h104.115v63.028h-92.26
		c-7.597,0-14.462,3.176-19.351,8.263c-4.641,4.829-7.504,11.381-7.504,18.592V427.5v30c0,4.142,3.358,7.5,7.5,7.5h9.705
		c4.142,0,7.5-3.358,7.5-7.5s-3.358-7.5-7.5-7.5h-2.205v-53.979c0-6.537,5.318-11.855,11.855-11.855h120.11
		c6.537,0,11.855,5.318,11.855,11.855V450h-2.205c-4.142,0-7.5,3.358-7.5,7.5s3.358,7.5,7.5,7.5h9.705c4.142,0,7.5-3.358,7.5-7.5
		v-61.479C433.747,381.212,421.7,369.166,406.892,369.166z M288.732,158.033c-6.311,27.363-28.909,45.748-56.232,45.748
		c-27.323,0-49.921-18.385-56.232-45.748c-6.698-29.042-14.004-89.624-16.243-108.913c8.278-2.542,25.292-7.095,47.073-9.334
		c0.29,1.573,0.583,3.026,0.875,4.292c0.931,4.036,4.958,6.552,8.994,5.623c3.471-0.801,5.812-3.891,5.809-7.308
		c0-0.556-0.056-1.121-0.187-1.686c-1.374-5.955-2.864-17.146-3.733-24.198C222.302,15.752,227.09,15,232.5,15
		c5.412,0,10.201,0.752,13.645,1.508c-0.479,3.885-1.147,9.026-1.88,13.858c-0.001,0.003-0.001,0.007-0.001,0.01
		c-0.596,3.931-1.236,7.657-1.852,10.33c-0.13,0.565-0.186,1.129-0.187,1.686c-0.003,3.417,2.339,6.507,5.809,7.308
		c0.567,0.131,1.134,0.193,1.692,0.193c3.414,0,6.501-2.347,7.301-5.816c0.292-1.265,0.585-2.719,0.875-4.291
		c21.715,2.237,38.774,6.798,47.072,9.34C302.735,68.423,295.431,128.99,288.732,158.033z"/>
	<path d="M307.131,409.583c-4.142,0-7.5,3.358-7.5,7.5V457.5c0,4.142,3.358,7.5,7.5,7.5s7.5-3.358,7.5-7.5v-40.417
		C314.631,412.941,311.273,409.583,307.131,409.583z"/>
	<path d="M346.836,409.583c-4.142,0-7.5,3.358-7.5,7.5V457.5c0,4.142,3.358,7.5,7.5,7.5s7.5-3.358,7.5-7.5v-40.417
		C354.336,412.941,350.979,409.583,346.836,409.583z"/>
	<path d="M386.542,409.583c-4.142,0-7.5,3.358-7.5,7.5V457.5c0,4.142,3.358,7.5,7.5,7.5s7.5-3.358,7.5-7.5v-40.417
		C394.042,412.941,390.684,409.583,386.542,409.583z"/>
</g>
<g>
</g>
<g>
</g>
<g>
</g>
<g>
</g>
<g>
</g>
<g>
</g>
<g>
</g>
<g>
</g>
<g>
</g>
<g>
</g>
<g>
</g>
<g>
</g>
<g>
</g>
<g>
</g>
<g>
</g>
</svg>
