<?xml version="1.0" encoding="UTF-8" standalone="no"?>
<svg xmlns:dc="http://purl.org/dc/elements/1.1/" xmlns:cc="http://creativecommons.org/ns#" xmlns:rdf="http://www.w3.org/1999/02/22-rdf-syntax-ns#" xmlns:svg="http://www.w3.org/2000/svg" xmlns="http://www.w3.org/2000/svg" version="1.1" x="0px" y="0px" width="509.99991" height="464.54895" viewBox="0 0 509.9999 464.54895" xml:space="preserve" id="svg3857"><metadata id="metadata4852"><rdf:RDF><cc:Work rdf:about=""><dc:format>image/svg+xml</dc:format><dc:type rdf:resource="http://purl.org/dc/dcmitype/StillImage"/><dc:title/></cc:Work></rdf:RDF></metadata><defs id="defs4850"/><path id="path3930" d="m 383.71083,5 -0.83854,0.95833 c -0.0276,0.0169 -0.0251,0.0236 -0.13974,0.0799 -0.35583,0.17497 -1.17287,0.506 -2.68533,0.90842 -3.06362,0.81971 -5.67372,1.12881 -8.1558,1.45746 -1.49069,0.19554 -2.54301,0.55253 -3.36415,1.21788 -0.4116,0.33351 -0.73864,0.76451 -0.93837,1.19792 -0.19969,0.43341 -0.25954,1.13802 -0.25954,1.13802 v 0.90842 l 6.5486,7.67664 c 0.42371,1.13423 0.84286,2.12909 0.99826,2.7552 0.14276,0.57506 0.0572,0.92062 -0.0998,1.38759 -0.26281,0.19735 -0.61601,0.49325 -0.6888,0.52908 -4.99733,0.4224 -5.52453,0.0131 -7.69663,-1.06814 -1.26206,-0.64464 -2.69327,-2.66132 -3.35416,-4.11284 -1.13219,-2.48666 -3.1645,-4.06293 -3.1645,-4.06293 l -0.16969,-0.13976 -0.18967,-0.10981 c -3.97826,-2.27039 -9.57767,-2.00437 -15.27343,-1.00825 -5.76745,0.99277 -12.97009,3.40399 -14.67446,4.06293 h -0.0102 c -0.91358,0.35585 -7.77958,2.63882 -10.93098,3.45399 -3.45391,0.88844 -6.06771,1.775 -7.9861,2.27604 -2.41607,0.63671 -16.72822,4.91182 -22.19138,6.53862 -5.28663,1.56815 -8.48918,2.13118 -8.57508,2.14627 -3.88135,0.38754 -6.34552,0.23225 -7.71657,0.01 -0.69142,-0.11209 -1.11649,-0.24529 -1.32769,-0.31945 -0.21124,-0.0742 -0.0599,0 -0.0599,0 l -0.0799,-0.0499 c -0.0215,-0.11421 -0.0301,-0.21962 -0.0301,-0.21962 l 0.0102,-0.10981 0.0399,-5.75998 v -0.0799 c 0,0 -0.008,-3.31029 -2.99479,-4.93142 -2.17049,-1.18825 -4.7372,-1.51761 -8.78472,-1.70703 h -0.0102 c -4.17596,-0.18537 -8.39231,0.18022 -10.78124,0.69879 -2.17363,0.47831 -6.52956,1.67225 -9.85285,5.39062 -1.6403,1.83243 -2.42478,3.60678 -2.7552,4.98133 -0.33044,1.37455 -0.16969,2.5855 -0.16969,2.5855 l -0.0302,-0.2895 c 0,0 0.18191,3.32146 0.43925,5.87977 v 0.01 c 0.10366,1.00735 0.70012,1.47024 1.12804,2.16623 -0.32517,0.16181 -0.12941,0.093 -0.57899,0.29948 -2.17488,0.99897 -5.75472,2.42781 -11.24044,4.03298 -10.53712,3.09298 -17.41969,3.6736 -17.41969,3.6736 l -2.40581,0.20966 0.18967,2.39583 c 0.1355,1.75538 0.78197,5.56807 1.40755,9.2539 0.62557,3.68582 1.21788,7.02777 1.21788,7.02777 0.006,0.0358 0.26828,1.64437 0.58898,3.49392 0.32419,1.86992 0.66346,3.81496 0.94835,4.91145 0.4465,1.73829 1.46411,4.91426 1.51736,5.08116 0,0 0.71579,2.88 3.54383,4.21267 2.61056,1.22639 6.37737,1.45451 10.37195,-0.10979 h 0.0102 c 3.77767,-1.48701 5.34887,-3.58144 6.75824,-5.22091 1.41017,-1.63023 1.84875,-2.11659 1.92665,-2.20617 0.0164,-0.0148 2.18483,-1.98622 4.70182,-1.13801 2.62312,0.89908 4.899,4.71418 4.92143,4.75172 l 0.14976,0.30948 0.0899,0.14976 c 0,0 1.21702,2.6002 1.41754,4.4223 -0.26537,0.39897 -0.85818,1.13756 -2.27604,2.22613 -2.72484,2.07688 -4.28968,1.82892 -6.44878,1.64713 -2.15266,-0.19008 -3.05732,-0.49189 -4.57204,-0.1797 l 0.35936,-0.0399 -3.60373,0.18967 -0.10978,0.0102 c -4.2308,0.60287 -6.80354,2.30377 -6.86805,2.34593 -1.75144,1.06359 -2.79291,2.82272 -3.3941,4.73176 -0.60823,1.93144 -0.85902,4.11629 -0.89843,6.49869 -0.0789,4.76481 0.67616,10.34041 1.68706,15.74261 1.76836,9.44994 3.86678,16.18714 4.49218,18.2682 -17.64772,2.36908 -37.63729,6.28465 -48.89491,9.20399 h -0.0102 c -6.05422,1.57379 -9.4327,3.25518 -11.43011,4.74175 -0.99871,0.74328 -1.64638,1.44262 -2.06641,2.05642 -0.21671,0.31674 -0.22555,0.4578 -0.33942,0.7487 -1.53188,2.49729 -1.52336,5.10712 -0.73872,6.73827 0.79678,1.65637 2.15625,2.51562 2.15625,2.51562 l 0.26024,0.15942 0.27953,0.0898 c 0,0 2.69846,0.84441 3.34418,3.96311 v 0.0102 c 0.52711,2.53236 -2.875,5.46049 -2.875,5.46049 l -0.0599,0.0399 -0.0599,0.0501 c 0,0 -5.15878,4.29588 -12.91752,5.62022 -4.19491,0.71885 -6.937,1.08382 -8.95442,0.87847 -2.01743,-0.20536 -3.48548,-0.84022 -5.77995,-2.65538 -1.49854,-1.19304 -1.55704,-2.15874 -1.17794,-3.57378 0.38001,-1.41843 1.62481,-3.0405 2.60546,-3.74348 3.33527,-2.39791 4.97288,-4.7771 5.64019,-6.47873 v -0.0102 l 0.0102,-0.0102 c 0.65378,-1.71511 0.22959,-3.31424 0.22959,-3.31424 l -0.17992,-0.68868 -3.48393,-3.18446 -0.15973,-0.11979 c -3.20494,-2.13023 -7.68359,-2.79637 -12.81769,-3.08463 -5.13409,-0.28827 -10.89564,-0.0435 -16.35155,0.39933 -9.53367,0.77425 -15.96588,1.92561 -17.97871,2.26606 -0.345256,-2.08 -1.327222,-7.45313 -1.128037,-12.27864 0.117965,-2.87478 0.452844,-4.8469 0.738713,-6.05945 0.285865,-1.21256 0.449216,-1.50738 0.449216,-1.50738 l 0.0599,-0.11981 0.32941,-0.95833 0.01022,-0.0301 c 0,0 2.262799,-6.93343 5.280815,-11.29035 l -0.479167,-0.29946 0.499151,0.28949 c 0,0 1.732205,-2.55966 4.132809,-2.79514 3.30626,-0.31929 3.46759,0.65497 6.14929,0.96832 3.39574,0.40745 5.56791,0.21528 7.0677,-0.21963 0.75091,-0.21773 1.32421,-0.50738 1.76693,-0.81857 0.40076,-0.28173 0.74361,-0.71432 0.81857,-0.80859 4.8315,-3.86484 6.97604,-8.84448 6.98785,-8.87456 1.64398,-4.04482 1.70756,-8.05239 1.19791,-11.25042 -0.25484,-1.59902 -0.64255,-2.99299 -1.08811,-4.14279 -0.44553,-1.1498 -0.84727,-1.99991 -1.57725,-2.80512 v -0.0102 h -0.0102 c -1.91658,-2.08921 -5.14184,-4.39278 -5.28081,-4.49219 h -0.0102 c -0.006,-0.005 -0.98678,-0.81056 -2.38585,-1.16796 -1.20575,-0.30805 -2.96893,-0.0429 -4.74174,0.6289 0.29726,-2.13676 0.45172,-4.2735 1.49739,-6.80815 1.55126,-3.76021 5.00645,-10.49574 5.08116,-10.64149 l 0.0399,-0.0899 0.0102,-0.0199 c 0.0792,-0.13412 5.05298,-8.55038 7.2374,-14.28514 2.18766,-5.73479 2.17621,-10.29209 2.17621,-10.29209 V 45.5096 l -0.52902,-0.65885 c 0,0 -0.9601,-1.22853 -1.99653,-2.55555 -0.73999,-0.94747 -1.22731,-1.59657 -1.68706,-2.19618 3.90065,0.80705 7.0677,-0.86849 7.0677,-0.86849 l 0.0998,-0.0599 0.10979,-0.0898 c 5.66858,-4.28365 8.77476,-11.53992 8.77476,-11.53992 l -0.0302,0.0799 5.39083,-10.92099 -5.26085,-8.52517 -1.03819,-0.19965 c 0,0 -0.30508,-0.0555 -0.43925,-0.0599 -0.13417,-0.004 -0.25428,-4.8e-4 -0.38931,0.01 -0.27007,0.0209 -0.5762,0.0726 -0.98828,0.15972 -0.82417,0.17433 -2.08802,0.50633 -4.20269,1.22787 -3.07869,1.04559 -4.0673,1.65959 -5.18098,2.22612 l -1.50738,-2.24609 -0.45918,-0.46918 -0.0102,-0.01 c -0.0123,-0.0114 -0.26884,-0.24314 -0.42923,-0.34939 -0.16432,-0.10883 -0.33605,-0.20986 -0.52908,-0.2895 -0.38599,-0.15928 -0.82403,-0.25147 -1.32768,-0.29948 -1.00733,-0.096 -2.3146,-3.7e-4 -4.33247,0.4592 -4.4235,1.00487 -9.47508,3.79333 -12.18858,7.40711 -1.12725,1.50212 -1.80489,2.68376 -2.20616,3.55382 -0.12267,0.26596 -0.0888,0.27078 -0.16969,0.49913 -8.061607,6.91624 -14.595696,9.83012 -14.714391,9.8828 -2.340677,0.42937 -3.923172,1.58724 -3.923172,1.58724 l -0.03987,0.0299 -0.03987,0.02 C 77.051031,37.41706 68.699285,47.3265 68.69928,47.3265 l 0.469199,-0.41927 c 0,0 -0.433932,0.3442 -0.64887,0.60894 -0.214922,0.26476 -0.427033,0.59823 -0.64887,1.02821 -0.457444,0.88674 -0.564286,1.48821 -0.768664,2.31597 -0.102222,0.4139 -0.194222,0.82543 -0.259542,1.21788 -0.06404,0.38502 -0.215791,0.53673 -0.05009,1.46745 0.02402,0.13718 0.08817,0.0368 0.119804,0.15972 -3.973521,5.18693 -6.020826,7.41624 -6.319003,7.68663 -0.03373,0.004 -0.299459,-0.12977 -0.299459,-0.12977 l -0.189674,0.0199 -0.189673,0.0501 c -1.164703,0.33825 -1.895627,0.85098 -2.725257,1.33767 -0.829629,0.48668 -1.517359,0.92838 -1.517359,0.92838 l -0.399331,0.25954 -0.279526,0.38932 c -2.253696,3.18348 -7.028139,11.20606 -7.566834,12.10893 -0.254073,0.12737 -0.48581,0.24415 -0.678816,0.36938 l -0.319444,-0.11981 -4.89149,2.73524 -0.329426,0.53906 C 26.05103,104.80304 15.145458,132.6006 9.4722044,162.25646 l -0.109807,0.54905 0.3394081,1.29774 -0.9882803,2.22612 -0.039918,0.2895 C 6.2561186,180.57459 5,194.92207 5,209.55415 c 0,9.53956 0.5328967,18.94424 1.577255,28.22089 l 0.00997,0.0199 0.5989572,4.91145 0.00997,0.0102 c 4.4766938,33.82247 15.7268018,65.52292 32.3337518,93.67678 l 1.497395,2.5256 v 0.0199 c 43.809805,72.29739 123.258141,120.61006 213.957541,120.61006 130.77436,0 238.15328,-100.46209 249.09652,-228.4225 l 0.0501,-0.57899 -0.86849,-2.11632 1.15798,-1.94661 0.0399,-0.57899 c 0.34817,-5.40483 0.53906,-10.86877 0.53906,-16.37151 0,-22.39275 -2.94376,-44.12252 -8.47525,-64.77728 l -0.12977,-0.47916 -1.48741,-1.88672 0.45918,-1.8368 -0.17971,-0.61893 C 486.80021,110.96819 472.78469,83.46297 455.25637,59.87451 l -0.38931,-0.52908 -4.85156,-2.04645 -2.05642,1.46745 -1.40755,0.94835 c -0.35538,-0.4443 -0.56133,-0.64429 -0.89844,-1.07812 -1.74868,-2.25045 -3.22439,-4.24262 -3.22439,-4.24262 l -0.0699,-0.0998 -0.0799,-0.0898 c -5.03878,-5.54395 -8.25086,-10.11483 -9.00433,-11.17056 l 0.17969,-0.2895 -1.48741,-4.56206 -0.0998,-0.1697 c -1.42296,-2.75911 -4.02688,-5.40447 -6.33897,-7.60676 -2.31209,-2.20229 -4.34244,-3.84332 -4.34244,-3.84332 l -0.0699,-0.0599 -0.0699,-0.0599 c 0,0 -2.7669,-2.00504 -5.26084,-2.98481 -2.41239,-0.94771 -4.79168,-1.00824 -4.79168,-1.00824 l -1.19792,-0.0499 -0.24957,0.29948 C 403.38124,18.31704 388.83188,6.74705 388.83188,6.74705 l -0.35936,-0.2895 z m 1.10807,5.41058 1.35764,0.40929 c 0.55744,0.44991 16.67369,13.47996 22.40102,17.24998 l 1.81684,1.17795 1.4375,-1.727 c 0.64184,0.0747 1.24323,0.0788 2.18619,0.44923 1.29241,0.50773 4.10376,2.36701 4.19271,2.42577 0.0772,0.0629 1.85751,1.50877 3.97308,3.52387 2.13831,2.03676 4.49011,4.67981 5.32074,6.24913 l 0.62891,1.92664 -0.7487,1.17795 0.92839,1.31771 c 0,0 4.4907,6.36081 10.20224,12.68792 0,0 1.51202,2.04595 3.30425,4.35243 1.55621,2.00274 3.17254,3.99542 4.56206,5.42056 -1.35804,0.55694 -3.2818,1.2622 -5.89973,1.96658 -5.40423,1.45667 -10.62152,3.88325 -10.62152,3.88325 0,0 -4.31166,1.40601 -2.67534,4.92143 1.64117,3.52513 4.07291,5.22092 4.07291,5.22092 0,0 3.44754,3.3503 3.57378,5.88974 0.11168,2.55406 -0.96502,3.72083 -3.70355,5.2309 -2.72397,1.51979 -5.22092,1.81684 -5.22092,1.81684 0,0 -6.50385,1.1677 -9.72308,-1.87673 -3.21923,-3.03958 -3.81336,-8.07595 -3.81336,-8.07595 0,0 -0.24917,-4.25859 -5.59027,-6.07942 -5.34111,-1.82083 -11.8993,2.0664 -11.8993,2.0664 0,0 -5.16092,2.73049 -10.69139,6.30903 -5.53533,3.58339 -15.9758,7.97056 -22.53079,10.27212 l -1.23785,0.95833 1.22788,-0.94835 c -2.71425,-2.50546 -16.82769,-19.22616 -19.57593,-23.13973 -2.74825,-3.92328 -3.15811,-4.81834 -3.64367,-6.12933 -0.48555,-1.311 0.82661,-4.26118 2.00651,-5.64019 1.16048,-1.37412 2.52962,-1.64972 5.35069,-1.02821 2.82108,0.61666 4.67213,1.85623 9.14409,0.4093 4.47682,-1.43724 4.69136,-4.80793 5.03125,-8.24565 0.3496,-3.43776 -3.7859,-10.72466 -7.08767,-14.23523 -3.30178,-3.50571 -7.97181,-4.06208 -11.2105,-3.85329 -3.22894,0.20878 -5.07339,2.54953 -6.93792,3.58376 -1.85482,1.02938 -5.36985,2.06223 -6.94791,1.3776 -1.57807,-0.69435 -3.98815,-1.38061 -6.66841,-6.12934 -1.84845,-3.25741 -3.24754,-5.94997 -4.21267,-7.80642 1.0209,-0.30014 1.73916,-0.5284 2.94487,-0.83854 3.5687,-0.92311 9.80074,-2.97957 11.48003,-3.63368 v 0.01 c 0.90689,-0.35062 8.65799,-2.94049 13.73609,-3.81336 h 0.0102 c 5.05927,-0.88481 10.07561,-0.52195 11.86934,0.42925 0.24656,0.2416 1.28361,1.23019 1.68707,2.11631 0.92035,2.0214 2.52325,4.90309 5.58029,6.44878 h 0.0102 l 0.0102,0.01 c 2.19757,1.09396 4.72957,2.00441 10.28211,1.54731 0.18196,-7.7e-4 0.31208,0.005 0.49915,-0.0299 0.31413,-0.0583 0.65351,-0.15359 1.01823,-0.31945 0.72944,-0.33171 1.56099,-0.89356 2.5855,-1.85677 l 0.34939,-0.32942 0.19964,-0.41927 c 0.79615,-1.72206 0.78047,-3.54352 0.42852,-4.96133 -0.35193,-1.41782 -0.90281,-2.53058 -1.29774,-3.64366 l -0.14975,-0.41927 -4.32248,-5.08116 c 2.19409,-0.28975 4.54531,-0.56324 7.47699,-1.34765 1.70842,-0.45456 2.77945,-0.86555 3.52387,-1.22787 z m -263.70111,2.32595 3.37413,5.02127 1.9566,-1.08811 c 0,0 1.79,-0.88359 4.23263,-1.86675 -1.39255,3.07635 -3.66769,7.76635 -6.90798,11.78948 0,0 -1.81628,2.68683 -3.22438,2.02647 -1.40326,-0.65064 -3.04789,-0.70574 -4.41233,-0.41926 -1.3644,0.29133 -5.61793,1.70174 -9.46353,6.86804 -3.83589,5.16631 -4.27976,9.04663 -2.21614,10.20225 1.98003,1.10882 4.80277,-0.25527 6.63844,-1.78689 l 4.28255,-0.73871 c -0.0123,0.0716 -0.007,0.19853 -0.0199,0.24956 -0.12625,0.45642 -0.75375,6.63012 -7.89626,19.00692 -1.7917,3.10756 -4.10332,7.71373 -5.19097,9.93272 l 0.0102,0.0599 c -0.002,-0.003 -0.0501,-0.0699 -0.0501,-0.0699 -11.595053,2.14616 -20.232341,4.838 -23.179661,5.95963 -2.95703,1.11678 -3.014755,0.39933 -3.014755,0.39933 -1.024521,-1.20418 2.11632,-4.97135 2.11632,-4.97135 0,0 3.179553,-4.3391 4.432285,-8.32551 0.943193,-2.98616 -1.971052,-3.42167 -3.483934,-3.45399 -0.504313,-0.0107 -0.848526,0.0199 -0.848526,0.0199 -3.680507,0.58752 -6.329256,2.33875 -9.373686,6.00954 -2.359797,2.84536 -3.793483,6.74107 -4.332464,8.80468 -0.344744,1.29643 -0.938364,2.49566 -0.938364,2.49566 0,0 -0.44303,0.80495 -2.186198,1.56727 -2.019909,0.88371 -5.959626,1.92665 -5.959626,1.92665 0,0 -2.623613,0.21809 -4.522133,-0.72873 -0.612786,-0.3013 -1.736549,-0.2252 -2.715275,-0.0799 l 0.19964,-0.14976 c 0,0 0.243544,-0.16846 0.549045,-0.36937 0.291487,-0.19172 0.672581,-0.39008 0.608937,-0.36938 l 1.108073,-0.32942 0.489133,-0.80859 c 0,0 5.436805,-9.04563 7.546869,-12.10893 0.23644,-0.14888 0.422995,-0.26838 0.918399,-0.55902 0.290413,-0.17036 0.350469,-0.18942 0.648871,-0.33943 l 0.788628,1.11805 2.026471,-1.76692 c 0,0 2.72631,-2.43911 8.555117,-10.28211 l 0.01993,-0.0399 1.726996,-2.07639 -1.667099,-1.10807 c 0.02555,-0.11561 0.03936,-0.20695 0.06987,-0.32941 0.158597,-0.64225 0.511197,-1.53275 0.369328,-1.25781 0.06481,-0.12568 0.06067,-0.11643 0.06987,-0.12977 l 0.149755,-0.1797 c 0,0 8.320103,-9.7541 14.953976,-15.37325 0.01329,-0.0105 0.703467,-0.56224 2.066405,-0.71875 l 0.339428,-0.0299 0.319445,-0.13976 c 0,0 7.539984,-3.16468 16.50128,-11.02082 l 0.64887,-0.55903 0.14976,-0.83854 c 0,0 -0.0512,0.0631 0.18967,-0.4592 0.24089,-0.52227 0.73101,-1.41466 1.67708,-2.67535 1.44285,-1.92154 6.37867,-4.89542 9.39366,-5.58029 1.49706,-0.34095 2.13333,-0.34133 2.47569,-0.32942 z m 137.58059,12.13888 c 3.8379,0.1796 5.67362,0.56805 6.67837,1.11805 h 0.0102 c 0.19417,0.10537 0.45902,0.93537 0.4692,0.96832 l -0.0399,5.41058 0.0102,-0.19965 c 0,0 -0.0896,0.84656 0.14976,1.83681 0.23736,0.982 0.9881,2.46051 2.56553,3.15451 0.16458,0.085 0.32169,0.17409 0.67882,0.29948 0.50528,0.17742 1.20771,0.36533 2.15625,0.51909 1.89708,0.30752 4.76864,0.46459 9.04426,0.0299 h 0.0899 l 0.0899,-0.02 c 0,0 3.64606,-0.64146 9.22394,-2.296 5.46184,-1.62642 20.3305,-6.03777 22.04165,-6.48871 0.12195,-0.0318 0.3154,-0.0963 0.43925,-0.12978 0.63189,1.30368 1.4914,3.03434 3.64365,6.70833 4.39431,7.54552 12.02642,10.45714 15.32334,10.1124 2.88419,-0.30104 7.84048,-1.65668 9.77299,-3.78342 1.91795,-2.13158 3.8533,-1.85677 3.8533,-1.85677 4.19034,-0.26705 5.21745,3.23308 8.66492,8.18576 3.43773,4.95266 1.3177,8.80468 1.3177,8.80468 -2.2821,3.02501 -4.83713,2.40735 -7.17751,1.92665 -1.75771,-0.36903 -1.93861,-0.57502 -3.97308,-0.96832 -6.33164,-0.8303 -8.45526,3.85329 -8.45529,3.85329 -4.53993,7.01628 0.81858,12.09895 0.81858,12.09895 0,-3e-5 11.99677,16.06826 21.13322,25.9748 -6.90787,2.37374 -15.87238,5.38064 -15.87238,5.38064 0,0 -12.19345,4.50289 -20.21482,5.60025 -8.01169,1.08764 -9.78344,-0.0703 -10.87108,-1.15798 -1.10221,-1.08765 0.1797,-4.91146 0.1797,-4.91146 0,0 3.27996,-6.68547 1.69705,-10.15233 -1.57806,-3.46686 -11.90904,-4.37239 -12.07898,-4.37239 -0.19422,0 -11.2555,-1.27998 -21.61239,4.53211 -9.19642,5.1566 -10.4019,7.96614 -10.4019,7.96614 0,0 -2.92753,4.55342 0.54904,9.06422 3.91843,5.10319 9.12413,5.57031 9.12413,5.57031 0,0 4.95374,0.38528 6.10936,1.84679 1.16048,1.45181 0.36938,3.03472 0.36938,3.03472 0,0 -1.63419,4.48982 -10.81118,6.36891 0,0 -15.44117,4.533 -44.22305,8.62499 -5.73926,-20.73805 -6.10937,-33.80117 -6.10937,-33.80117 -0.46373,-4.30611 0.19167,-5.94047 2.30599,-7.10763 0.80973,-0.33269 2.02135,-0.72074 3.65364,-0.95834 l 3.49392,-0.16969 0.0599,-0.0102 c 0.59312,0.0368 1.20682,0.0632 1.86675,0.10979 0.54267,0.0332 0.41104,0.0312 1.41753,0.1198 h 0.0102 c 1.35489,0.11367 3.30923,0.10897 5.47047,-0.49915 1.13388,-0.27053 2.15421,-0.62163 2.98481,-1.0881 2.0539,-1.14593 7.68575,-4.2235 7.2973,-10.50173 -0.37873,-6.27337 -5.38028,-13.71281 -9.47351,-16.27168 -0.51791,-0.324 -1.05589,-0.58426 -1.60721,-0.79861 -0.53883,-0.21063 -1.09007,-0.37434 -1.64713,-0.48914 -0.007,-10e-4 -0.0133,0.001 -0.0199,0 -2.24682,-0.45882 -4.57757,-0.16948 -6.53862,0.54905 -0.98938,0.36253 -1.88662,0.82176 -2.62543,1.36762 -2.94246,2.185 -4.10803,5.00145 -5.89973,5.89973 -1.33948,0.66429 -3.09933,1.98129 -5.03125,2.33594 -0.64628,0.11479 -1.31405,0.12144 -1.98654,-0.0399 -2.68998,-0.64093 -2.82232,-6.65855 -3.97309,-13.4466 -0.70671,-4.17186 -1.22651,-7.17657 -1.55729,-9.06423 1.96783,-0.20337 6.37923,-0.64003 15.18358,-3.22439 5.68205,-1.66262 9.48838,-3.17057 11.90928,-4.28255 2.42089,-1.11197 3.59374,-1.93663 3.59374,-1.93663 l 3.75255,-2.68513 -4.34245,-1.56728 c 0,0 -0.64079,-0.0308 -0.75868,-1.17795 -0.23792,-2.36521 -0.42923,-5.67013 -0.42923,-5.67013 l -0.0102,-0.13976 -0.0199,-0.14974 c 0,0 -0.048,0.006 0.0998,-0.60894 0.14786,-0.61501 0.53002,-1.60473 1.6671,-2.87499 2.22799,-2.49286 5.46746,-3.47636 7.26735,-3.87326 1.59263,-0.34572 5.82369,-0.76319 9.52343,-0.59896 z M 55.981125,161.42781 c -13.168245,-0.068 -6.169263,-10.33202 -6.169263,-10.33202 0,0 3.09984,-5.42841 3.643662,-8.5651 0,0 1.084525,-8.47974 -6.898,-7.92621 -7.987373,0.54383 -9.553374,7.50694 -9.553374,7.50694 0,0 -0.540932,3.88861 -0.429251,6.75824 0.101972,2.8842 -0.01063,8.97635 -3.603729,12.43836 -3.57854,3.46201 -7.427075,2.39583 -7.427075,2.39583 0,0 -6.464654,-2.82359 -7.74652,-3.48394 -1.003656,-0.52017 -1.907736,-0.57316 -2.78514,-0.43926 5.492534,-26.63228 15.297439,-51.6786 28.670109,-74.38057 l 1.267794,-1.21788 -1.417533,2.10634 c 0.650643,-0.11168 1.187933,-0.26951 1.187932,-0.26951 0,0 1.962873,-0.32415 5.400603,0.57899 4.452539,1.18475 10.032533,-2.40581 10.032543,-2.40581 0,0 4.237296,-2.54227 6.189227,-6.70833 l 1.746961,-4.88152 c 0,0 1.418234,-4.71882 5.370652,-6.21918 0,0 1.537232,-0.82938 4.032985,-0.85851 2.490897,-0.024 1.906677,1.71701 1.906677,1.71701 0,0 -0.271604,1.13537 -2.845045,4.43229 -2.568587,3.28721 -3.264321,5.80989 -3.264321,5.80989 0,0 -1.542817,3.50087 0.938369,4.64192 0,0 1.168031,0.68727 4.56206,-0.43925 3.398886,-1.13134 14.662199,-4.09738 21.542512,-5.15104 l 0.0501,-0.0102 -0.0102,0.0199 c -1.291575,3.6805 -2.936661,9.43901 -2.286023,12.66795 0.990563,4.90896 5.620223,4.91146 5.620223,4.91146 0,0 0.94807,0.004 2.34591,-0.25954 l 0.48914,0.15972 c 0,0 0.46935,0.1287 0.78863,0.14975 0.31924,0.021 0.68738,-0.002 1.11805,-0.0699 0.86134,-0.13489 1.94852,-0.46905 3.38411,-1.19792 0.25638,-0.12998 0.41181,-0.13289 0.61892,-0.19964 1.65594,1.56174 2.11632,6.09279 2.11632,7.03775 0,1.28187 -0.0327,8.38279 -4.95138,11.85936 0,0 -1.99486,1.51736 -4.79166,1.51736 -2.81136,0 -4.63194,-0.81857 -4.63194,-0.81857 0,0 -4.77411,-1.32444 -7.716574,0.39933 -2.932752,1.73829 -6.441445,5.3365 -9.213964,10.54165 -2.762808,5.20515 -5.067646,14.49168 -4.941402,21.34286 0.09711,5.39452 0.828684,10.49937 1.367651,13.98079 0,0 -11.157115,2.93298 -23.708713,2.86015 z M 455.14652,68.19004 c 15.15433,21.57115 27.34597,46.13455 34.95916,71.91485 -0.19233,0.0148 -0.36621,10e-6 -0.56901,0.0399 -1.85967,0.37874 -2.03696,1.76 -4.91145,2.22613 -2.87934,0.46613 -6.20519,1.48019 -9.45355,6.39886 -3.25322,4.90897 0,11.03081 0,11.03081 0,0 1.74549,2.87148 2.58551,4.35242 0.83515,1.4858 5.18602,10.75574 0.18967,17.51952 0,0 -2.67781,3.11908 -7.40711,4.17273 -4.18063,0.92256 -3.11655,-3.9614 -3.54383,-6.57855 0,0 -0.62474,-11.07348 -6.00955,-17.41968 -4.73416,-5.56448 -13.33674,4.3147 -17.61934,7.60676 -3.98966,3.05291 -15.66359,15.09622 -32.43356,23.89841 l -0.61892,-8.06596 c 0,0 -0.40485,-4.32638 -2.74522,-11.07074 -4.75358,-13.72178 -9.43358,-20.01517 -9.43358,-20.01517 0,0 -2.87214,-6.39886 -9.55338,-6.39886 -6.46274,0 -6.94791,5.90972 -6.94791,5.90972 0,0 -1.5267,4.6875 -4.00303,6.13931 -2.41321,1.40328 -9.55945,5.56961 -13.34678,1.4375 -4.57393,-4.98179 -7.07642,-10.80705 -7.56683,-16.37151 -0.4807,-5.5742 1.79687,-7.83637 1.79688,-7.83637 0,0 0.47533,-1.44748 7.83636,-1.44748 8.24958,0 9.77299,-2.53561 9.77299,-2.53558 0,0 1.57372,-1.44806 1.44748,-4.68186 -0.14081,-3.22894 -1.3899,-10.17065 -3.7934,-14.57464 -1.58291,-2.88905 -5.14105,-7.47545 -8.17577,-10.99087 l -4.69183,-0.84852 v -0.0102 l 0.49915,1.30748 4.1927,-0.47917 c 2.86963,-1.06822 6.82753,-2.61444 11.0907,-4.54209 8.74485,-3.93303 12.9096,-7.22133 16.91057,-9.50347 0,0 8.81532,-5.43645 14.01561,-5.29079 0,0 1.21601,-0.0404 1.32769,1.55729 0.11168,1.59748 0.49951,3.95148 1.04818,5.32074 0.54382,1.36441 3.57496,8.84535 13.25693,9.9427 9.68196,1.10707 13.81595,-5.42056 13.81595,-5.42056 0,0 3.30918,-5.09573 -2.40581,-11.1506 0,0 -4.65597,-4.99705 -4.80164,-5.38064 0,0 -0.50728,-0.7493 0.80859,-1.12803 1.24321,-0.36049 13.80555,-3.89427 19.69573,-6.38889 l 1.26355,-0.59746 c 0,0 0.90263,-0.33749 1.23208,-0.46072 0.82716,-0.41359 1.72313,-0.98654 2.28603,-1.58724 z M 299.69703,94.8137 c 3.40284,-0.0358 5.77994,0.24958 5.77994,0.24958 0,0 3.97945,0.4346 3.31424,3.12456 -0.67978,2.69483 -2.92736,7.19732 -3.01476,9.51345 -0.10196,2.30153 0.046,4.97896 4.55208,6.85806 4.51566,1.87424 11.00086,1.29775 11.00086,1.29775 0,0 6.72134,-0.33897 17.71916,-3.89323 10.98811,-3.54941 22.30119,-7.63671 22.30119,-7.63671 5.21833,-2.96993 -0.62459,-1.77573 -0.75843,-2.15625 l 0.75869,2.15625 0.0102,0.0501 c 9.64313,9.45375 11.40016,20.96351 11.40016,20.96351 0,0 1.29781,4.53673 -1.3776,4.88151 -2.33066,0.29619 -7.77647,0.3494 -7.77647,0.3494 0,0 -2.06565,0.20383 -5.43055,0.88845 -3.36004,0.68463 -5.49889,4.26194 -5.97959,6.73827 -0.47099,2.47633 -1.92158,9.27765 3.7934,19.9453 5.70042,10.66278 12.91752,10.18228 12.91752,10.18228 6.26366,-0.54868 8.19288,-1.65648 11.8394,-4.13281 3.53969,-2.41321 5.15674,-7.76532 5.36067,-8.79469 0.21364,-1.03424 0.69164,-2.06641 1.50738,-2.06641 0.83515,0 0.55289,0.002 2.47569,-0.26951 1.93251,-0.27191 3.38331,1.09381 4.96136,4.33246 1.02938,2.07332 6.52812,11.14103 8.11588,16.51126 1.58291,5.35571 2.96837,10.71627 3.09461,15.53298 0.0631,1.89366 0.31791,4.06168 0.61894,5.98448 v 0 c -8.0505,4.01554 -26.31763,12.87917 -38.22347,17.04523 0,0 -9.11291,3.69629 -12.81769,3.7934 0,0 -0.82036,0.0296 -0.16969,-0.86849 0.64579,-0.89828 1.34893,-1.55873 2.46571,-3.57378 1.12163,-2.02962 3.14453,-6.59045 3.14453,-11.30033 0,-4.70503 -5.43784,-9.31581 -13.01735,-8.49522 -7.57466,0.81087 -14.81362,2.91903 -23.53904,6.27907 -8.71571,3.36004 -16.23487,10.48713 -17.24,16.39148 -1.01481,5.90435 5.37066,9.31379 5.37066,9.31379 0,0 7.20814,3.64886 8.12586,5.62022 0.91284,1.97135 0.23966,3.80338 0.23956,3.80338 0,0 -0.63271,1.96744 -3.80338,3.78342 -3.15611,1.83054 -11.75954,6.25911 -11.75954,6.25911 0,0 -10.70751,5.90482 -26.99302,7.33723 0,0 -14.84839,1.25977 -23.3893,1.68706 -0.1036,0.009 -0.21119,0.0153 -0.31945,0.0199 0.18559,-5.45849 -0.0528,-10.31968 -0.61892,-14.60459 v -0.0102 c -0.37751,-2.85452 -0.90582,-5.45318 -1.54731,-7.80642 v -0.0102 c -0.32041,-1.1746 -0.67236,-2.28161 -1.04818,-3.3342 v -0.0102 c -0.37587,-1.0521 -0.78359,-2.04273 -1.20789,-2.97482 v -0.0102 c -0.42566,-0.93444 -0.87033,-1.8097 -1.33767,-2.62543 -3.90872,-6.86575 -10.29023,-10.49471 -13.43662,-12.02907 -0.78539,-0.38481 -1.83335,-0.7146 -3.03472,-0.96831 -1.20137,-0.25372 -2.55698,-0.42913 -3.97308,-0.49915 -1.74108,-0.0864 -3.52405,0.0592 -5.25087,0.33943 -1.08271,0.17566 -2.16716,0.35782 -3.12456,0.70876 l -0.0102,0.0102 c -1.23381,0.45325 -2.23329,0.8772 -3.05469,1.3177 l -0.0102,0.0102 c -0.81806,0.43986 -1.46434,0.88723 -2.01649,1.3776 -0.33483,0.297 -0.58943,0.65458 -0.86849,0.98828 -0.18456,0.22069 -0.40685,0.40694 -0.57899,0.64887 -0.004,0.006 -0.006,0.0138 -0.0102,0.0199 -0.4282,0.60374 -0.83548,1.27696 -1.28775,2.05642 -0.004,0.007 -0.006,0.0128 -0.0102,0.0199 -0.90942,1.56243 -1.92404,2.29535 -2.70529,2.63542 -0.78503,0.34172 -1.33767,0.28949 -1.33767,0.28949 0,0 -6.92592,0.21369 -9.17404,-10.35198 -1.56349,-7.40229 -1.12711,-12.30488 -0.29946,-15.35329 0.20562,-0.75741 0.42964,-1.39769 0.65885,-1.93663 l 0.0102,-0.0102 c 0.22851,-0.53606 0.45621,-0.96885 0.65885,-1.30772 l 0.0102,-0.0102 c 0.40337,-0.67265 0.69186,-0.96146 0.69879,-0.96832 l 0.0102,-0.0102 c 0,0 0.20035,-0.23235 0.52907,-0.53906 0.5659,-0.52713 1.73566,-1.2824 3.6836,-1.87673 0.72618,-0.22157 1.45671,-0.44712 2.42578,-0.57899 5.11289,-0.6992 8.40013,0.55623 12.31856,1.52734 3.62224,0.90781 6.46263,0.53712 10.74131,-1.39757 0.34413,-0.15558 0.63355,-0.24217 0.99826,-0.41927 1.2236,-0.59601 2.27417,-1.28479 3.14453,-2.09635 0.43455,-0.40418 0.83282,-0.84088 1.17795,-1.30772 l 0.0102,-0.0102 c 0.68896,-0.93493 1.18337,-2.00324 1.50738,-3.22439 0.48882,-1.84237 0.56833,-4.03033 0.19964,-6.65841 -0.95169,-6.7832 -1.21086,-8.37693 -7.20746,-28.95961 13.13131,-1.80923 22.08007,-3.37049 37.97391,-7.05771 0,0 14.76055,-2.61668 17.83896,-8.01606 1.78688,-3.1561 5.02468,-7.47371 -0.20966,-11.81943 0,0 -0.61949,-0.77416 -3.85329,-1.50738 -3.2338,-0.73318 -5.71136,-1.22739 -8.43532,-3.17447 -2.72882,-1.95678 -2.67532,-4.22265 -2.67535,-4.22265 0,0 -0.23072,-2.16101 4.19271,-4.6519 0,0 4.13261,-3.02251 12.33853,-5.62023 4.10779,-1.294 8.53638,-1.65119 11.93922,-1.68706 z M 81.08771,183.6593 c -0.0874,4.42341 -0.744402,13.78748 -5.410586,15.98219 0,0 -1.581233,0.82793 -4.222653,-1.15799 -2.641419,-1.98592 -5.492731,-2.0649 -6.648429,-2.10633 -0.352257,-0.0128 -1.073347,0.0603 -1.956598,0.31944 -2.013663,0.59085 -4.881151,2.16297 -6.259106,6.0395 -1.976781,5.56112 -1.820274,13.0559 -1.407552,17.46959 0.417577,4.41855 4.427751,11.43011 9.263879,11.43011 0,0 2.178864,0.67885 4.951384,-2.17621 2.757952,-2.84535 4.376905,-3.09353 5.610241,-3.05468 1.238165,0.0434 3.632606,1.31318 5.200948,13.82593 1.490654,11.86697 2.63728,21.92432 2.525602,32.72306 1.166344,1.41865 1.995038,3.12496 3.02972,4.80193 3.942707,-0.437 10.281654,-1.12997 17.5844,-1.91657 12.27484,-1.31585 20.52295,-2.6433 28.15102,-1.49739 7.63778,1.14105 10.09243,7.10763 10.09243,7.10763 0,0 0.525,1.51864 -1.22786,2.63541 -1.69458,1.08765 -3.63574,2.66188 -4.60199,4.32248 -0.96626,1.68002 -1.99387,5.18749 0.77864,9.8828 2.77738,4.6759 10.39361,7.7248 16.88063,6.94791 6.48216,-0.76232 16.19797,-3.25622 21.9518,-4.75172 6.24909,-1.63635 11.76965,-4.71403 12.48827,-9.61328 0.71376,-4.89925 -7.44705,-11.14061 -7.44705,-11.14061 0,0 -3.94645,-2.96874 -4.4223,-3.64366 -0.48555,-0.67492 0.47917,-0.96831 0.47917,-0.96831 0,0 4.60747,-1.10824 6.58853,-2.00651 1.96167,-0.92256 7.39115,-3.13234 16.28167,-5.90972 8.89051,-2.78708 27.23261,-6.05945 27.23261,-6.05945 0,0 10.12112,-1.61575 22.75041,-2.63542 l 2.81599,-0.67334 -2.77606,0.66336 c -0.0342,1.19446 -0.0812,2.41143 -0.12977,3.68359 -0.69434,18.82011 3.5039,28.48044 3.5039,28.48043 2.38408,5.18089 4.95957,8.88118 8.46527,11.26041 3.49114,2.37437 8.26374,0.75747 9.80294,0 1.53436,-0.7769 5.79678,-2.72999 9.43359,-5.04123 3.63681,-2.31124 3.50711,-3.28797 7.90624,-7.34721 4.40398,-4.04468 10.08245,-2.93489 10.08245,-2.93489 0,0 5.38685,0.13923 8.46527,6.36891 3.08328,6.22967 2.4537,15.10888 1.6671,18.32811 -0.76718,3.21923 -2.16542,5.32497 -5.171,4.76171 -3.01044,-0.55839 -7.97698,-1.06006 -9.79296,-1.12804 -1.82083,-0.068 -6.94361,-0.24042 -11.6098,0.97831 -4.5545,1.18961 -10.71563,4.47903 -16.58114,14.00562 -4.55936,7.37558 -2.31659,14.62479 -1.26779,17.48957 0.82058,2.24326 3.08012,5.35838 5.06119,9.20398 l 3.6736,1.22786 -0.39529,-1.42977 -3.27831,0.22213 c -6.22968,0.75263 -16.76701,2.2514 -27.16273,4.76172 -12.73126,3.09784 -24.8788,5.58128 -33.52167,11.1506 0,0 -6.46943,4.29462 -2.74522,8.47525 3.7145,4.18548 7.59678,5.97959 7.59678,5.97959 0,0 2.29491,1.00566 2.25607,1.62717 -0.0434,0.80602 -0.0777,1.5 -1.78689,2.48567 0,0 -6.76733,3.96423 -19.94529,4.18273 -13.17796,0.21364 -18.98522,0.0925 -22.85024,-3.38412 -3.19495,-2.86963 0.79861,-8.95441 0.79861,-8.95441 0,0 1.60233,-2.9742 0,-7.05772 -1.60233,-4.06895 -10.77125,-4.14279 -10.77125,-4.14279 l -12.69791,-0.64887 c -15.02792,-0.3933 -34.8717,-2.06714 -43.70394,-3.1645 0,0 -0.0578,-0.0153 -0.15972,-0.0301 v -0.0102 c -0.0874,-0.12138 -0.16703,-0.25284 -0.24958,-0.36938 0,0 -9.097248,-16.4001 -8.135844,-22.42098 0,0 0.323942,-4.03167 6.019524,-5.76996 3.96699,-1.21874 3.45067,2.6393 15.1137,4.74175 0,0 10.05109,2.70076 12.67794,-4.60199 2.61714,-7.3076 -2.7552,-16.47135 -2.7552,-16.47133 0,0 -7.03688,-12.8963 -15.75259,-13.38671 -4.61281,-0.25735 -3.35405,2.84129 -10.31206,4.49218 0,0 -9.286258,0.89259 -12.228721,-4.67187 -3.563969,-6.7395 -5.052834,-14.4134 -4.931415,-19.536 0.106822,-4.85555 0.263376,-5.24059 0.578992,-6.65841 0.218499,-1.00025 0.93181,-2.83921 1.232854,-5.49034 0,0 3.678259,-5.15154 -3.598739,-5.14127 -1.573199,0.18937 -3.453528,0.36857 -5.400599,0.5191 -4.913843,0.34475 -12.031993,-0.27783 -20.883661,-2.89496 -8.856524,-2.6317 -14.38214,-7.45322 -15.173595,-10.35198 -0.553533,-2.00535 0.169704,-4.84156 0.169704,-4.84158 0,0 1.652884,-6.39141 0.608941,-11.65971 -1.068223,-5.25856 -2.822753,-9.38474 -7.916225,-12.45832 -5.088617,-3.0687 -7.976121,-2.53558 -7.97612,-2.53558 0,0 -4.562302,-0.70254 -4.392356,7.01778 0.179655,7.72518 1.148002,10.96093 1.148002,10.96093 0,0 0.874175,2.72019 -0.529079,3.07465 -1.398399,0.3496 -3.593747,-1.74694 -3.593747,-1.74697 0,0 -3.481439,-3.199 -6.328986,-6.42881 l -0.499376,-4.03326 v -0.0199 C 10.376,228.12517 9.851416,218.90592 9.851416,209.55406 c 0,-14.27795 1.238794,-28.26497 3.583764,-41.87712 l 1.327689,-2.97483 c 0.992396,0.21477 1.8967,0.55903 1.8967,0.55903 0,0 5.514353,2.97411 7.97612,3.48394 2.461764,0.50983 4.247489,-0.3153 5.84982,-1.41754 2.558875,-1.77227 5.550294,-5.44816 6.79817,-8.93445 1.111921,-3.13668 1.357637,-11.61977 1.357637,-11.61977 l 0.01998,0.0699 c 0,0 -0.0065,-2.04463 -0.0599,-2.51562 -0.05827,-0.47584 -0.356438,-2.68658 0.998263,-3.80338 1.349843,-1.1362 2.224289,-1.68438 5.550341,-1.76693 l -1.8e-5,10e-6 c 3.301776,-0.0825 4.302485,1.84676 4.302516,1.84679 0,0 1.128036,1.57096 1.128036,2.59548 0,1.01967 -0.329513,1.65712 -0.329411,1.65712 0,0 -1.799416,3.03657 -2.425782,4.53212 -0.631221,1.49064 -3.08963,6.42496 -2.375864,10.5716 0.718619,4.13693 7.18749,6.06943 7.18749,6.06943 0,0 5.151805,1.21257 12.498253,0.12978 l 15.178706,-2.44565 c 0.383589,5.51591 0.836898,16.32316 0.773776,19.9454 z m 143.90932,-40.34 c 0.007,0.0256 2.49114,9.9613 4.38237,16.39147 1.88396,6.43846 2.72315,12.79986 3.00477,14.12542 0.28162,1.33042 0.21553,3.69786 -1.53733,5.10112 -1.74314,1.40326 -6.01483,2.59929 -6.91796,2.73524 -0.90799,0.14081 -2.60316,-0.20628 -4.84157,-0.97829 -2.24326,-0.76719 -4.47222,-0.90842 -4.47222,-0.90842 0,0 -5.38624,-0.91432 -11.12065,0.83854 -5.73926,1.74314 -10.08224,7.61265 -10.43184,14.96396 -0.34475,7.34644 -0.27902,11.06784 2.59548,17.56942 2.86477,6.50644 8.04561,10.21413 11.95919,10.28211 3.92328,0.068 7.13042,-1.95473 9.37368,-5.10112 2.2287,-3.15611 2.86502,-3.64366 2.86502,-3.64366 2.66084,-1.46638 9.44471,-2.10584 12.87759,-0.83854 3.43774,1.25273 9.74043,5.20935 13.217,13.00736 2.81136,6.30251 3.69435,13.34714 3.54383,26.0347 l 2.81511,2.17621 0.0705,-1.47022 -2.91555,-0.69601 c -7.9631,0.66035 -17.19008,1.74696 -17.19008,1.74696 0,0 -20.8331,2.95968 -39.91055,8.8446 -16.19812,4.99151 -19.27646,7.74652 -19.27646,7.74652 0,0 -3.45833,2.88654 -0.57899,7.04774 0,0 1.65582,2.61403 5.0013,5.24088 3.32605,2.63171 6.00893,5.13668 5.6302,6.40885 -0.38844,1.28187 -1.40755,1.85677 -1.40755,1.85677 0,0 -4.66178,4.15253 -23.75866,7.3572 0,0 -12.28956,2.37196 -16.07203,-1.33768 -3.77762,-3.71935 -2.11631,-6.20919 -2.11631,-6.20919 0,0 0.25678,-0.83669 3.01475,-2.55556 0,0 4.61063,-2.89378 3.13454,-8.3854 -1.47123,-5.51105 -10.33021,-12.35687 -19.90536,-12.2986 0,0 -11.18698,0.0276 -39.80074,3.69357 0,0 -0.03731,5.8e-4 -0.129771,0.0199 0.0097,-1.25004 -0.01738,-2.58418 -0.09982,-4.01301 -0.441856,-8.06021 -1.028672,-20.49212 -2.116315,-27.73174 -1.082788,-7.23963 -3.079329,-18.43717 -9.673166,-18.76734 0,0 -3.260298,-0.25229 -7.936193,4.29253 -4.292307,4.15635 -8.171764,-3.4389 -8.385408,-8.07595 -0.257344,-5.44307 0.636701,-10.93954 1.986544,-13.56639 1.344987,-2.62685 5.060777,-2.75358 5.759976,-2.69531 0.70891,0.0631 2.691661,0.82477 5.061196,2.296 2.369503,1.48095 5.629192,1.48844 7.556846,-0.43924 1.917942,-1.91309 4.602699,-4.15968 5.700084,-12.61805 1.087638,-8.45351 1.084403,-17.21918 0.0599,-27.72176 l -0.01993,-0.0501 c 3.909515,-0.71378 10.387693,-1.79663 17.389737,-2.48567 11.29401,-1.10707 23.24019,-1.27011 28.26083,-0.63889 0,0 2.35016,0.29803 1.96657,1.13802 -0.30104,0.66035 -2.04644,2.01649 -2.04644,2.01649 0,0 -0.65444,0.389 -3.17447,3.23437 -2.52003,2.84535 -3.25733,5.60906 -3.36415,8.06596 -0.11653,2.45206 2.5089,9.6924 11.72959,11.62976 9.2304,1.92766 19.79555,-1.65711 19.79555,-1.65711 0,0 5.9736,-1.37494 12.10893,-6.84808 0.17664,-0.14194 0.24937,-0.2297 0.48913,-0.44922 0.30938,-0.28709 0.61969,-0.52962 0.92839,-0.83854 0.3039,-0.30411 0.44681,-0.61968 0.69878,-0.92838 0.0679,-0.0896 0.12267,-0.16596 0.18968,-0.25955 5.06276,-6.58151 -0.82856,-13.89581 -0.82856,-13.89581 0,0 -1.07121,-1.4762 -3.14453,-2.14627 0,0 -0.90376,-0.24589 -0.37935,-0.82856 0.30003,-0.33334 0.93663,-1.31413 2.25608,-2.32595 0.94817,-0.59744 2.21132,-1.28319 4.39235,-2.0664 0.0107,-0.003 0.0394,-0.007 0.0501,-0.0102 4.88691,-1.25967 19.33578,-5.82228 53.6766,-10.36197 z m 264.60952,0.27952 0.52908,0.56901 1.78689,2.27604 c 5.34934,20.12119 8.22569,41.27655 8.22569,63.09022 0,5.21151 -0.19928,10.38188 -0.5191,15.513 l -1.76693,2.97482 1.01823,2.50564 c -1.01017,1.56477 -1.82397,2.76683 -3.64365,5.76996 -6.152,10.13354 -7.11762,18.31812 -7.11762,18.31812 0,0 -0.58487,3.18128 -0.25954,5.03125 0.30104,1.72372 0.91409,2.50977 0.93837,3.01475 0.0434,0.50498 -0.35839,4.65774 -2.46571,8.61501 -2.12188,3.95727 -3.96311,5.00129 -3.96311,5.00129 0,0 -3.67289,2.65262 -4.18272,0.76867 -0.50498,-1.89367 -0.3542,-3.49737 -0.16969,-4.69184 0.1748,-1.20417 1.40752,-7.66385 1.22786,-10.06249 -0.1748,-2.39864 -2.32595,-0.4692 -2.32595,-0.4692 0,0 -0.50549,0.57759 -1.44748,1.77692 -0.94683,1.20417 -6.25083,7.95252 -8.2756,10.32203 -4.80214,5.62273 -9.16127,9.65704 -20.84373,19.0768 -0.0342,0.0148 -0.0656,0.0506 -0.0899,0.0699 l -0.0501,0.0799 c -1.01931,-1.69247 -2.05949,-2.94185 -2.61545,-3.66362 -1.37898,-1.77228 -3.87407,-0.98555 -6.93793,-8.38541 -3.51541,-8.46322 -3.93041,-15.47439 -3.65364,-19.80554 0.27677,-4.32629 1.30862,-5.9864 3.30425,-7.83636 1.99563,-1.85968 10.80121,-1.02821 10.80121,-1.02821 0,0 4.31588,0.8892 8.18575,-5.51041 3.84074,-6.39476 3.56415,-16.85674 2.32595,-22.0716 -1.23816,-5.22457 -3.01521,-9.76422 -10.1723,-10.52168 -7.15708,-0.75261 -10.38193,8.04599 -10.38193,8.04599 0,0 -1.44505,3.36827 -2.96484,5.30078 -1.51008,1.91794 -5.63023,1.36762 -5.6302,1.36762 -1.79173,-0.20393 -3.99289,0.47595 -6.12933,-3.92317 -2.12188,-4.39428 -7.01779,-15.95224 -7.01779,-15.95224 -1.64118,-3.90387 -2.67887,-7.35579 -3.32952,-9.98265 l -3.52855,-1.44746 -0.4093,3.5638 c 2.8842,10.09469 8.91952,22.82607 11.42013,28.03121 2.54431,5.29744 8.2561,5.83615 12.37846,4.81163 4.12722,-1.03908 5.48923,-3.3081 7.76648,-8.26562 2.2724,-4.94295 3.50391,-5.29079 3.50391,-5.29079 0,0 0.90592,-1.30413 5.10112,-0.81857 4.1952,0.4807 5.09114,3.43402 5.09114,3.43402 0,0 2.40735,5.70277 1.92665,11.68966 -0.47585,5.97233 -1.78552,8.66961 -3.1645,10.8012 -1.37897,2.13159 -8.53514,1.4375 -8.53514,1.4375 0,0 -12.30932,-1.37335 -13.40667,13.41665 -1.0925,14.78516 3.84331,25.02646 3.84331,25.02646 1.79658,3.91843 3.65094,5.98543 5.16102,7.08767 1.51493,1.0925 2.95486,2.54556 2.95486,2.54556 0,0 0.25882,0.23077 0.6289,0.71875 h -0.0102 c -8.77398,7.10853 -11.36606,9.41207 -18.35805,14.35502 0,0 -7.98064,5.95157 -16.71092,10.66145 -8.74971,4.70017 -19.01691,4.14279 -19.01691,4.14279 0,0 -2.7922,-0.30089 -1.4375,-2.31597 1.34013,-2.01505 3.0734,-6.91786 3.74349,-9.41362 0.67977,-2.5006 2.01396,-8.83606 -3.07465,-10.85111 -5.08862,-2.01506 -14.65452,0.94835 -14.6545,0.94835 0,0 -21.97768,5.85534 -30.93617,15.69269 -8.70114,9.56058 -1.38758,13.81595 -1.38758,13.81595 0,0 3.4168,2.37878 6.72829,3.55382 3.12697,1.11192 2.49392,2.10266 1.71701,2.68533 0,0 -9.81254,6.25241 -21.40276,9.58332 0,0 -15.8592,4.86442 -31.27557,5.85981 -15.2962,0.98872 -21.7684,1.37619 -21.79208,1.3776 l 0.0102,-0.0102 c -1.65089,-3.24351 -3.36415,-6.1493 -3.36415,-6.1493 0,0 -0.39626,-0.5738 -0.89843,-1.56728 v -0.0102 c -0.25168,-0.49884 -0.53311,-1.1061 -0.8086,-1.79687 v -0.0102 c -0.27564,-0.69208 -0.54702,-1.46938 -0.77864,-2.31597 v -0.0102 c -0.2312,-0.84646 -0.42941,-1.76001 -0.54887,-2.72431 v -0.0102 c -0.23838,-1.93316 -0.18104,-4.06378 0.43925,-6.23914 v -0.0102 c 0.31065,-1.0866 0.77069,-2.18397 1.39756,-3.27431 v -0.0102 c 0.62736,-1.09181 1.31079,-2.08629 2.01649,-2.99479 v -0.0102 c 0.70746,-0.91018 1.44501,-1.72614 2.1862,-2.46571 2.96523,-2.95839 6.01136,-4.60089 7.71657,-5.37065 l 0.0102,-0.0102 c 0.84607,-0.38144 1.34864,-0.53617 1.35764,-0.53906 0,0 7.28592,-1.61499 14.55468,0.0699 3.45079,0.79146 6.02852,0.51426 7.7565,0.0501 0.85863,-0.22949 1.50368,-0.49696 1.93663,-0.71876 l 0.0102,-0.0102 c 0.41768,-0.2165 0.64887,-0.37934 0.64887,-0.37934 0,0 0.25504,-0.11792 0.66884,-0.41927 l 0.0102,-0.0102 c 0.4141,-0.30257 0.97547,-0.7875 1.57726,-1.53732 0.20761,-0.25852 0.42657,-0.59506 0.63889,-0.9184 0.0964,-0.1471 0.1935,-0.25786 0.28949,-0.41926 0.30426,-0.51071 0.60592,-1.10108 0.88845,-1.76693 0.003,-0.006 0.007,-0.0138 0.0102,-0.0199 0.0884,-0.2092 0.15518,-0.4832 0.23956,-0.70877 0.18732,-0.50211 0.37771,-0.9896 0.53906,-1.57725 0.0973,-0.35303 0.16428,-0.79225 0.24958,-1.17795 0.11883,-0.54005 0.24871,-1.04005 0.33943,-1.64713 10e-4,-0.008 0.009,-0.0123 0.0102,-0.0199 0.47268,-3.14318 0.57474,-7.30133 -0.0599,-11.43012 -9.9e-4,-0.007 0.001,-0.0138 0,-0.0199 -0.21216,-1.37522 -0.50682,-2.74185 -0.89844,-4.07291 v -0.0102 c -1.57201,-5.3359 -4.69849,-10.00825 -10.29209,-11.5499 -5.60733,-1.53922 -9.8922,-0.84131 -12.77776,0.22959 -1.43713,0.53458 -2.52574,1.15382 -3.25555,1.6488 l -0.0102,0.0102 c -0.71768,0.48893 -1.09809,0.84852 -1.09809,0.84852 v 0.0102 c -0.005,0.005 -1.50698,1.65208 -3.25434,3.43403 l -0.0102,0.0102 c -1.74762,1.78174 -3.73769,3.68568 -4.7118,4.17273 -1.96164,0.97597 -4.97135,2.71528 -4.97135,2.71528 0,0 -4.20265,2.52329 -7.05771,3.15451 -1.88797,0.42223 -8.67419,-8.59534 -9.37369,-15.52299 v -0.0102 c -0.32313,-3.19501 -0.81164,-6.09317 -1.15799,-9.83289 -0.005,-0.0556 -0.005,-0.13375 -0.0102,-0.18967 -0.33657,-3.7032 -0.53648,-8.21441 -0.30948,-14.66448 v -0.0799 l -0.0102,-0.0102 c 1.98277,-0.11628 4.00323,-0.21196 6.02951,-0.28949 17.34402,-0.62637 25.93812,-2.69325 35.15881,-4.76171 9.21584,-2.06361 22.18525,-9.59897 24.10805,-11.05078 1.9228,-1.43238 5.95735,-3.21067 6.76822,-9.50346 0.81574,-6.28794 -6.61848,-10.47178 -6.61848,-10.47178 0,0 -5.91965,-3.12345 -7.16753,-4.51214 -1.24302,-1.39354 -0.0899,-2.73522 -0.0899,-2.73524 0,0 3.34932,-7.21064 14.06552,-11.43011 10.70649,-4.23404 17.91018,-5.36939 22.42099,-5.8598 4.52537,-0.4807 6.05687,1.14463 6.67838,1.91666 0.62151,0.76232 0.61937,2.36159 0.0998,3.99305 -0.49527,1.49551 -2.15858,5.03479 -3.13455,6.76822 -0.95654,1.72858 -2.53244,5.90494 -1.52734,7.8763 1.00995,1.96649 4.08441,2.88487 8.06596,2.16623 3.98641,-0.72348 14.50802,-3.70127 23.72871,-7.54687 9.22555,-3.8456 24.63713,-11.38019 24.63713,-11.38019 0,0 0.0419,-0.021 0.10978,-0.0599 l 1.14823,-1.6673 2.81041,-0.38932 c 4.94781,-2.72882 13.41567,-7.7245 19.46083,-12.82769 9.08959,-7.63778 17.96212,-15.65905 20.22481,-17.66925 2.25783,-2.02476 4.3339,-3.65092 6.34895,-3.55381 2.01505,0.10197 3.56348,1.53424 4.80164,6.95789 1.25273,5.42851 1.48374,9.89676 2.06641,12.53818 0.5681,2.63657 1.38517,5.70262 4.51214,6.32899 3.12698,0.62636 7.34156,-2.09929 8.92447,-3.45399 1.60234,-1.34013 4.47192,-5.71407 4.28255,-11.56987 0,0 0.33166,-7.78857 -3.69357,-15.18358 0,0 -1.69446,-2.97766 -2.31597,-3.7934 -0.42729,-0.57295 -0.7635,-1.16201 -0.0501,-2.55555 0.71862,-1.38869 2.26171,-3.98363 5.14105,-5.61024 2.185,-1.24302 4.27629,-1.5382 5.48047,-1.92664 0,0 1.35011,-0.31582 3.0447,-1.25781 z M 80.78801,281.27916 c -0.820588,3.30663 -0.901288,6.62734 -0.109787,12.47828 0.781774,5.87522 3.9364,18.06265 8.515184,21.24303 6.079149,4.22919 10.052426,4.15893 14.155363,3.84332 4.08838,-0.32533 6.91797,-3.46398 6.91797,-3.46398 0,0 1.60535,-1.65297 3.32422,-1.14799 1.72857,0.50983 6.53545,3.20807 9.99261,10.12238 3.462,6.9143 4.22624,14.5228 -1.53733,15.88236 -5.76354,1.33042 -15.68271,-4.10286 -15.68271,-4.10286 0,0 -5.63912,-3.14256 -10.242178,0.31944 -4.617628,3.46201 -4.74215,8.77263 -2.435763,15.30338 1.267298,3.58339 3.797807,9.41361 7.347211,15.48305 l 3.44401,1.44748 -0.33943,-0.45923 -3.16449,-0.98828 c -5.530471,-1.07308 -15.745752,-3.24094 -19.78557,-5.26084 -3.685363,-1.84513 -5.661413,-1.51478 -5.171003,-5.35069 0.490411,-3.7242 -3.663625,-8.91449 -3.663625,-8.91449 0,0 -5.760359,-6.24793 -10.950943,-10.13236 -5.190583,-3.89416 -7.397109,-2.73524 -7.397129,-2.73524 0,0 -2.351789,1.24899 -0.239558,6.28905 2.117015,5.04979 4.172738,6.81814 4.172738,6.81814 0,0 1.017028,1.06117 0.439248,1.34765 -0.572955,0.29134 -2.352386,-1.0484 -3.833329,-2.30599 -0.644884,-0.53528 -3.636675,-3.365 -6.259106,-5.80989 -1.01758,-1.59447 -2.113187,-3.13243 -3.094616,-4.75173 l -0.01,-0.0199 -1.467447,-2.48567 -0.01,-0.0102 c -15.588019,-26.4289 -26.304376,-56.06127 -31.046015,-87.63721 1.102528,1.30162 2.35043,2.75445 4.362409,4.83159 5.263416,5.44308 6.927944,2.01649 6.927944,2.01649 0,0 1.231104,-3.42325 -0.259548,-9.64321 -1.490654,-6.23938 -1.229253,-9.93 1.577254,-9.83289 2.806509,0.0923 10.962187,1.75113 13.506497,8.5052 0,0 1.056099,3.15253 0.08984,7.18749 -0.97111,4.04467 -0.789046,7.6252 -0.08984,11.14062 0.704054,3.51541 3.684463,6.83453 7.107632,9.56335 3.428019,2.72882 13.33716,7.45416 22.989994,8.06596 9.647979,0.6118 12.623174,0.11495 12.623174,0.11495 -0.203933,0.96626 -0.446506,2.03468 -0.703881,3.04949 z m 418.00256,-46.90831 c -5.84833,58.1112 -31.93994,110.22051 -71.16616,149.16043 0.0291,-0.50355 2.23611,-2.49566 2.23611,-2.49566 0,0 2.84673,-3.03757 4.69184,-5.46049 1.84996,-2.41807 0.66883,-2.27605 0.66883,-2.27605 0,0 -0.90236,-0.23051 -4.79166,2.23611 -3.88929,2.46662 -6.63844,4.17273 -6.63844,4.17275 0,0 -8.36423,4.78816 -13.6762,7.87629 -0.0414,0.024 -0.13724,0.0753 -0.17971,0.0998 0.95279,-1.48775 1.95299,-2.92638 2.96484,-4.3125 v -0.0102 c 3.0514,-4.17221 6.2504,-7.83231 8.83463,-10.71136 4.19034,-4.67589 9.21397,-12.25866 9.21396,-12.25866 0,0 3.10633,-5.31542 3.23438,-7.79644 4e-4,-0.008 -3.5e-4,-0.0123 0,-0.0199 0.0189,-0.35047 -0.0332,-0.63427 -0.14976,-0.84852 v -0.0102 c -0.63122,-1.12164 -3.4176,0.0845 -8.18575,3.64366 -3.74516,2.80019 -6.62609,4.53929 -9.06423,5.77994 -1.19511,0.51634 -2.37692,0.92364 -3.44401,1.03819 -5.01578,0.56324 -4.80725,-4.59538 -4.47222,-6.85807 0.33989,-2.2821 1.51936,-7.50487 5.16103,-9.57334 3.64166,-2.06846 8.73489,-1.99013 12.30858,-2.47569 3.58339,-0.48555 5.22091,-1.50738 5.22091,-1.50738 0,0 5.85266,-3.71869 9.70312,-9.97264 3.86016,-6.26369 7.29844,-16.37761 7.6966,-26.41403 0.15006,-3.69495 -0.34858,-6.5652 -1.10807,-8.82465 h 0.0199 c 9.59942,-7.64264 18.78731,-17.33982 18.78731,-17.33982 0,0 6.1002,-6.11841 9.16405,-11.44009 2.88905,-4.99151 0.12977,4.31249 0.12977,4.31249 0,0 -1.54767,7.35363 0.93837,10.08245 1.97621,2.16072 7.5868,-3.85329 7.5868,-3.85329 0,0 3.33686,-3.82633 4.68185,-10.00259 1.98106,-9.10416 0.89844,-10.921 0.89844,-10.921 0,0 -1.19213,-1.88954 -0.44922,-4.13281 0.72639,-2.15572 5.27862,-13.86139 9.18402,-18.88713 z m -54.26557,61.67268 -0.64863,0.79861 0.55903,2.34591 c 1.01967,2.78709 1.7573,7.19917 0.69879,13.68619 -2.27725,13.95485 -6.25911,18.42793 -6.25911,18.42793 0,0 -4.96293,6.93751 -10.73133,7.63671 -5.78781,0.68463 -12.12047,0.4784 -17.88887,6.87803 -6.40932,7.0891 -5.09113,16.22177 -5.09113,16.22177 0,0 0.55685,5.57301 6.5486,4.06293 5.96747,-1.51979 12.08817,-6.11676 16.70094,-9.77299 4.5982,-3.64652 1.7769,1.23784 1.7769,1.23784 -4.05438,7.90484 -11.75953,15.82247 -11.75953,15.82247 0,0 -2.68584,2.33903 -8.59505,10.66145 -1.53501,2.15783 -2.7555,4.01979 -3.81336,5.70008 -6.05414,3.27298 -14.59703,7.59367 -20.29468,9.93271 -6.93373,2.85021 -10.48947,3.47353 -9.87282,2.56554 0.6118,-0.90313 2.23611,-2.23611 2.23611,-2.23611 0,0 1.94661,-1.93644 1.94661,-3.89323 0,0 0.60852,-2.8407 -7.79643,-1.07812 -8.39525,1.75286 -15.98219,5.87977 -15.98219,5.87977 0,0 -12.49557,5.74089 -9.54339,9.16405 0,0 0.56433,0.90586 3.07464,1.70703 2.52489,0.81088 -4.45225,2.94488 -4.45225,2.94488 -6.63754,2.17528 -11.72506,3.17174 -18.16838,4.50216 -7.69269,1.58323 -12.55008,2.67104 -16.3216,3.5039 -0.003,-0.0133 -0.007,-0.0266 -0.0102,-0.0399 l 0.0302,-0.0102 c -1.20566,-4.5475 -3.70199,-8.52331 -5.22091,-10.89105 -0.30401,-0.47385 -0.80448,-1.33566 -0.98829,-1.62717 v -0.0102 c -0.38359,-0.61058 -0.82654,-1.15152 -1.39756,-1.6072 -0.54993,-0.4393 -1.22798,-0.79032 -2.06641,-1.03819 -1.7737,-0.52948 -4.30124,-0.58939 -8.1558,0.0501 -7.55524,1.26244 -16.44139,5.04121 -16.44139,5.04123 0,0 -2.2933,1.21109 -5.44054,2.30598 -3.14724,1.0949 -7.14844,2.07361 -10.5716,1.61719 -2.57284,-0.34229 -4.38219,-1.52917 -5.6302,-2.99479 -0.41421,-0.48637 -0.76903,-1.00046 -1.06815,-1.52734 v -0.0102 c -0.29838,-0.52656 -0.53978,-1.06185 -0.73871,-1.58724 v -0.0102 c -0.19831,-0.52484 -0.35481,-1.03521 -0.4692,-1.51736 v -0.0102 c -0.22913,-0.96933 -0.30646,-1.81208 -0.28949,-2.3559 0.0194,-0.53808 0.12399,-1.05649 0.31944,-1.55729 v -0.0102 c 0.19683,-0.50114 0.49895,-0.98068 0.89844,-1.4375 0.80602,-0.91648 2.04891,-1.73656 3.83333,-2.43576 3.56883,-1.40811 11.9619,-3.29195 24.19789,-3.92317 7.6425,-0.39427 12.28332,-3.66006 14.69443,-6.04948 1.44918,-1.43614 2.09635,-2.54557 2.09635,-2.54557 0.60087,-0.86671 1.37824,-2.14143 1.75694,-3.59374 v -0.0102 c 0.37618,-1.44996 0.36233,-3.08038 -0.63889,-4.67187 l -0.0102,-0.0102 c -0.33258,-0.52845 -0.77885,-1.05517 -1.34766,-1.56728 l -0.0102,-0.0102 c -0.57138,-0.51268 -1.27548,-1.00724 -2.1263,-1.48741 l -0.0102,-0.0102 c -1.70894,-0.95613 -2.99652,-1.6096 -4.023,-2.09635 l -0.0102,-0.0102 c -1.0229,-0.48478 -1.7875,-0.79439 -2.43577,-1.06814 l -0.0102,-0.0102 c -1.29989,-0.54676 -2.15138,-0.92841 -3.79255,-2.18357 -1.64846,-1.26487 -3.3633,-2.66528 -4.84158,-4.28255 -0.73598,-0.80518 -1.41486,-1.66156 -1.99653,-2.5855 l -0.0102,-0.0102 c -0.30503,-0.4855 -0.49199,-1.04458 -0.73871,-1.56727 -0.22274,-0.4735 -0.51263,-0.91148 -0.67882,-1.41754 v -0.0102 c -0.023,-0.0749 -0.0712,-0.17603 -0.0998,-0.25954 -0.12466,-0.36678 -0.26,-0.77475 -0.4093,-1.148 l -0.0199,-0.0102 -0.34291,-1.62428 c -4.75993,-1.90133 -2.41865,-0.20352 0.41278,1.63427 3.55426,-0.29134 8.14602,-0.62463 12.25867,-0.82856 8.22044,-0.39816 21.08247,-2.28686 28.55031,-3.92318 7.47755,-1.66059 18.78664,-5.14209 27.15275,-9.46353 8.37097,-4.34086 8.77473,-7.37716 8.77473,-7.37716 0,0 1.59446,-2.30185 -1.8967,-4.83159 -3.49114,-2.54431 -5.03287,-1.85463 -8.12586,-4.99132 -3.08327,-3.14154 2.69533,-7.86631 2.69531,-7.86631 0,0 2.97831,-4.1763 19.52602,-10.55163 16.53315,-6.37049 19.33003,-4.24304 20.1749,-3.54384 0.84972,0.6992 0.95341,2.98805 0.59895,4.53211 -0.33989,1.54893 -2.39171,7.06391 -3.49392,9.96267 -1.10221,2.8842 -1.54192,6.82963 2.9349,7.77646 4.47681,0.94198 10.75126,-0.0342 16.64104,-2.14626 14.04227,-5.02064 18.23807,-11.15224 41.43789,-27.99129 0.0583,-0.0388 0.10605,-0.0755 0.14975,-0.0998 z M 57.628276,338.79912 c 0,0 0.646841,-0.24201 2.894961,1.45747 2.243264,1.69459 7.272112,5.22118 9.763009,8.26561 2.490898,3.02016 2.335939,5.73003 2.335939,5.73003 0,0 -0.498639,2.7328 2.196176,5.68012 2.685119,2.93275 8.416488,8.32201 28.450489,11.41014 0.12139,0.0194 0.16811,0.0256 0.2895,0.0399 l 0.38931,-2.72526 -0.50891,0.30968 0.14975,2.40582 c 2.38893,3.63195 5.13078,7.18776 8.15581,10.23219 0,0 11.96577,13.24197 18.62759,21.63236 0,0 0.39692,0.76932 -0.75869,0.0799 -1.15562,-0.70891 -6.15461,-3.01741 -8.84461,-2.75521 -2.69483,0.2622 -2.18619,1.91667 -2.18619,1.91667 0,0 1.16097,6.08664 19.47611,16.34156 0,0 6.60007,3.70356 10.76127,3.70356 0,0 1.34417,0.19258 3.00477,-1.6671 1.68002,-1.84997 2.17858,-1.65139 3.3342,-1.2678 1.15076,0.37388 2.68689,1.20459 8.45529,5.37066 5.76839,4.1612 16.97819,10.55724 21.00345,13.25693 1.27874,0.85506 2.02098,1.45789 2.56553,1.98654 -8.69959,-0.69466 -16.98802,-1.72445 -21.4327,-2.38585 -2.67518,-1.04662 -5.33773,-2.1074 -7.96614,-3.24436 -0.88171,-0.53835 -1.20167,-0.78665 -2.16623,-1.36762 -2.51032,-1.52464 -10.06249,-4.41232 -10.06249,-4.41232 0,0 -0.67664,-0.24277 -0.79861,-0.28949 -36.91837,-18.62252 -68.488264,-46.2713 -91.780283,-80.09062 0.311778,0.25453 0.540295,0.49271 0.868484,0.74869 7.521274,5.88493 7.566834,3.54384 7.566834,3.54384 0,0 0.300788,-1.94646 -1.437499,-4.0829 -1.743142,-2.1413 -4.537655,-6.66491 -3.843311,-8.32551 0.699199,-1.64118 1.497396,-1.4974 1.497396,-1.4974 z m 213.558374,22.2413 c 1.92754,4.66047 3.39619,7.23246 6.319,10.42186 3.15125,3.42316 8.12043,6.0774 13.99564,8.32551 5.88493,2.24328 3.21441,6.22917 3.21441,6.22916 -3.36004,7.26878 -13.36402,7.56149 -16.30163,7.90625 -2.93275,0.34474 -9.08521,0.90379 -14.83419,2.16623 -5.73926,1.26244 -11.12581,2.03037 -14.34504,5.74 -3.20951,3.70966 -1.9487,7.55056 -0.0599,11.6098 1.88396,4.05439 6.9219,6.22156 13.84591,5.94965 6.92402,-0.27191 11.41763,-2.30199 15.61283,-4.12282 4.1952,-1.82569 11.46584,-3.93057 13.63627,-4.55208 2.16558,-0.62637 5.11176,-1.88346 7.27734,1.26779 2.34523,3.40374 4.82828,8.24307 5.95963,11.8993 0.069,-0.0153 0.13989,-0.0199 0.20986,-0.0297 0,0 -5.88879,1.42388 -15.67273,5.22092 -9.78393,3.79704 -28.99953,6.92794 -28.99953,6.92794 0,0 -12.3355,1.42296 -13.47655,3.0447 -1.1362,1.60721 0.85851,2.42579 0.85851,2.42579 0,0 1.75996,1.07143 8.11588,1.36762 0,0 2.1889,10e-6 2.28602,0.1797 0.0825,0.19422 0.2164,0.33652 -1.14801,0.76867 -1.38868,0.42729 -4.14445,1.52026 -13.48653,2.69531 -9.40034,1.19446 -9.20398,-0.31945 -9.20398,-0.31945 0,0 -0.048,-0.37326 0.37935,-1.04818 0.42243,-0.65064 0.0388,-1.79944 -1.42752,-2.60546 0,0 -2.02822,-1.32606 -8.87456,-1.26779 -6.83662,0.0434 -20.45586,0.0838 -33.18225,-0.66884 -0.29251,-0.0174 -0.63091,-0.0506 -0.92839,-0.0699 l -0.0102,-0.0102 0.78863,0.0399 c -0.79146,-0.71862 -1.80088,-1.36072 -3.01476,-2.00651 -3.39403,-1.79655 -18.11603,-11.52616 -22.67054,-14.60458 -4.54483,-3.07357 -12.49646,-8.25545 -16.00216,-7.17751 -2.68998,0.83515 -2.30574,1.91869 -3.90321,2.70529 -1.60719,0.76232 -3.34029,0.25029 -7.30728,-1.86675 -3.97184,-2.10245 -6.91503,-3.51978 -14.66448,-10.87108 -6.04516,-5.75383 7.74652,-0.579 7.74652,-0.579 0,0 3.00723,1.26994 1.6671,-1.86675 -1.34499,-3.13668 -8.1351,-11.33008 -14.53471,-17.9288 -5.18573,-5.32653 -8.13434,-9.03496 -11.82941,-14.41491 l -2.38585,-0.72873 2.43576,0.74869 c 17.47027,2.52003 26.97306,2.72526 26.97306,2.72526 0,0 22.86833,0.79861 29.04945,0.79861 6.17626,0 5.02126,3.23437 5.02126,3.23437 0,0 -0.3452,1.741 -1.08811,3.13455 -0.75261,1.39354 -2.54391,6.62653 -0.69878,9.41362 0,0 2.84131,6.93666 21.27298,7.42707 0,0 16.13232,1.29287 27.39233,-3.34418 11.26002,-4.6322 1.09809,-11.05077 1.09809,-11.05077 0,0 -3.84899,-2.33103 -5.48046,-3.58376 -1.49551,-1.14106 -0.89487,-2.34334 -0.58897,-3.14453 0.29133,-0.7866 1.44366,-1.74006 2.73523,-2.38585 1.29158,-0.65064 6.01069,-3.18457 26.04468,-8.36544 20.02429,-5.19058 31.98432,-5.74001 31.98435,-5.74001 0,0 0.0975,-0.0128 0.19963,-0.0199 z m 161.53889,15.2235 c 0.19003,0.0653 -0.0235,0.51859 -1.19792,1.81684 -3.13183,3.46201 -4.70182,4.89149 -4.70182,4.89149 0,0 -2.59701,2.61377 -2.3559,3.59375 -10.41498,9.97838 -21.69548,19.04329 -33.74128,27.07289 0.70295,-0.82842 1.3127,-1.70341 1.01823,-1.93663 -0.62151,-0.4807 -3.03472,1.23785 -3.03472,1.23785 0,0 -1.96445,1.56806 -3.78342,2.41579 -0.0946,0.044 -0.18615,0.0904 -0.27953,0.12977 0.0337,-0.0123 0.0661,-0.0174 0.0998,-0.0302 -0.0543,0.024 -0.0958,0.0373 -0.14975,0.0599 0.0174,-0.007 0.0322,-0.0225 0.0501,-0.0302 -0.12103,0.0445 -0.23741,0.0604 -0.35936,0.0998 -0.45903,0.16294 -0.92229,0.33253 -1.28776,0.30948 -0.24038,-0.0169 -0.3815,-0.0953 -0.44922,-0.21963 -0.20311,-0.3728 0.28116,-1.16095 0.89844,-1.93663 0.82562,-1.03186 1.88672,-2.04644 1.88672,-2.04644 0,0 4.39499,-4.94261 8.59504,-5.70007 1.0488,-0.18937 1.88217,-0.40077 2.57552,-0.62891 2.08004,-0.6845 2.89456,-1.55805 4.44227,-2.74523 2.06361,-1.58291 2.40359,-3.30318 6.6085,-10.94096 0.1519,-0.28003 0.31674,-0.55943 0.4692,-0.84852 l 0.0102,-0.0102 c 5.36053,-2.99587 7.26299,-3.91926 8.53515,-4.67187 5.74413,-3.41831 12.59354,-7.59164 14.39495,-9.01431 0,0 1.44024,-0.97728 1.75694,-0.86849 z m -27.94138,16.58115 c -0.11694,0.18569 0.92506,-2.57525 0.8186,-2.39585 -2.67592,4.32725 -3.89323,6.94791 -3.89323,6.94791 0,0 -1.36656,2.67774 -1.50737,4.19271 -0.13115,1.51978 -1.22786,1.30772 -1.22786,1.30772 0,0 -2.17542,10e-4 -5.2309,1.19791 -0.31408,0.0977 -0.27048,0.0429 -0.70877,0.18968 0,0 -0.34817,0.19678 -0.4692,0.25954 -1.12595,0.53796 -2.3322,1.26118 -3.61371,2.21614 -0.1798,0.1216 -0.28233,0.16908 -0.4692,0.29946 -0.13595,0.10683 -0.25821,0.20266 -0.38931,0.30948 -0.85713,0.69918 -1.44585,1.27249 -2.17621,1.91667 -0.61292,0.53927 -1.2916,1.10577 -1.81684,1.59722 -0.88835,0.83305 -1.53987,1.47839 -2.17621,2.13628 -0.23092,0.23716 -0.38957,0.3774 -0.58898,0.58897 -0.20015,0.21273 -0.53021,0.53375 -0.69879,0.71875 -0.11408,0.14092 -0.22013,0.29246 -0.32941,0.43925 -0.31136,0.36473 -1.00824,1.13802 -1.00824,1.13802 0,0 -2.06552,2.74523 -0.0699,2.74523 1.99078,0 6.66359,-2.41015 8.45529,-3.99306 1.78684,-1.58776 0.89843,-0.2695 0.89843,-0.2695 -0.57109,0.64072 -1.36284,1.35031 -2.0664,2.03645 -21.28034,13.56123 -44.80172,23.88976 -69.8784,30.38712 -2.59611,-0.16498 -4.5043,-0.50819 -5.41058,-0.6289 -2.09275,-0.28163 -3.78216,-0.69817 -4.27257,-1.74696 -0.48555,-1.04395 2.31597,-0.98828 2.31597,-0.98828 0,0 8.17766,-0.90184 15.74261,-3.34418 7.56009,-2.45691 9.37067,-4.77066 9.08419,-6.51866 -0.27677,-1.74315 -4.11042,-1.61101 -8.66492,-0.13974 -4.5448,1.47609 -11.34001,3.64345 -12.93749,3.99305 -0.64062,0.13468 -1.26775,0.14276 -1.86675,0.11981 -0.25811,-0.0112 -0.53041,-6.1e-4 -0.75868,-0.0501 -0.18109,-0.0388 -0.35364,-0.0839 -0.50912,-0.14976 -0.0674,-0.0286 -0.1381,-0.0558 -0.19964,-0.0899 -0.24088,-0.13273 -0.45422,-0.29583 -0.58898,-0.51909 l -0.0102,-0.0102 c -0.0763,-0.13575 -0.13135,-0.31122 -0.19964,-0.4692 -0.0558,-0.12865 -0.12635,-0.23721 -0.16969,-0.37935 -0.0968,-0.31684 -0.15313,-0.6631 -0.13973,-1.03819 0.0261,-0.75227 0.34147,-1.6052 1.21787,-2.51563 0.44135,-0.45724 0.78083,-0.89489 1.04818,-1.29774 0.26562,-0.40147 0.45392,-0.76103 0.58897,-1.06814 0.27253,-0.61404 0.32941,-0.99826 0.32941,-0.99826 0.0348,-0.1655 0.0261,-0.34101 0.0501,-0.50912 0.17317,-1.08171 0.19908,-2.2074 0.0501,-3.36414 0.32532,-0.068 0.49915,-0.0998 0.49915,-0.0998 0,0 11.18732,-2.61775 15.89235,-3.41406 4.69046,-0.81574 15.31523,-3.09582 19.84546,-5.28081 4.50596,-2.18015 6.77803,-3.90021 7.30729,-5.22092 0.51954,-1.32071 -1.90669,-2.08637 -1.90669,-2.08637 0,0 -2.8493,-0.67144 -2.46571,-1.65711 0.37388,-0.99541 1.42265,-1.84769 5.88975,-3.84332 4.46226,-1.99563 10.05459,-4.17136 15.66275,-5.55034 5.6033,-1.36926 3.5638,0.94835 3.5638,0.94835 0,0 -3.36639,3.41618 -3.80339,4.74175 -0.42243,1.33042 0.14685,1.38412 0.579,1.61718 0.42728,0.24278 3.13595,0.14158 4.97135,-0.32941 1.85967,-0.47584 16.81101,-6.17046 25.92488,-11.39017 0.22821,-0.12625 0.4552,-0.26307 0.66884,-0.38932 z m -98.68826,33.5616 c 0.46613,3.18524 -0.50922,4.25578 -1.22787,5.44053 -0.76717,1.25759 -2.86563,2.87551 -1.81684,5.74999 1.0488,2.86478 8.17624,1.95152 12.2986,0.69879 4.13208,-1.26244 7.6283,-2.38333 10.36197,-3.36415 2.72882,-0.97111 3.49392,0.4093 3.49392,0.4093 0,0 1.18642,0.84242 -2.79513,2.94488 -3.99128,2.09759 -11.34305,3.07634 -14.83419,3.49392 -3.50571,0.42243 -2.45261,-0.20879 -7.69661,1.6072 -5.2537,1.82569 -0.33943,3.43402 -0.33943,3.43402 2.79856,0.72926 5.39614,1.12879 7.7565,1.33768 -18.08276,4.25065 -36.92819,6.52863 -56.312,6.52863 -9.86131,0 -19.57323,-0.61535 -29.12931,-1.74696 0.53036,-0.42493 -1.07812,-1.07812 -1.07812,-1.07812 0,0 -4.35334,-2.0579 -14.0256,-2.82508 0,0 -3.89841,-0.26542 -7.2973,0.0599 -0.23327,0.0225 -0.45611,-0.0256 -0.6888,-0.0199 -2.38249,-0.51693 -4.75157,-1.06149 -7.10763,-1.64713 -1.2451,-0.45172 -3.79549,-1.47498 -2.83507,-2.74523 0.61181,-0.80116 0.65905,-1.62973 0.30948,-2.43576 5.35637,0.33785 12.41839,0.69878 12.41839,0.69878 0,0 14.45139,0.54139 22.36109,-0.0899 3.55911,-0.30104 2.45572,1.5573 2.45572,1.5573 0,0 -1.0311,1.71581 1.00825,2.56553 0,0 3.74328,2.1328 16.23175,0.75868 12.48848,-1.38869 15.23349,-4.18272 15.2335,-4.18272 0,0 1.44907,-1.3394 -1.70704,-1.93663 -2.48118,-0.4807 -2.47599,-0.23884 -5.70008,-0.56901 -3.22894,-0.32532 -4.84659,-1.0043 -2.70529,-1.57726 2.1413,-0.56324 5.70008,-0.84852 5.70008,-0.84852 0,0 10.91312,-1.51642 19.73566,-3.80338 0,0 9.41015,-2.21808 18.74737,-5.50043 3.67565,-1.28186 6.78025,-2.23002 9.17404,-2.90495 z M 171.04092,439.8333 c 6.33384,0.82435 14.2886,1.74105 17.0104,2.0165 -0.0271,0.43097 -0.16034,0.88972 -0.41927,1.48741 -0.49567,1.14787 0.48357,1.87861 1.46744,2.37586 -6.13091,-1.70667 -12.13154,-3.71861 -18.05857,-5.87977 z m 39.50126,10.38193 c 1.53683,-0.0548 2.83561,-0.0261 4.37239,0.2895 3.06871,0.64093 6.21303,1.41488 6.52864,1.67708 0.12231,0.0982 -0.20307,0.11618 -0.48914,0.13974 -4.13093,-0.57371 -8.22632,-1.2596 -12.28861,-2.03646 0.56273,-0.0297 1.38034,-0.0522 1.87674,-0.0699 z" style="fill:#000000"/><path id="path4837" d="m 88.836703,44.67796 h 0.568099 c -0.776888,2.33552 -3.831029,5.54018 -5.185727,7.68633 -0.757466,1.20418 -1.223599,2.77738 -2.301531,3.64652 0.184511,0.20879 -0.01431,0.0143 0.194222,0.19422 0.427288,0.25249 3.947562,-0.67492 4.612773,-1.14591 0.398155,0.0728 0.369021,0.0534 0.582666,0.18937 0.203933,0.33989 -2.33552,4.81185 -2.889053,5.38481 v 0.19422 c 0.951688,-0.11168 2.437486,-0.27191 3.078419,-0.77689 1.859676,-1.45181 2.282109,-4.54965 3.641663,-6.53557 -0.06312,-0.32047 -0.126244,-0.64093 -0.194222,-0.95169 -1.077932,-0.19422 -3.30663,0.0971 -4.224329,0.76232 h -0.189366 c 0.441855,-2.29667 4.214617,-6.53557 5.56446,-8.45351 2.20442,-3.14154 4.27774,-6.16169 6.530716,-9.22555 1.179898,-1.60718 2.840497,-3.02015 4.034957,-4.60791 1.34014,-1.78199 2.76282,-4.12722 4.60792,-5.3751 v -0.38359 h -0.76717 c -0.90313,0.6555 -3.2775,1.05851 -4.40884,1.71887 0.15537,0.6555 0.0923,0.49041 0.57295,0.76718 -0.67492,1.87424 -2.903619,3.26778 -4.039817,4.81185 -1.80141,2.42777 -3.806752,4.70017 -5.569317,7.10852 -0.597232,0.79631 -0.995388,2.04419 -1.728576,2.68512 -1.150765,1.00996 -4.433117,0.89828 -5.753827,1.9228 h -0.388444 c 0.271911,-1.61204 4.403984,-6.75893 5.569316,-7.8757 v -0.19423 c -1.981064,0.27677 -3.515418,1.32557 -4.802139,2.29668 0.213644,0.44185 0.179655,0.35445 0.582666,0.58267 -0.704055,1.15562 -1.752854,2.01505 -2.500608,3.07356 -0.956544,1.33528 -1.480943,2.92304 -2.495753,4.22918 0.06798,0.19423 0.135955,0.37388 0.194222,0.57296 1.223598,-0.10682 6.336493,-1.72858 7.10367,-2.30153 z M 257.69818,70.63087 c 0.9614,0.32047 1.9228,0.63608 2.89391,0.95655 0.77203,0.01 1.58776,-0.01 2.0976,-0.19422 -0.0435,-3.17553 -1.76742,-4.43312 -2.87934,-6.53072 -0.54868,-1.06822 -0.84973,-2.53945 -1.72372,-3.26779 0.33503,-1.17504 3.52027,-1.4955 4.79728,-1.92279 3.11726,-1.02452 6.65696,-2.04905 9.80336,-3.07357 1.47608,-0.4807 3.22894,-0.37387 4.4234,-1.14591 0.6992,0.0728 1.05851,0.14081 1.34499,0.57296 0.68949,1.02938 1.26244,8.0942 0.75747,10.18209 -1.93251,8.07478 -4.35058,14.38699 -9.41006,19.21827 v 0.18936 c 1.87424,-0.30104 2.76766,-2.11702 4.03011,-3.06871 5.10318,-3.8553 8.56033,-9.57514 10.38116,-16.72251 1.06822,-4.20005 -0.67492,-8.31756 0.9614,-11.90581 h -0.18936 c -0.35446,-0.91284 -5.25371,-2.68512 -6.7298,-2.69483 -0.79631,0.85943 -1.94222,2.01991 -3.07842,2.50061 -1.74314,0.73804 -4.06895,0.52925 -5.56446,1.5295 -1.39354,-0.11654 -2.45205,-2.76767 -1.53435,-3.84074 -0.0486,-0.437 -0.0388,-0.54383 -0.19422,-0.76718 -1.16048,-0.92741 -4.12237,-0.8303 -6.15199,-0.76718 -0.64578,0.60695 -1.21874,0.72833 -1.52949,1.73829 h -0.18937 c -0.10197,0.36902 0.0874,0.24278 0.18937,0.37873 0.12624,0.0777 0.79145,-0.0342 1.15562,0.19422 2.17528,0.22821 2.12673,2.74825 3.26778,4.03497 -0.1311,0.33503 -0.0485,0.19422 -0.20393,0.38844 -0.75261,0.59723 -6.31222,2.19956 -7.49212,2.50061 -0.89827,0.22335 -2.01019,-0.33018 -2.68511,-0.3933 -1.63147,-0.13596 -3.07357,0.77689 -4.03497,1.34499 0.51955,0.76232 2.10731,0.57295 2.68998,1.34013 2.03933,2.71425 2.95217,6.21025 4.79728,9.22554 z m 38.21804,-2.70454 c 0.89828,0.45157 0.89828,1.61205 1.34984,2.49576 0.89828,1.8014 2.12188,3.98155 2.68998,5.96261 v 1.53436 c 0.44185,1.22359 1.92279,1.37897 2.89391,2.11216 0.75746,-0.10197 1.02937,-0.29619 1.52464,-0.57296 -0.32532,-3.65622 -2.55402,-6.69094 -3.84074,-9.60913 -0.3933,-0.91284 -1.00996,-2.19471 -1.14591,-3.07356 -0.10197,-0.52926 0.29619,-0.82059 0,-1.34013 -0.24764,-0.59724 -0.35931,-0.41273 -0.76718,-0.77204 -0.28162,-0.19422 -0.15052,-0.0777 0,-0.37873 0.33989,-0.6992 1.03423,-1.39354 1.34013,-2.11702 0.64579,-1.51979 0.62151,-2.7968 1.9228,-3.64652 -0.19422,-1.99077 -3.09299,-2.21899 -5.3848,-2.11216 -0.26706,0.20393 -0.75747,0.31075 -1.16048,0.37387 0.23792,0.50013 0.3933,0.60209 0.9614,0.76233 0.55839,5.63729 -3.38918,10.8036 -5.96262,14.21705 -1.00995,1.3547 -2.69483,2.21413 -3.64166,3.66108 h -0.19422 v 0.18451 c 2.55887,-0.41757 8.11848,-5.71012 9.41491,-7.68148 z M 65.763127,115.76807 c -0.393299,0.0825 -0.369021,0.044 -0.568099,0.18937 -1.398399,0.71862 -3.75334,6.92401 -6.535571,5.19058 -1.417821,0.01 -1.54892,-0.26705 -2.311242,-0.77689 0.09711,-1.82568 3.199808,-5.16145 4.433118,-5.9529 0.150522,-2.93275 0.907988,-6.07915 0.572955,-8.83225 -0.199078,-0.068 -0.388444,-0.13595 -0.572955,-0.18936 -0.679777,-0.22336 -1.213888,0.81573 -1.733432,1.34013 -1.408109,1.41296 -3.146396,2.89876 -4.229184,4.60791 -1.636321,-0.0143 -6.865749,-0.0631 -7.880559,0.57781 h -0.57781 c 0.480699,-1.24302 4.175773,-5.32168 3.073563,-7.10852 -0.06312,-0.19908 -0.121388,-0.38844 -0.194222,-0.58267 -3.505707,0.01 -7.730036,6.2491 -8.837101,8.8371 -0.558389,1.29158 -0.558389,2.78224 -1.340132,3.84075 v 0.19422 c 2.621997,-0.32047 5.253705,-0.64579 7.875702,-0.96626 0.995388,-0.21364 2.364654,0.25249 3.073564,-0.18936 h 2.689975 c 0.44671,-0.57296 0.893421,-1.15562 1.344987,-1.72858 1.602332,-1.69459 3.729063,-3.4086 4.991506,-5.37024 h 0.577811 v 2.67541 c -1.471232,1.32557 -3.753341,3.37461 -4.418551,5.37995 v 1.53435 c -0.985677,4.27289 1.082787,6.45303 4.806995,6.15199 2.427775,-2.26269 6.428748,-4.11751 5.952904,-8.63803 -0.203933,-0.16994 -0.01431,0.0245 -0.194222,-0.18451 z m -22.277265,-3.45715 h -1.160476 c 0.529255,-2.11702 2.60743,-4.53994 5.190583,-4.61277 v 0.95654 c -0.898277,1.16048 -1.791698,2.30639 -2.689975,3.46201 -0.548677,-0.01 -1.043943,-0.01 -1.340132,0.19422 z m 413.814288,0.95654 c -0.79631,-1.9665 -1.42753,-3.5057 -2.30639,-5.18573 -1.45181,-2.78708 -2.97645,-6.86574 -7.10852,-6.91915 -1.02453,0.86914 -2.10246,1.56348 -2.69483,2.87934 -3.77277,8.55548 3.9864,18.19374 7.49211,22.86964 1.24302,1.64603 2.70454,3.45715 4.61277,4.40884 -0.44185,6.68124 -6.15198,8.80311 -12.29425,6.15198 -4.36514,-1.87424 -7.84657,-6.00631 -10.57053,-9.60913 -0.9177,-1.20904 -2.34038,-2.21899 -3.26293,-3.46201 -0.85458,-1.16048 -1.47124,-2.46176 -2.49576,-3.46201 v -0.18936 h -0.38359 c 0.52926,2.06846 1.71887,3.95727 2.49576,5.76839 3.24836,7.46784 7.37558,12.69241 13.64409,17.09639 2.95703,2.07818 7.87085,5.36053 12.10489,2.30639 7.40957,-5.3314 3.8019,-25.19545 0.76718,-32.65358 z m -0.5681,9.2304 c -0.50498,0.48556 -2.61229,-2.03447 -3.07842,-2.5006 -2.14615,-2.15101 -6.45303,-5.92863 -4.03011,-9.60914 h 0.95655 c 1.88395,1.95679 3.62224,3.82617 4.80699,6.52586 0.62637,1.45181 0.73805,3.90872 1.5295,5.19058 -0.11653,0.33989 -0.0337,0.19423 -0.18451,0.3933 z m -127.38051,38.41712 v -1.91794 c 0.86914,-3.8893 0.66521,-8.57005 1.52464,-12.48848 1.1799,-5.28284 -0.4807,-10.42972 4.81671,-11.7213 0.10196,-0.51469 0.26705,-0.71862 0,-1.15562 -0.12625,-0.32532 -0.0435,-0.18937 -0.19422,-0.38359 -0.20879,-0.15052 -0.18451,-0.11653 -0.57296,-0.18936 -1.47123,1.07793 -5.48192,1.81112 -7.48726,2.30153 -1.51493,0.36902 -3.09784,0.0486 -4.22918,0.76717 -0.19422,0.0631 -0.38359,0.1311 -0.57781,0.19423 0.0631,0.38358 0.12624,0.77203 0.19422,1.15076 2.18985,0.71377 4.20976,-0.15052 5.19058,1.72858 0.63122,1.2236 0.54382,5.61787 0.18937,7.30275 -1.21874,5.647 -0.6992,12.09517 -1.92765,17.6742 -0.41758,1.92765 0.11653,5.68585 -0.76233,7.10367 v 0.38844 c -1.17018,-0.55839 -1.92765,-2.06846 -2.68997,-3.07356 -1.71401,-2.26754 -4.24861,-4.07866 -5.96262,-6.33649 -1.03423,-1.36441 -2.11702,-2.99588 -3.45715,-4.04468 0.17966,-3.69507 1.25759,-7.57466 2.11702,-10.94441 0.63608,-2.5346 0.6555,-4.87983 1.91794,-6.72979 0.71863,-1.05366 2.45206,-1.72372 3.64652,-2.30639 -0.01,-0.48555 -0.0194,-0.70891 -0.19422,-0.9614 -0.0631,-0.19422 -0.11168,-0.38358 -0.17965,-0.57781 -2.63657,0.3933 -4.87012,1.65575 -7.30761,2.30639 -2.20442,0.59723 -4.4234,0.44671 -6.15684,1.34013 0.0534,0.44186 0.0486,0.54382 0.19423,0.76718 0.068,0.18936 0.12624,0.38844 0.19422,0.57295 6.74921,-0.37873 5.72469,3.29207 4.4234,8.45837 -0.40301,1.58291 -0.13595,3.76305 -0.96139,4.99151 v 0.38359 h -0.19423 c -1.37897,-2.10246 -3.462,-4.13693 -5.18087,-5.95776 -0.70405,-0.64094 -1.41296,-1.28187 -2.11216,-1.91795 -0.50498,-0.66521 -0.77689,-1.51493 -1.34985,-2.11702 0.12139,-2.12187 1.84511,-2.66569 3.46201,-3.26293 -0.0728,-0.88856 -0.25249,-1.00024 -0.57295,-1.53921 -5.00608,0.73319 -9.35665,3.54456 -14.98423,3.84074 v 0.19908 h -0.19422 c 0.0194,0.48556 0.0194,0.70891 0.19422,0.95655 v 0.38358 c 1.10221,0.18937 2.73853,-0.2622 4.03496,0.19423 2.07332,0.72833 3.933,3.14639 5.18087,4.80699 1.88396,2.4909 4.83613,4.60792 6.72008,7.10367 0.99539,1.33042 2.10731,3.07842 3.46201,4.03982 -0.18451,3.37946 -1.11192,6.93373 -1.9228,9.99272 -0.41757,1.56835 -0.16994,3.56883 -0.95654,4.79729 -0.12139,0.33503 -0.0434,0.18936 -0.19908,0.38844 -1.82568,-3.48629 -5.36053,-6.14227 -7.68148,-9.22555 -4.45254,-5.92377 -9.4052,-11.26002 -14.02283,-17.09639 0,-0.81088 0.0486,-1.30129 0.38845,-1.72857 0.35931,-1.11193 1.74799,-2.15101 3.0687,-2.31125 0.0728,-0.58266 0.16509,-0.6555 -0.18936,-1.15562 -0.068,-0.18451 -0.12625,-0.37388 -0.19908,-0.57295 -3.89901,0.59723 -7.38044,2.41321 -11.13378,3.46686 -1.94707,0.54382 -4.50109,0.27677 -5.95776,1.34013 -0.19422,0.0631 -0.38844,0.12625 -0.57781,0.19422 0.10682,0.73805 0.29619,0.85458 0.57781,1.34499 1.53436,-0.0245 3.13183,-0.44671 4.60792,0 3.85045,1.17019 6.61811,5.52076 8.8371,8.45837 0.97111,1.29158 2.48119,2.34523 3.46201,3.64652 4.11265,5.48192 8.76912,10.42001 12.86721,15.95048 1.59262,2.14616 3.73877,4.00583 5.17601,6.33164 0.86915,-0.0194 1.0488,-0.12139 1.53436,-0.38359 1.03909,-4.5108 1.6169,-9.06046 2.89391,-13.6441 0.57781,-2.09759 1.30614,-4.57392 1.52949,-6.9143 1.59263,0.5681 2.87449,2.94732 3.8456,4.22919 3.01044,3.9864 7.24934,7.29303 9.98787,11.52222 0.80116,-0.0343 0.88371,-0.12625 1.34499,-0.37874 0.84486,-6.51615 1.67516,-13.05172 2.50546,-19.58243 z M 26.384614,193.76763 c -0.06312,11.97865 -0.689489,30.43945 8.647735,33.04688 3.398885,0.93712 5.277983,-1.31586 6.341349,-2.88905 3.816462,-5.681 2.743386,-16.73223 -0.966255,-21.51009 -1.646031,0.16509 -4.005829,4.07866 -4.797284,5.37024 -0.398155,-0.0777 -0.364166,-0.0534 -0.57781,-0.19423 -0.441855,-0.19907 -0.412722,-0.32046 -0.772033,-0.57295 -0.291333,-4.53023 0.616655,-8.7497 0.772033,-13.06629 5.069194,0.49527 9.424623,3.37947 14.60064,3.64652 -0.0049,-0.89827 0,-2.10731 0.373877,-2.68026 -0.04344,-0.44671 -0.03424,-0.54382 -0.194222,-0.77689 -0.704055,-0.55839 -4.607917,-1.4858 -5.758682,-1.5295 v -0.19422 h -0.194223 c 0.708911,-5.70042 -0.903132,-10.10926 -4.806994,-11.7213 -2.180143,-0.38844 -4.355429,-0.77689 -6.535571,-1.16048 -1.111921,-0.40301 -1.655743,-1.29157 -2.495753,-1.91794 -0.281622,-1.84511 -0.645788,-3.91357 0.772032,-4.99636 -0.101966,-0.68949 -0.155377,-0.81573 -0.57781,-1.15562 v -0.18937 h -0.194222 c -0.645788,1.10707 -1.18961,2.39379 -1.529499,3.8456 -1.136198,4.77301 1.500366,8.82739 4.413696,9.7985 1.927653,0.31561 3.845596,0.64093 5.768394,0.95654 1.524642,0.59238 2.199564,1.84026 3.258074,2.88906 -0.0437,2.48604 -2.427775,2.75795 -4.418551,2.11216 -3.107552,-1.00995 -6.414182,-1.71401 -9.599423,-2.87449 -0.835155,-0.31075 -1.616898,-0.82544 -2.694831,-0.96625 -0.131099,1.21389 -0.262199,2.43263 -0.388444,3.64652 2.689975,0.8303 5.384806,1.66545 8.069925,2.50061 -0.111677,6.78806 -2.787086,14.92596 0.577811,20.1651 0.407866,0.10196 0.694343,0.17965 0.961399,0.38844 3.787329,-0.2622 4.578784,-3.30177 6.530715,-5.37995 1.660598,3.98155 0.417577,10.93956 -3.258074,11.91067 -1.58291,1.08764 -3.899007,-0.32047 -4.80214,-1.15077 -3.146396,-2.90847 -3.811607,-7.33674 -4.98665,-12.29425 -0.403011,-1.67031 0.160233,-5.05949 -0.572955,-6.34621 0.02913,-1.96164 0.446711,-5.50619 -0.582666,-6.52586 v -0.18936 h -0.383588 z m 461.466656,32.28456 c -0.69434,-3.2338 0.2622,-7.17651 -0.38844,-10.18209 v -3.07357 c -0.47099,-2.19956 -0.28648,-5.12746 -0.75747,-7.29303 -0.92741,-4.2826 -0.11653,-9.35179 -1.73343,-12.87692 -0.95654,-0.22821 -1.89852,-0.40787 -3.25807,-0.38845 -0.49041,0.50498 -0.85944,0.76718 -0.77204,1.34985 0.40301,1.74314 2.65599,2.0976 3.26779,3.84559 0.0631,0.83516 0.12624,1.66546 0.19422,2.49576 0.63608,2.72396 0.53897,6.24423 1.14591,9.03132 v 2.30639 c 0.31076,1.40325 0.7866,5.03035 0.38844,6.15198 -0.67492,1.99077 -2.84049,3.78733 -4.22432,5.18573 -3.66109,3.66594 -7.9534,8.32727 -14.41613,9.02646 -0.12625,0.33018 -0.0435,0.18937 -0.19423,0.38845 0.10683,2.39864 2.30154,1.9228 3.85046,2.8842 0.38358,-0.068 0.76717,-0.13596 1.14591,-0.20394 0.59237,-0.35931 0.92741,-1.17504 1.34013,-1.72857 0.97111,-1.2673 2.73853,-1.93737 3.64652,-3.25808 h 0.19422 c 0.01,5.85094 0.14081,12.43507 0.19422,18.05294 h 0.57296 c 1.32556,-5.68585 1.21874,-12.67299 1.15562,-19.60186 2.52974,-2.3598 4.13693,-5.7781 6.72008,-8.06021 v -0.38359 h 0.20393 c 0.0291,6.07429 0.17966,12.27969 0.17966,18.43652 0,1.97621 -0.49041,6.69095 0,7.49697 v 1.15077 h 0.38358 c 0.5244,-2.06361 0.65065,-4.96723 1.15563,-7.28818 v -3.26779 c 0.56324,-2.60257 0.55838,-7.59893 0.005,-10.19665 z m -344.85576,12.28454 c -1.68487,-0.6992 -3.7679,-2.23841 -4.80214,-3.64652 -3.09298,-4.2486 -6.49187,-14.31416 -4.22432,-21.89853 1.84025,-6.14713 5.83637,-10.32776 12.29425,-11.91552 3.26779,-0.79146 6.7832,0.30104 8.84196,1.34984 5.8655,3.02015 8.37582,7.31246 10.17723,14.40642 2.33066,9.16242 -0.64093,17.57224 -6.72494,20.36418 0.37874,3.70964 0.76718,7.42413 1.15077,11.13863 2.15586,-0.0583 4.13693,-0.51469 5.95776,-0.9614 3.05414,-0.76232 6.1714,-0.85458 9.03132,-1.53921 2.09275,-0.50012 5.10804,-0.068 6.72008,-1.15562 0.38359,-0.82059 -1.19932,-6.55014 -1.52949,-7.88056 -0.27677,-1.10706 -0.0435,-2.23841 -0.57781,-3.0687 v -0.38359 c -0.44186,0.0583 -0.89828,0.12139 -1.34499,0.18936 0.0874,5.80239 -4.04953,5.01093 -8.64774,6.14227 -2.29667,0.57781 -5.09347,1.311 -7.67662,1.34985 0,-0.82545 0,-1.66546 -0.005,-2.49576 0.2185,-0.40301 3.58825,-1.86453 4.21462,-2.30638 2.23841,-1.54892 4.52052,-4.00583 5.96747,-6.32678 0.98082,-1.58777 1.77713,-3.70964 2.29668,-5.57903 0.67006,-2.37437 0.74775,-5.681 0.19907,-8.06993 -0.38358,-1.64117 -0.23306,-2.92789 -0.76717,-4.41855 -2.07332,-5.76354 -6.41904,-9.9733 -11.91067,-12.29425 -2.4909,-1.0488 -5.30711,-1.08764 -8.25443,-1.72858 -2.61715,-0.56324 -7.32703,0.60209 -9.2304,1.15562 -9.24983,2.72882 -15.52805,7.18622 -18.44624,16.135 -1.14591,3.53484 -0.79146,8.42923 0.19422,11.7213 2.26754,7.57951 8.60889,14.66376 18.06265,14.79486 v 0.18937 c 0.30104,0.42728 0.29133,1.28186 0.57295,1.72857 -0.11653,0.33018 -0.0434,0.18937 -0.19422,0.38845 -0.79631,0.54382 -1.96164,0.29133 -3.07356,0.56809 -2.28211,0.57782 -9.64312,2.36466 -11.33286,0.77204 -1.07793,-0.35446 -1.79655,-1.76742 -1.92279,-3.06871 -0.4807,0.0194 -0.70891,0.0194 -0.95655,0.18937 h -0.39815 c 0.70891,3.71449 1.41296,7.4387 2.11216,11.14834 h 0.19908 v 0.19422 c 6.72494,-1.16047 13.44987,-2.3161 20.16996,-3.46201 -0.9614,-3.52513 -1.91795,-7.0454 -2.87935,-10.57053 -0.54382,-0.84001 -2.27239,-0.73804 -3.26293,-1.15562 z m 328.72077,-21.32072 c 0.41757,1.05851 1.23331,2.81622 2.10731,3.45715 0.41757,0.3059 0.64093,0.19422 0.96625,0.57781 6.35592,0.54868 8.93907,-10.40544 6.34621,-16.7128 -0.45157,-1.0925 -2.50061,-4.29717 -4.42341,-3.07357 h -0.38845 c 0.12625,-0.33503 0.0389,-0.18451 0.19423,-0.38844 -0.005,-0.91284 -0.10197,-1.21389 -0.37874,-1.72858 -0.38844,-0.0631 -0.75746,-0.12624 -1.16047,-0.18451 -0.18937,0.15052 -0.0435,0.068 -0.37874,0.18451 0.1311,1.16533 0.53897,1.19932 0.57781,2.49576 -3.08813,2.83078 -5.7344,9.61884 -3.462,15.37267 z m 2.10245,-10.18209 c 0.42729,-1.03423 1.28672,-1.69944 1.9228,-2.50061 0.39815,-0.0728 0.36416,-0.0486 0.5681,-0.19422 1.45666,-0.005 1.86453,0.27676 2.68997,0.77203 1.46638,3.4523 1.68002,9.48775 -0.75261,12.10974 -0.38359,0.41273 -1.11677,0.56325 -1.53921,0.95655 -4.01554,-0.3059 -4.34086,-7.64749 -2.88905,-11.14349 z m -89.12363,75.66404 c -2.15586,-1.33042 -2.45691,-8.13305 -3.26293,-11.13863 -1.58776,-5.8995 -2.34523,-12.08547 -4.03496,-18.06265 -1.08279,-3.82617 -2.54431,-7.79801 -2.11216,-12.48847 0.67492,-0.67007 1.12163,-1.55378 1.92279,-2.11217 1.08279,-0.75261 2.81622,-1.10706 3.64652,-2.11216 0.13596,-0.24764 -0.0874,-0.62151 -0.19422,-1.15562 -2.2287,0.34959 -4.26803,1.69944 -6.15198,2.5006 -3.8456,1.63632 -7.6135,2.60258 -11.52222,4.22433 -1.2236,0.50984 -2.50061,1.37412 -4.04468,1.53921 v 1.15562 c 0.1311,0.0631 0.2622,0.12625 0.38845,0.19423 0.20393,0.21849 5.01578,-1.90338 6.53557,-0.57296 1.72857,0.60694 1.51007,2.86477 2.49575,4.23404 -0.29619,2.98131 -3.26778,7.56495 -4.42826,10.18209 -2.81622,6.4336 -5.68099,12.58559 -8.82739,18.62589 -1.20418,2.30639 -2.63657,6.47731 -4.22919,8.25929 v 0.18937 c -1.04879,-1.43724 -0.97596,-5.10318 -1.53435,-7.09882 -1.7043,-5.9966 -2.80165,-12.58073 -4.61277,-18.44138 -0.33504,-1.12163 -1.4858,-6.21025 -0.76232,-7.29789 0.24763,-2.65113 3.99611,-3.81161 6.14712,-4.61277 -0.0583,-0.44671 -0.12624,-0.89828 -0.18936,-1.34499 -3.4086,0.50983 -6.93859,2.32095 -9.99273,3.45715 -2.88905,1.07793 -5.53532,1.52465 -8.45351,2.50061 -1.44695,0.48556 -3.08813,1.34499 -4.79243,1.53435 v 0.19908 h -0.19422 c 0.0631,0.54382 0.12139,0.8303 0.37873,1.15077 0.78175,0.51954 5.00122,-1.70916 6.72494,-0.37873 2.69969,0.92741 2.78223,5.22457 3.64652,8.06506 2.34037,7.66692 3.52998,16.15442 5.76354,24.02041 0.55839,1.96164 1.88881,8.1816 0.57781,9.79365 -0.72834,2.13644 -4.29716,2.99102 -6.34135,3.84074 0.068,0.3933 0.12139,0.77689 0.18451,1.15562 2.95217,-0.437 5.63729,-1.81112 8.28357,-2.71911 5.16145,-1.71886 10.03642,-3.15611 14.99879,-4.99636 -0.0825,-0.44671 -0.13595,-0.90313 -0.19907,-1.34013 -2.12188,0.5681 -3.7582,1.20903 -6.72494,1.15076 -0.3933,-0.33018 -0.77203,-0.64579 -1.15077,-0.96625 -0.32532,-1.01967 -0.64093,-2.04904 -0.96625,-3.06871 0.20879,-2.42292 3.31148,-6.89974 4.41855,-9.03618 3.26779,-6.27823 6.1277,-12.61957 9.02161,-19.2037 1.10221,-2.51518 3.66109,-6.19568 4.03982,-9.02161 0.88371,0.54382 0.64093,2.12673 0.95654,3.26293 0.6555,2.30153 1.01967,4.76815 1.72858,7.29789 1.35955,4.85555 1.89366,10.07527 3.26293,15.17845 0.50983,1.86939 1.2673,5.08862 0.38844,7.10852 -0.86428,1.96165 -4.08351,3.25808 -6.15198,4.03011 0.0826,0.40787 0.18451,0.88371 0.38845,1.15562 0.0194,0.0342 4.40884,-1.3984 5.17601,-1.72857 5.36539,-2.27726 10.86672,-4.65648 16.32922,-6.72009 -0.0728,-0.45156 -0.12625,-0.89827 -0.18937,-1.34013 -1.35955,0.34475 -4.4671,2.11217 -6.34135,0.95169 z m 90.85706,16.16898 c -0.69434,0.63122 -1.72857,0.79146 -2.49575,1.34499 -2.43263,1.74314 -4.97694,4.67104 -6.72494,7.10367 -1.3984,1.95193 -2.59286,4.09323 -3.84074,6.15684 -0.54382,0.90313 -0.66521,1.95193 -1.34499,2.68026 v 0.38845 c 1.67517,-0.28162 2.66085,-1.36927 3.8456,-2.11217 3.19981,-1.98106 6.06458,-3.79218 9.02161,-5.94805 1.43239,-1.0488 2.50061,-2.67055 4.03011,-3.66108 0.14081,-2.28696 0.60694,-4.09323 -0.37388,-5.76354 -0.60209,-0.12624 -1.28186,-0.19908 -2.11702,-0.18937 z m -2.30153,6.90945 c -1.16048,0.85458 -2.28211,2.0539 -3.45715,2.88905 -1.00996,0.6992 -2.22384,1.07794 -3.07356,1.91795 h -0.19423 c 0.63123,-1.98107 3.97184,-5.37995 5.56446,-6.52586 0.82545,-0.60209 1.85968,-0.76232 2.69969,-1.3547 h 0.76232 c 0.1748,0.22335 0.16509,0.21364 0.38845,0.38844 -0.18451,1.45181 -1.74315,1.97136 -2.68998,2.68512 z m -415.168983,7.49212 c -0.806022,-2.43263 -1.349843,-4.807 -2.112165,-7.10853 -0.383588,-1.19447 -0.301044,-2.55402 -0.966254,-3.46201 v -0.57295 c 1.306143,0.47099 3.296918,0.42243 4.423406,1.15562 H 60.4026 c -0.2185,-1.00024 -0.417578,-2.67541 -0.975966,-3.46201 -0.582666,-0.94683 -4.302018,-0.95654 -5.370239,-1.71886 -1.514931,-1.18961 -2.947319,-4.60306 -4.039818,-6.34621 -2.719108,-4.30687 -6.321926,-8.89537 -10.376311,-11.91066 -2.151009,-1.59748 -3.646518,-3.25808 -7.49697,-3.26779 -0.44671,0.32047 -0.898276,0.64094 -1.340132,0.9614 -0.864288,3.83103 0.674922,10.91528 2.874486,12.6827 v 0.38359 c -0.917699,-0.24764 -1.908231,-0.7429 -2.495753,-1.34499 h -0.194222 c 0.03399,1.10221 0.247633,2.54431 0.767177,3.26293 0.223356,0.94683 1.75771,1.71886 2.689975,1.9228 1.204177,5.0352 2.874486,10.20151 4.612773,14.80457 1.403254,3.68536 2.11702,7.19107 3.641663,10.75019 0.75261,1.72858 2.534597,2.99102 3.078419,4.80214 h 0.568099 c -0.432144,-1.62176 -1.315854,-3.14154 -1.913087,-4.60792 -1.76742,-4.2486 -3.170674,-8.75456 -4.622484,-13.05657 -0.941976,-2.82593 -1.59262,-5.56446 -2.495752,-8.26415 -0.335033,-1.01967 -0.237922,-2.07332 -0.767177,-2.88905 v -0.18937 c 1.306143,0.23792 2.087886,0.9177 3.078419,1.34984 2.238408,0.97597 4.384562,1.34499 6.724937,2.30153 1.714009,0.70406 3.865018,1.68002 5.962616,1.91795 0.233066,1.74799 1.228454,6.31221 2.112164,7.49697 v 0.57295 c -2.923041,-2.00534 -2.859919,-4.85555 -8.07478,-4.41855 -0.2622,0.30104 -0.621511,0.5681 -0.956544,0.76718 -0.475844,1.18961 -0.504977,3.14154 0,4.41855 1.247877,3.14154 5.20515,9.6674 8.453514,10.57053 1.247876,0.89342 3.078419,-0.20879 3.641663,-1.16533 1.175043,0.62151 1.422676,3.31148 1.917942,4.62248 1.029377,2.70454 2.534597,6.25881 5.006072,7.49212 v 0.19422 h 0.403011 c -0.320466,-2.17043 -1.544065,-4.12236 -2.306386,-5.96747 -1.699443,-4.13693 -3.029864,-8.50207 -4.428262,-12.67784 z M 52.51233,297.51132 c -2.02962,-0.14081 -3.75334,-0.94197 -5.37995,-1.53435 -4.340862,-1.61204 -8.269002,-2.98616 -12.100031,-4.81185 -0.461277,-1.74314 -3.690218,-7.97767 -1.922798,-10.17238 0.126244,-0.19422 0.257344,-0.3933 0.383588,-0.58267 0.3933,-0.0825 0.373878,-0.0486 0.577811,-0.18936 5.918916,0.70891 11.857254,7.90969 14.790006,11.90581 1.14591,1.55863 2.087887,3.87958 3.651374,5.00121 z m 3.073564,16.70795 c -0.582666,0.71377 -1.150766,1.41297 -1.728576,2.11702 -0.509833,0.37388 -1.082788,0.52926 -1.534354,0.9614 -3.301774,-0.10197 -3.418308,-3.33091 -4.802139,-5.37995 0.02402,-1.88881 0.738043,-1.89366 1.529498,-2.88905 0.446711,-0.0291 0.543822,-0.0291 0.767177,-0.17966 2.981308,0.0194 3.656229,1.3547 5.384805,2.49576 0.281622,1.14105 0.461278,1.63146 0.383589,2.87448 z m 112.974096,29.58487 c -0.80117,-1.31585 -2.37922,-1.6606 -3.46201,-2.68997 -0.33503,-0.11168 -0.19422,-0.0342 -0.38359,-0.18937 2.47633,-1.27701 5.1129,-2.68998 7.68634,-3.83589 0.68949,0.76718 3.88929,3.8456 4.99636,3.25808 0.19422,-0.0583 0.38359,-0.11168 0.57295,-0.18451 -0.0631,-1.08765 -0.12138,-2.17529 -0.19422,-3.26779 -2.42292,-2.41806 -5.99175,-4.41855 -9.99758,-5.18087 v 0.18937 h -0.18936 c 0.45156,1.33042 1.93251,2.59772 3.08813,3.26778 v 0.57296 c -2.27726,0.33503 -4.29716,1.43724 -6.34621,2.11702 -1.40325,0.45156 -3.09784,0.38844 -4.23889,1.15076 h -0.5681 c 0.8303,-2.33066 3.57854,-4.22918 4.9915,-6.15198 2.7968,-3.77276 5.01579,-8.39039 9.41977,-10.56568 -0.11653,-1.77227 -5.22457,-5.43821 -7.10852,-4.22918 -0.47099,0.24763 -0.14082,-0.10197 -0.38359,0.37873 -0.28648,0.6992 0.66521,1.56349 0.38359,2.68998 -0.36903,1.48094 -4.03497,8.44865 -4.99637,9.22554 v 0.19908 c -1.98106,-0.67492 -3.48628,-2.53945 -5.37509,-3.46201 0.33503,-1.76742 1.82083,-3.11726 2.68997,-4.41855 2.19957,-3.3212 3.96213,-6.48216 7.2979,-8.65259 -0.0291,-2.55402 -4.1515,-5.21972 -6.91916,-5.17602 0.01,1.1799 0.60694,1.84026 0.38844,2.87934 -0.67978,3.12698 -2.11216,6.28794 -3.26293,9.03133 -0.75746,1.77227 -1.09735,3.87958 -2.31124,5.17601 -0.2622,0.14567 -2.38893,-0.0291 -2.8842,-0.37387 -0.72347,-0.01 -1.44695,0.0245 -1.91308,0.18451 v 0.38359 c 3.23379,3.13183 6.73464,4.2049 11.14348,6.15683 -0.61179,3.18039 -3.81646,5.30227 -5.37995,7.6912 -0.80602,0 -1.45666,-0.0534 -1.91794,-0.38845 -0.44185,0.0728 -0.47584,0.0923 -0.76717,0.19422 0.0777,2.83079 2.42777,5.23429 4.79242,5.76354 1.58777,-1.77713 3.57854,-2.63656 5.96262,-3.64652 2.18014,2.2724 2.80651,5.52077 3.64652,9.21584 0.36416,1.6169 -0.22821,3.38917 0.19422,4.80214 0.73804,2.49575 2.06846,3.23865 3.26293,4.98665 h 1.34499 c 0.84486,-4.51566 -1.22846,-8.89537 -2.30639,-12.48362 -0.31561,-1.5295 -0.63608,-3.07842 -0.95654,-4.61763 z m 303.53016,-32.46421 c -1.16047,0.98568 -2.76766,1.43724 -4.0301,2.30639 -1.94708,1.36926 -3.68051,3.19981 -5.56446,4.61277 -0.85944,0.65064 -2.10731,1.22845 -2.69483,2.11216 -0.97111,1.45667 -0.77689,3.90872 -1.9228,5.18573 v 0.76232 c 1.53435,-0.55353 2.25297,-2.34523 3.46201,-3.25807 1.48094,-1.12163 2.73853,-2.60743 4.22433,-3.66109 0.93712,-0.65064 1.99563,-1.00995 2.88419,-1.72857 0.60695,0.11168 0.55839,0.17965 0.96626,0.3933 -0.0923,4.87983 -2.6657,8.32241 -4.22919,11.91552 -0.45156,1.04394 -0.58752,2.67541 -1.34984,3.44744 -0.35446,0.36902 -1.11192,0.45642 -1.52464,0.76232 -1.28187,1.41782 -2.56373,2.82108 -3.85531,4.2389 -1.21389,1.67031 -1.77228,3.899 -3.06385,5.56446 -0.0143,0.55353 -0.0143,1.0488 0.17965,1.34013 0.19422,0.15538 0.53897,0.28648 0.77203,0.38844 2.47634,-2.34523 4.87498,-4.30201 6.91916,-7.11338 3.1901,-4.38942 4.78758,-9.93931 7.10853,-15.17359 1.45667,-3.30663 3.56397,-6.56471 3.4523,-11.33286 -0.22336,-0.21364 -0.40787,-0.48555 -0.5681,-0.76717 h -1.16534 z m -13.44987,30.36176 v 0.18936 h -0.19422 c 0.33503,-2.30638 2.08788,-2.94246 2.89391,-4.62248 h 0.38358 c -0.24763,1.90823 -1.69458,3.62224 -3.08327,4.43312 z m -287.20095,3.0687 c -0.38845,1.6606 3.69022,5.3751 4.98665,6.34621 0.64579,0.4807 1.51493,1.59748 2.50061,1.14591 0.50497,-0.0388 0.66035,-0.0923 0.96625,-0.19422 0.22336,-0.51469 0.55839,-1.16533 0.18937,-1.71887 -0.10197,-2.41806 -6.36563,-5.11775 -8.64288,-5.57903 z m 18.44623,14.7803 c 0.32533,0.16509 0.59238,0.10197 0.9614,-0.18937 0.67493,-0.55353 0.3059,-1.51493 0.77204,-2.30638 1.07793,-0.77203 2.98616,-0.57296 4.4234,-0.96626 3.92814,-1.03423 8.51178,-0.9614 12.86721,-1.9228 2.06361,-0.45156 5.47706,0.77689 7.10853,-0.18451 0.19422,-0.0728 0.3933,-0.1311 0.57295,-0.20393 -0.0923,-2.51032 -4.89925,-3.58825 -7.50182,-2.85992 -1.15077,0.32532 -2.4909,1.03909 -3.64652,1.34013 -0.89828,0.0631 -1.79656,0.1311 -2.69483,0.18451 -0.30105,-3.12211 -1.84511,-5.55474 -1.91794,-8.82253 2.88905,-0.0631 6.51129,-0.44186 8.4438,-1.53435 -0.0388,-0.98082 -0.2185,-0.98082 -0.57296,-1.53436 -2.19956,-0.52925 -5.97232,-0.6118 -7.68633,0.56325 -0.48556,-0.0194 -0.71377,-0.0194 -0.95655,-0.18937 -1.07307,-1.35956 -0.56324,-4.12722 -1.53435,-5.56446 v -0.76718 c 2.06846,-0.44671 5.44793,-0.81573 6.53071,-2.30638 0.15053,-0.19908 0.068,-0.0486 0.18937,-0.37874 -0.1748,-0.1748 -0.24763,-0.33503 -0.38359,-0.58266 -3.00558,-0.75747 -4.30687,-0.23793 -6.90945,0.77203 -0.81087,-2.60258 0.16509,-4.66133 -2.49575,-5.38481 0.5681,-0.98567 2.45691,-0.94197 3.64652,-1.34013 1.85482,-0.6118 3.96698,-1.43724 5.57417,-2.30153 0.12625,-0.33018 0.0343,-0.19422 0.19422,-0.38844 -0.10682,-0.97111 -0.37873,-0.93712 -0.77203,-1.53436 -2.77252,-0.21364 -4.98665,0.0534 -6.53557,1.53436 h -0.36902 c 0.22821,-1.43239 1.12163,-3.48143 1.91308,-4.60792 0.54383,-0.7866 1.54407,-0.67978 1.9228,-1.72858 h 0.19422 v -0.19422 c -0.39329,-0.50498 -0.77203,-1.01967 -1.15562,-1.52464 -0.90313,-0.63122 -2.20442,-0.69435 -3.0687,-1.3547 -1.27701,-0.0194 -2.50061,-0.0143 -3.26293,0.38359 0.10196,0.73804 0.43214,1.20417 0.57781,1.72857 0.52925,1.98592 -1.37898,8.10392 -2.11702,9.03133 -0.59724,0.75261 -7.53096,3.25807 -9.41492,2.68997 -0.44671,-0.14081 -1.74799,-0.79631 -2.11216,-1.16047 -0.15538,-0.18937 -0.0728,-0.0388 -0.19422,-0.37388 2.72396,-2.56373 4.6856,-8.26415 8.45351,-9.41491 0.068,-0.32047 0.1311,-0.64094 0.19908,-0.9614 -0.94198,-0.97111 -5.51105,-5.7684 -7.8757,-4.22919 -0.19423,0.068 -0.38359,0.11654 -0.5681,0.18451 0,1.64118 0.81573,2.87934 0.37873,4.61763 -0.88371,3.4523 -2.85021,7.54553 -4.61277,10.37631 -1.05851,1.69459 -3.3649,3.54456 -3.45716,5.96262 3.13669,-0.31561 3.89416,-3.55426 6.33164,-4.43312 0.70891,0.6555 1.40811,1.29643 2.11702,1.93251 1.0051,1.50522 0.81573,3.77762 1.34013,5.75383 0.89828,4.1612 1.80141,8.32727 2.68998,12.48847 0.12139,2.0539 0.25249,4.09323 0.38844,6.15199 0.50984,1.87424 2.03933,5.10318 4.02525,5.54989 z m 6.13256,-14.59093 c 0.15053,1.78684 1.25274,6.83176 2.11702,8.06993 0.005,0.12138 0.005,0.2622 0.005,0.38844 -2.3161,0.49527 -4.72445,1.16533 -7.30275,1.15562 -0.39815,-2.74338 -1.70915,-5.14688 -1.72372,-8.06992 2.94732,-0.0583 4.46711,-1.24788 6.90459,-1.54407 z m -11.13863,-15.93592 c 0.3059,-0.51954 5.40423,-1.33042 5.96262,-0.96625 2.03933,0.94683 1.311,3.94271 2.49575,5.76354 -0.40301,0.94683 -5.08376,2.37436 -6.53071,2.49575 -0.25735,-2.02962 -0.59724,-6.19568 -1.92766,-7.29304 z m 8.84196,7.2979 h 0.19422 c 0.36902,1.748 0.57781,4.74873 1.53921,6.15198 -0.68949,1.68002 -4.93324,1.53921 -6.53557,2.49575 -0.67007,-0.40301 -1.55378,-5.22457 -1.53435,-6.53071 1.46637,-0.1311 5.27312,-1.39355 6.33649,-2.11702 z m -33.2411,10.93955 c -0.29133,0.6555 -0.25734,1.71401 -0.5681,2.49575 -1.6606,4.06896 -2.20442,4.91868 0.38359,8.83711 1.15077,0 1.30614,-0.17966 1.9228,-0.57781 0.76232,-3.1901 0.88371,-9.25468 -1.73829,-10.75505 z m 219.03388,1.15562 c -5.60816,-1.38383 -10.3229,1.38383 -16.14956,0.96626 -0.55353,-0.58752 -0.97111,-0.92256 -1.33528,-1.72858 -4.05438,0.11653 -8.5312,9.15271 -4.41855,11.91067 2.19957,1.49065 8.46808,0.62636 11.14349,0 1.48094,-0.3496 3.8019,-0.67492 4.99151,0.18451 1.61204,1.19932 1.32556,5.73926 0.76232,8.269 -0.64093,4.73416 -1.28672,9.47318 -1.9228,14.22191 -0.5681,2.87448 -1.14591,5.75382 -1.72858,8.63802 2.94732,-0.0143 5.71984,-3.02501 6.55014,-5.19058 0.4807,-1.25273 0.22336,-2.43749 0.57781,-3.84074 1.01481,-4.03011 1.15077,-8.8371 2.11217,-13.06143 0.61665,-2.73853 0.19907,-5.33625 0.75746,-7.87571 0.41758,-1.89852 0.69435,-8.23501 0.20394,-9.98786 -0.29619,-0.97597 -1.0488,-1.74315 -1.54407,-2.50547 z m -263.0106,58.02869 c -0.6555,-0.49527 -1.11192,-1.37412 -1.72857,-1.91795 -2.29668,-2.03933 -4.99637,-4.00582 -7.49212,-5.76839 -2.06846,-1.44695 -4.8944,-2.31124 -6.73465,-4.02525 -0.0486,-0.41758 0.59723,-1.43724 0.19908,-2.50061 -1.626611,-4.34572 -7.715471,-9.38092 -11.527079,-11.71159 -1.762564,-1.09735 -4.719595,-1.59747 -6.336493,-2.69968 -1.194465,-0.0728 -1.815976,-0.12139 -2.112164,0.76232 -0.470989,1.05365 1.01481,2.52974 1.529498,3.26778 1.315854,1.85482 2.821075,4.0204 4.612773,5.36539 1.340132,1.01481 2.86963,1.90337 4.030107,3.08327 h 0.57781 c -0.747754,-2.06846 -2.95703,-3.1901 -4.607917,-4.41369 -1.510076,-1.12164 -2.180142,-3.06871 -3.457152,-4.42341 0.101967,-0.60694 0.169944,-0.55353 0.388444,-0.9614 5.307117,0.0388 8.749702,4.90896 11.138633,8.06507 1.068221,1.41297 2.772519,2.23841 2.884197,4.61763 -0.563244,0 -1.048799,0.005 -1.340132,-0.19422 h -0.577811 c 0.912844,2.53945 4.000974,2.32581 6.151986,3.65623 4.31173,2.66569 7.78345,6.85118 11.52222,10.17237 1.27215,1.1362 3.49114,2.25784 3.84074,4.23404 -2.60743,-0.13595 -4.45254,-1.58776 -6.12285,-2.69483 -2.98131,-1.94222 -7.75431,-5.33139 -9.80336,-8.06992 -0.38844,-0.50498 -0.51469,-1.2673 -0.96625,-1.72372 -0.52926,-0.53897 -1.2673,-0.6992 -1.723722,-1.34013 h -0.767177 c -0.189366,1.99563 1.976209,3.42802 3.258069,4.60791 3.9767,3.64167 8.23502,7.00171 13.25566,9.60914 1.81112,0.93712 5.11289,2.5346 7.11338,1.34498 -0.26705,-2.75309 -3.4086,-4.98179 -5.20515,-6.34134 z m 118.32491,12.67784 c -9.77908,-6.69095 -24.20492,-13.47415 -40.91772,-13.05658 -0.81088,0.50498 -2.44235,0.10197 -3.4523,0.37874 -1.3984,0.36902 -2.25298,1.08278 -3.26293,1.72372 -0.0388,4.71959 7.02113,7.26876 10.94927,8.25443 2.34523,0.59723 4.41369,-0.50012 5.76839,-0.96625 1.04394,-3.98641 -3.76791,-4.56908 -5.95776,-6.53557 h -0.3933 v -0.18451 c 14.74145,-0.58267 25.77326,3.53484 34.19764,9.80335 2.10245,1.56349 4.51566,3.8019 5.57417,6.3365 0.3933,0.94683 0.56325,2.49575 0,3.27264 -0.77203,2.13644 -3.32605,1.94707 -5.76839,2.5006 -5.64215,1.28673 -13.37704,-1.89851 -15.95048,-4.4234 -0.5244,0.92255 0.23792,2.33552 -0.57296,3.26778 -0.85458,2.32096 -3.82617,1.71887 -6.53557,2.30153 -4.45254,0.96626 -11.42511,-1.31585 -14.02283,-3.0687 -0.72348,-0.49527 -1.24788,-1.38869 -1.9228,-1.9228 -0.0342,-0.49527 -0.0874,-0.6555 -0.19907,-0.9614 0.39329,-0.36417 0.85943,-0.90799 1.15076,-1.34499 5.53047,-0.41272 8.34184,-0.13595 11.53679,2.8842 -0.0825,0.38844 -0.0486,0.36417 -0.19908,0.56324 -0.35931,0.73805 -1.18961,0.82545 -2.30153,0.78175 v 0.36416 c 2.02476,0.0194 2.87934,-0.28647 4.03011,-0.95654 0.0631,-0.38359 0.1311,-0.77203 0.19422,-1.15077 -0.66036,-0.67977 -1.12163,-1.59262 -1.9228,-2.12187 -3.15611,-2.06361 -9.6674,-3.11241 -13.2508,-0.75747 -0.56324,2.71911 1.12649,4.1952 2.68998,5.37024 3.13668,2.36951 5.78296,3.74849 10.18694,4.99636 1.41297,0.3933 2.67056,0.0342 4.22919,0.37388 1.35955,0.31076 3.71449,0.38359 5.18573,0 2.44719,-0.62151 5.85093,-3.20466 3.0687,-6.15684 v -0.17965 c 1.45181,0.53411 2.64142,1.95678 4.03497,2.69968 3.69507,1.92766 9.81306,3.52028 15.37752,2.30153 2.72882,-0.60208 5.5499,-0.60208 6.32679,-3.07841 0.86914,-1.34985 -0.33018,-3.24351 -0.75747,-4.01555 -1.7917,-3.19009 -4.15149,-5.27798 -7.11338,-7.29303 z m -35.54263,-8.84196 c 0.67978,0.45642 1.06822,1.41297 1.72858,1.9228 -0.0148,0.48555 -0.0194,0.71862 -0.19423,0.96625 -1.24787,3.38432 -8.28356,0.87886 -9.99272,-0.3933 -0.53411,-0.38844 -0.7429,-1.20417 -1.14591,-1.71886 0.0728,-0.39816 0.0486,-0.37873 0.19908,-0.57296 0.5244,-1.47608 2.02476,-0.98567 3.25807,-1.72857 2.43749,0.01 4.64191,0.50012 6.14713,1.52464 z m 178.29096,1.91794 h -1.9228 c -1.27701,1.01967 -3.3649,1.15077 -4.81671,1.91795 -1.27215,0.68463 -2.82107,1.61204 -4.02525,2.5006 -1.0051,0.72348 -1.58291,2.02963 -2.50061,2.86964 0.0194,0.96139 0.0388,1.10706 0.77203,1.34984 0.19423,0.15052 0.0486,0.0777 0.37388,0.19422 0.20394,-0.22821 0.38845,-0.31076 0.58267,-0.58267 0.16023,-0.11653 -0.13596,-0.50497 -0.19422,-1.13619 1.85967,-1.86454 3.23865,-2.89391 5.95776,-4.03982 0.69434,-0.27677 2.17043,-1.13135 3.07356,-0.57296 h 0.38844 c -0.1311,1.89367 -4.44768,7.72033 -5.76353,8.64288 v 0.5681 c 3.53484,-0.90799 5.89463,-7.97767 8.26414,-10.55596 -0.0583,-0.43701 -0.0486,-0.54868 -0.19422,-0.76233 v -0.3933 z m -15.37268,14.21705 c -1.1362,1.01967 -3.91843,1.11678 -5.18087,2.11217 h -0.19422 c 0.50012,-0.72833 1.40811,-1.03423 1.9228,-1.72372 0.36902,-0.50498 0.5244,-1.0925 0.95654,-1.53435 -0.0825,-0.3933 -0.0486,-0.36417 -0.18937,-0.5681 v -0.38845 c -5.60816,-1.02938 -14.97451,3.80675 -17.86842,6.34135 -0.75261,0.6555 -1.19932,1.63632 -1.9228,2.3161 0.0143,0.53897 0.0777,0.81573 0.18937,1.14591 3.40374,0.22821 9.78393,-1.85968 10.55596,-4.60792 0.15053,-0.12139 0.0534,-0.01 0,-0.19422 v -0.38359 c -2.32581,-0.13595 -5.45764,0.36417 -6.90459,1.72372 h -0.18937 c 1.26245,-1.9228 5.93349,-3.62224 8.44381,-4.41369 0.83515,-0.2622 2.67055,-0.72834 3.46686,-0.19423 0.17965,0.0728 0.37388,0.12625 0.5681,0.19423 -0.45157,1.91794 -3.1901,4.06409 -4.99636,4.60791 v 0.38845 c 2.95217,-0.67978 5.647,-2.01991 8.25443,-3.07357 1.7917,-0.73319 3.81647,-0.91284 5.38481,-1.92279 1.11192,-0.72834 4.89439,-5.86551 5.19058,-7.30275 -4.44283,0.68463 -4.80214,5.07405 -7.48726,7.47754 z m -15.17845,3.8456 v 0.57781 c -0.36416,0.23792 -0.62636,0.76232 -0.96625,0.95654 -0.99539,0.58267 -2.32095,0.51955 -3.26779,1.15563 -0.437,-0.0486 -0.53411,-0.0388 -0.75746,-0.19908 h -0.18937 c 0.51954,-1.64118 3.68536,-2.38893 5.18087,-2.4909 z m -80.10687,18.04808 c 0.068,-0.17965 0.12139,-0.37873 0.18937,-0.5681 -4.73902,-0.19422 -9.48289,-0.38359 -14.2122,-0.57781 -0.59723,0.39816 -1.51493,0.16995 -2.30638,0.38359 -0.98083,0.28162 -2.06847,0.73319 -2.87935,1.16048 0.12625,0.32532 0.0388,0.18451 0.19423,0.37873 1.15562,0.91284 7.88541,0.96625 9.22554,0 h 0.37874 v -0.37873 c -2.03448,-0.64579 -5.74412,0.97596 -7.2979,0 h -0.19907 v -0.19908 c 5.10803,-0.35445 10.82787,-0.20879 16.1447,-0.19422 -0.51954,0.35445 -1.59262,0.24763 -2.11702,0.57781 -0.18937,0.068 -0.37873,0.1311 -0.5681,0.19422 v 0.38359 c 1.15562,0.18451 2.30153,0.38359 3.4523,0.5681 0.17965,0.20393 -0.0194,0.0245 0.18936,0.18937 -1.69944,1.13134 -6.08886,0.66521 -7.67662,-0.18937 v -0.38359 c -0.86429,-0.39816 -4.81185,0.40787 -5.57417,0.57295 -0.64579,0.14567 -1.311,-0.068 -1.73343,0.18937 -0.80117,0.0434 -0.87886,0.14081 -1.34014,0.38359 0.10683,0.62151 0.16995,0.55839 0.38845,0.9614 1.23816,0.29133 3.37946,0.32047 4.79243,0.76717 v -0.18936 h 0.19422 v -0.19422 c -0.71862,-0.27677 -2.71425,-0.12625 -3.46201,-0.56325 h -0.38359 c 0.64093,-0.50497 6.91916,-1.34984 8.07478,-0.57781 0.33018,0.11654 0.18937,0.0337 0.38359,0.18937 -1.02452,0.18451 -2.0539,0.38844 -3.07842,0.5681 0.12139,0.33018 0.0434,0.18936 0.19422,0.38359 0.31561,0.21364 0.93713,0.21364 1.53436,0.19422 -0.19422,0.35931 -0.2622,0.5244 -0.57781,0.76232 0.0631,0.11653 0.1311,0.25249 0.19422,0.38359 2.71911,-0.005 5.00607,-0.27677 7.29304,-0.76232 1.35955,-0.29619 3.02986,0.24763 4.03496,-0.38359 h 1.53921 v -0.38845 c -2.61714,-0.005 -9.15271,-0.25734 -10.75505,0.77204 h -0.5681 c 0.16024,-0.20394 -0.0194,-0.0194 0.18452,-0.19423 0.75746,-0.87399 2.28696,-0.43699 3.64166,-0.76717 2.13644,-0.50983 5.67128,-1.37898 7.49697,0 0.51469,0.32047 0.19422,-0.0342 0.18936,0.57781 0.51955,-0.0148 0.87886,-0.0148 1.15077,-0.18451 h 1.34984 v -0.3933 c -1.75285,-0.42243 -4.31658,-1.21874 -5.76354,-2.10245 -0.84001,-0.51955 -0.46127,-1.21875 -1.91794,-1.34985 z M 71.725743,94.05891 c -0.427288,1.55377 -1.33042,2.87934 -1.917942,4.22432 -1.301288,2.97646 -2.461764,5.94805 -3.646518,8.84682 -1.005099,2.40835 -1.62661,6.28793 -3.073564,8.24958 v 0.38359 c 2.019909,-0.35932 3.389174,-2.39379 4.607917,-3.64652 2.995875,-3.07842 9.322657,-10.77932 9.225546,-16.51859 -0.301044,-0.29618 -0.57781,-0.78659 -0.772032,-1.15076 -1.194466,-0.28648 -2.738531,-0.41758 -4.423407,-0.38844 z m 0.772033,8.07478 c -0.878855,1.44695 -1.36441,2.87448 -2.311242,4.22918 -0.864288,1.23817 -2.233553,2.19471 -3.073564,3.46201 h -0.199077 c 0.247633,-1.46638 1.039088,-2.65113 1.54892,-3.8456 1.141055,-2.72396 1.922798,-5.4285 3.258075,-7.87085 0.738043,0.0148 1.301287,0.0728 1.728576,0.37874 0.461277,0.25249 0.135955,-0.0874 0.383588,0.38844 0.3933,0.95654 -0.869143,2.48119 -1.335276,3.25808 z M 413.50308,43.15331 c -2.01019,-2.0199 -3.53969,-4.5545 -5.57417,-6.53557 v -0.18936 c -0.99539,0.35445 -4.36999,3.34062 -4.9915,4.22918 -1.21389,-0.46128 -1.89852,-1.77227 -2.8842,-2.49575 -3.28235,-2.46662 -6.37048,-5.66643 -12.09518,-5.56932 -0.72347,0.55839 -1.78198,0.57296 -2.69483,0.95655 -2.57829,1.11677 -5.25856,3.34061 -6.33649,5.95776 -1.20903,2.92304 0.0194,7.23962 0.95169,9.41491 1.90337,4.38942 5.01092,8.0942 7.68633,11.7213 2.21899,2.98616 4.7196,6.07915 8.8371,7.10852 4.64191,1.15562 6.9046,-4.2923 8.64774,-6.35106 1.79655,-2.11216 5.73926,-2.61714 7.10853,-5.37509 0.50497,-1.0051 0.16508,-2.98616 -0.18937,-3.84074 -0.874,-2.06847 -5.18087,-7.8757 -6.91916,-9.02647 0.12624,-1.16048 0.6555,-1.19932 1.14591,-1.9228 1.20418,0.58752 1.64603,2.28697 2.50061,3.26779 1.09735,1.25273 2.65113,1.9228 3.84074,3.06871 1.8354,0.0148 2.93761,-0.45643 3.83588,-1.34499 h 0.19908 c -0.46613,-1.28672 -2.15586,-2.17529 -3.06871,-3.07357 z m -10.94926,20.74777 c -3.39403,0.80117 -5.07891,-1.42267 -6.91431,-3.26778 -4.54479,-4.53994 -7.62321,-10.16267 -11.14834,-15.75141 -1.20903,-1.9228 -4.29716,-5.50619 -2.68998,-8.26415 h 0.76233 c 0.97111,1.45181 2.61714,2.46177 3.65623,3.8456 2.86963,3.80675 6.38019,7.1328 9.22069,10.94927 1.74799,2.35494 3.68536,4.56421 5.37509,6.9143 0.86429,1.20903 1.53435,2.74339 2.69969,3.64652 -0.20879,0.874 -0.58267,1.28186 -0.9614,1.92765 z m 2.87448,-13.63924 c 1.55378,2.13159 3.66594,3.34062 3.64652,7.10367 -0.59238,0.56324 -0.76232,1.08764 -1.72857,1.34013 -0.19423,0.15538 -0.0534,0.0728 -0.38359,0.19908 -2.71426,-4.52537 -6.63268,-8.30785 -9.78879,-12.49333 -1.02938,-1.36927 -2.62686,-2.48119 -3.65138,-3.84074 -1.75771,-2.33067 -3.85045,-4.1952 -5.76839,-6.33649 -0.55353,-0.63608 -0.81573,-1.24788 -1.52464,-1.73344 0.16509,-0.41757 0.15537,-0.27676 0.37873,-0.57295 3.25322,0.0291 4.82156,2.22384 6.72008,3.65623 4.70017,3.52027 8.64288,7.89512 12.10003,12.67784 z" style="fill:#000000"/></svg>